<svg width="23" height="23" viewBox="0 0 23 23" fill="none" xmlns="http://www.w3.org/2000/svg">
<path d="M8.62492 14.375H6.70825V16.2917H8.62492V14.375Z" fill="white"/>
<path d="M12.4584 14.375H10.5417V16.2917H12.4584V14.375Z" fill="white"/>
<path d="M8.62492 10.5416H6.70825V12.4583H8.62492V10.5416Z" fill="white"/>
<path d="M12.4584 10.5416H10.5417V12.4583H12.4584V10.5416Z" fill="white"/>
<path d="M16.2917 14.375H14.375V16.2917H16.2917V14.375Z" fill="white"/>
<path d="M16.2917 10.5416H14.375V12.4583H16.2917V10.5416Z" fill="white"/>
<path d="M16.2917 14.375H14.375V16.2917H16.2917V14.375Z" fill="white"/>
<path d="M16.2917 10.5416H14.375V12.4583H16.2917V10.5416Z" fill="white"/>
<path d="M12.4584 14.375H10.5417V16.2917H12.4584V14.375Z" fill="white"/>
<path d="M12.4584 10.5416H10.5417V12.4583H12.4584V10.5416Z" fill="white"/>
<path d="M8.62492 14.375H6.70825V16.2917H8.62492V14.375Z" fill="white"/>
<path d="M8.62492 10.5416H6.70825V12.4583H8.62492V10.5416Z" fill="white"/>
<path d="M8.62492 10.5416H6.70825V12.4583H8.62492V10.5416Z" fill="white"/>
<path d="M8.62492 14.375H6.70825V16.2917H8.62492V14.375Z" fill="white"/>
<path d="M12.4584 10.5416H10.5417V12.4583H12.4584V10.5416Z" fill="white"/>
<path d="M12.4584 14.375H10.5417V16.2917H12.4584V14.375Z" fill="white"/>
<path d="M16.2917 10.5416H14.375V12.4583H16.2917V10.5416Z" fill="white"/>
<path d="M16.2917 14.375H14.375V16.2917H16.2917V14.375Z" fill="white"/>
<path d="M16.2917 4.79167V2.875H14.375V4.79167H8.625V2.875H6.70833V4.79167H2.875V20.125H20.125V4.79167H16.2917ZM18.2083 18.2083H4.79167V6.70833H6.70833V8.625H8.625V6.70833H14.375V8.625H16.2917V6.70833H18.2083V18.2083Z" fill="white"/>
<path d="M8.62492 10.5416H6.70825V12.4583H8.62492V10.5416Z" fill="white"/>
<path d="M8.62492 14.375H6.70825V16.2917H8.62492V14.375Z" fill="white"/>
<path d="M12.4584 10.5416H10.5417V12.4583H12.4584V10.5416Z" fill="white"/>
<path d="M12.4584 14.375H10.5417V16.2917H12.4584V14.375Z" fill="white"/>
<path d="M16.2917 10.5416H14.375V12.4583H16.2917V10.5416Z" fill="white"/>
<path d="M16.2917 14.375H14.375V16.2917H16.2917V14.375Z" fill="white"/>
<path d="M16.2917 14.375H14.375V16.2917H16.2917V14.375Z" fill="white"/>
<path d="M16.2917 10.5416H14.375V12.4583H16.2917V10.5416Z" fill="white"/>
<path d="M12.4584 14.375H10.5417V16.2917H12.4584V14.375Z" fill="white"/>
<path d="M12.4584 10.5416H10.5417V12.4583H12.4584V10.5416Z" fill="white"/>
<path d="M8.62492 14.375H6.70825V16.2917H8.62492V14.375Z" fill="white"/>
<path d="M8.62492 10.5416H6.70825V12.4583H8.62492V10.5416Z" fill="white"/>
<path d="M16.2917 14.375H14.375V16.2917H16.2917V14.375Z" fill="white"/>
<path d="M16.2917 10.5416H14.375V12.4583H16.2917V10.5416Z" fill="white"/>
<path d="M12.4584 14.375H10.5417V16.2917H12.4584V14.375Z" fill="white"/>
<path d="M12.4584 10.5416H10.5417V12.4583H12.4584V10.5416Z" fill="white"/>
<path d="M8.62492 14.375H6.70825V16.2917H8.62492V14.375Z" fill="white"/>
<path d="M8.62492 10.5416H6.70825V12.4583H8.62492V10.5416Z" fill="white"/>
<path d="M16.2917 14.375H14.375V16.2917H16.2917V14.375Z" fill="white"/>
<path d="M16.2917 10.5416H14.375V12.4583H16.2917V10.5416Z" fill="white"/>
<path d="M12.4584 14.375H10.5417V16.2917H12.4584V14.375Z" fill="white"/>
<path d="M12.4584 10.5416H10.5417V12.4583H12.4584V10.5416Z" fill="white"/>
<path d="M8.62492 14.375H6.70825V16.2917H8.62492V14.375Z" fill="white"/>
<path d="M8.62492 10.5416H6.70825V12.4583H8.62492V10.5416Z" fill="white"/>
<path d="M16.2917 4.79167V2.875H14.375V4.79167H8.625V2.875H6.70833V4.79167H2.875V20.125H20.125V4.79167H16.2917ZM18.2083 18.2083H4.79167V6.70833H6.70833V8.625H8.625V6.70833H14.375V8.625H16.2917V6.70833H18.2083V18.2083Z" fill="white"/>
</svg>
