<svg width="23" height="23" viewBox="0 0 23 23" fill="none" xmlns="http://www.w3.org/2000/svg">
<path fill-rule="evenodd" clip-rule="evenodd" d="M17.5988 4.44287C20.9671 7.81114 20.9671 13.2722 17.5988 16.6405L11.5 22.7393L5.4012 16.6405C2.03293 13.2722 2.03293 7.81114 5.4012 4.44287C8.76948 1.0746 14.2305 1.0746 17.5988 4.44287ZM8.30589 15.3228C9.25155 15.9545 10.3633 16.2917 11.5006 16.2916C13.025 16.2899 14.4865 15.6835 15.5644 14.6056C16.6423 13.5276 17.2485 12.066 17.25 10.5416C17.25 9.4043 16.9128 8.29257 16.2809 7.34698C15.6491 6.40138 14.751 5.66439 13.7003 5.2292C12.6496 4.79402 11.4934 4.68018 10.378 4.9021C9.26261 5.12401 8.23806 5.6717 7.43393 6.47591C6.62981 7.28012 6.08222 8.30472 5.86042 9.42015C5.63862 10.5356 5.75257 11.6917 6.18786 12.7424C6.62315 13.7931 7.36024 14.691 8.30589 15.3228Z" fill="white"/>
<path d="M8.625 10.5411L11.5 7.66614L14.375 10.5411L11.5 13.4161L8.625 10.5411Z" fill="white"/>
</svg>
