<svg width="111" height="39" viewBox="0 0 111 39" fill="none" xmlns="http://www.w3.org/2000/svg">
<g clip-path="url(#clip0_201_377)">
<path fill-rule="evenodd" clip-rule="evenodd" d="M50.2552 12.3788H53.2469V25.7376H50.9465L50.6178 24.8825C50.288 25.2353 49.8875 25.5137 49.4427 25.6991C48.9979 25.8846 48.5191 25.9728 48.038 25.9581C47.1996 25.9648 46.3764 25.7343 45.662 25.2929C44.9428 24.8539 44.3493 24.2345 43.9396 23.4953C43.5232 22.7393 43.3047 21.8893 43.3047 21.025C43.3047 20.1607 43.5232 19.3106 43.9396 18.5546C44.351 17.8175 44.9459 17.2006 45.6658 16.7646C46.3811 16.3296 47.2021 16.102 48.038 16.1071C48.8397 16.0863 49.6237 16.3469 50.2552 16.8444V12.3788ZM48.3213 23.1571C48.6914 23.1599 49.056 23.0656 49.3789 22.8834C49.6956 22.7052 49.9572 22.442 50.1344 22.1233C50.3215 21.7938 50.4167 21.4196 50.4101 21.0402C50.4146 20.6583 50.3224 20.2816 50.1419 19.9457C49.9641 19.6274 49.7028 19.3644 49.3864 19.1855C49.0651 19.0061 48.7038 18.9121 48.3363 18.9121C47.9689 18.9121 47.6075 19.0061 47.2862 19.1855C46.9704 19.365 46.7092 19.6278 46.5308 19.9457C46.3504 20.2816 46.2581 20.6583 46.2626 21.0402C46.2558 21.4182 46.3469 21.7915 46.527 22.1233C46.6969 22.4399 46.9505 22.703 47.2598 22.8834C47.5781 23.067 47.9393 23.1615 48.3061 23.1571H48.3213ZM62.048 16.3161H64.2615V25.749H61.9611L61.6325 24.8825C61.3026 25.2353 60.9021 25.5137 60.4574 25.6991C60.0126 25.8846 59.5338 25.9728 59.0526 25.9581C58.2143 25.9651 57.3909 25.7347 56.6767 25.2929C55.9575 24.8539 55.364 24.2345 54.9542 23.4953C54.5378 22.7393 54.3194 21.8893 54.3194 21.025C54.3194 20.1607 54.5378 19.3106 54.9542 18.5546C55.3656 17.8175 55.9605 17.2006 56.6804 16.7646C57.3958 16.3296 58.2167 16.102 59.0526 16.1071C59.5426 16.0942 60.0297 16.1869 60.4811 16.3789C60.9326 16.571 61.338 16.858 61.6702 17.2206L62.048 16.3048V16.3161ZM59.3321 23.1571C59.7035 23.16 60.0693 23.0657 60.3935 22.8834C60.7103 22.7052 60.9718 22.442 61.149 22.1233C61.3361 21.7938 61.4313 21.4196 61.4247 21.0402C61.4293 20.6583 61.337 20.2816 61.1566 19.9457C60.9787 19.6274 60.7174 19.3644 60.4011 19.1855C60.0792 19.0062 59.7171 18.9121 59.3491 18.9121C58.9811 18.9121 58.6191 19.0062 58.2971 19.1855C57.9888 19.3685 57.7345 19.6309 57.5605 19.9457C57.3801 20.2816 57.2879 20.6583 57.2924 21.0402C57.2856 21.4182 57.3767 21.7915 57.5567 22.1233C57.7252 22.4397 57.9776 22.7029 58.2858 22.8834C58.6043 23.0665 58.9654 23.1609 59.3321 23.1571ZM71.1135 16.1071C71.9481 16.1028 72.7677 16.3303 73.4819 16.7646C74.2027 17.1995 74.7978 17.8166 75.2082 18.5546C75.6269 19.3098 75.8468 20.1602 75.8468 21.025C75.8468 21.8897 75.6269 22.7401 75.2082 23.4953C74.8008 24.235 74.2084 24.8548 73.4895 25.2929C72.7753 25.7347 71.9518 25.9651 71.1135 25.9581C70.3108 25.9776 69.5261 25.717 68.8925 25.2208V28.8958H65.9008V16.3048H68.1143L68.4921 17.2206C68.8239 16.8574 69.2292 16.57 69.6807 16.3779C70.1323 16.1858 70.6197 16.0934 71.1097 16.1071H71.1135ZM70.8302 23.1571C71.1982 23.1609 71.5605 23.0665 71.8803 22.8834C72.1885 22.7039 72.4399 22.4404 72.6056 22.1233C72.7868 21.7918 72.8792 21.4185 72.8738 21.0402C72.8783 20.6583 72.786 20.2816 72.6056 19.9457C72.426 19.6288 72.165 19.3663 71.8501 19.1855C71.5288 19.0061 71.1674 18.9121 70.8 18.9121C70.4326 18.9121 70.0713 19.0061 69.7499 19.1855C69.4336 19.3644 69.1723 19.6274 68.9945 19.9457C68.8129 20.2813 68.7193 20.658 68.7225 21.0402C68.7178 21.4194 68.8129 21.7931 68.9983 22.1233C69.1759 22.4417 69.4373 22.7047 69.7537 22.8834C70.0767 23.0656 70.4412 23.1599 70.8114 23.1571H70.8302ZM82.1282 16.1071C82.9628 16.1028 83.7823 16.3303 84.4966 16.7646C85.2222 17.2081 85.8213 17.8336 86.2351 18.5795C86.6489 19.3256 86.8633 20.1668 86.8574 21.0212C86.8651 21.8876 86.6463 22.7408 86.2228 23.4953C85.8143 24.2343 85.2222 24.8536 84.5041 25.2929C83.7896 25.7337 82.9664 25.9642 82.1282 25.9581C81.3254 25.9776 80.5408 25.717 79.9071 25.2208V28.8958H76.9155V16.3048H79.129L79.5067 17.2206C79.8395 16.8577 80.2456 16.5706 80.6977 16.3785C81.1499 16.1864 81.6376 16.0939 82.1282 16.1071ZM81.8449 23.1571C82.2128 23.1609 82.5752 23.0665 82.895 22.8834C83.2013 22.7016 83.4521 22.4387 83.6202 22.1233C83.8014 21.7918 83.8939 21.4185 83.8884 21.0402C83.893 20.6583 83.8007 20.2816 83.6202 19.9457C83.4406 19.6288 83.1797 19.3663 82.8647 19.1855C82.5434 19.0061 82.1821 18.9121 81.8147 18.9121C81.4473 18.9121 81.0859 19.0061 80.7646 19.1855C80.4483 19.3644 80.1869 19.6274 80.0091 19.9457C79.8276 20.2813 79.7339 20.658 79.7372 21.0402C79.7324 21.4194 79.8276 21.7931 80.0129 22.1233C80.1906 22.4417 80.452 22.7047 80.7683 22.8834C81.0913 23.0656 81.4558 23.1599 81.826 23.1571H81.8449ZM94.0082 25.9581C92.5889 25.9623 91.2085 25.4962 90.0791 24.6317C88.9497 23.7672 88.1357 22.5526 87.7614 21.1755C87.3874 19.7984 87.4746 18.3357 88.0097 17.0136C88.5445 15.6914 89.4977 14.5834 90.7213 13.861C91.7221 13.2954 92.8506 12.9982 93.9985 12.9982C95.1463 12.9982 96.2748 13.2954 97.2756 13.861C98.2464 14.4191 99.0516 15.2272 99.6093 16.2021C100.185 17.1905 100.489 18.3144 100.493 19.4598C100.496 20.605 100.198 21.7308 99.6278 22.7224C99.0587 23.714 98.2385 24.5361 97.2501 25.1052C96.2625 25.6742 95.1419 25.9698 94.0038 25.9619L94.0082 25.9581ZM94.0082 22.8872C94.5728 22.8897 95.127 22.7345 95.6097 22.4387C96.1048 22.1361 96.5136 21.7092 96.7955 21.1998C97.0915 20.6725 97.2439 20.0761 97.2377 19.4706C97.243 18.8763 97.095 18.2907 96.8078 17.7716C96.5206 17.2525 96.1031 16.8176 95.5983 16.5099C95.1173 16.2165 94.5649 16.0613 94.002 16.0613C93.4391 16.0613 92.8876 16.2165 92.4066 16.5099C91.9115 16.8112 91.5027 17.2369 91.2199 17.7451C90.9257 18.2719 90.7707 18.8662 90.7707 19.4706C90.7707 20.075 90.9257 20.6692 91.2199 21.196C91.5036 21.7066 91.915 22.1337 92.4136 22.4349C92.8929 22.7321 93.4452 22.8888 94.0082 22.8872ZM106.031 25.9504C105.063 25.9573 104.105 25.7606 103.217 25.3728C102.33 24.9757 101.533 24.4001 100.875 23.6815L102.888 21.5722C103.865 22.5122 104.885 22.9823 105.948 22.9823C106.343 23.0126 106.738 22.9225 107.081 22.7238C107.2 22.6498 107.296 22.546 107.363 22.4227C107.429 22.2994 107.462 22.1609 107.459 22.0207C107.464 21.8326 107.407 21.6482 107.296 21.4963C107.126 21.3004 106.911 21.1481 106.669 21.0516C106.229 20.8553 105.774 20.6915 105.31 20.5613C104.38 20.2976 103.513 19.8477 102.76 19.2387C102.399 18.9216 102.116 18.5252 101.933 18.0803C101.75 17.6355 101.671 17.154 101.702 16.6734C101.698 16.037 101.852 15.4098 102.152 14.8492C102.471 14.2669 102.958 13.7963 103.55 13.4999C104.298 13.1333 105.124 12.957 105.956 12.9869C106.817 12.9743 107.673 13.1318 108.475 13.4506C109.229 13.7652 109.923 14.2117 110.522 14.7693L108.724 16.9774C108.372 16.6556 107.967 16.3984 107.527 16.2174C107.074 16.0117 106.584 15.9042 106.088 15.9019C105.772 15.8811 105.46 15.9652 105.196 16.1413C105.097 16.2167 105.017 16.3151 104.963 16.4282C104.909 16.5413 104.883 16.6659 104.886 16.7912C104.887 16.8708 104.904 16.9493 104.937 17.0215C104.971 17.0936 105.019 17.1577 105.079 17.2093C105.232 17.3488 105.411 17.4584 105.604 17.5323C105.827 17.6273 106.171 17.7527 106.639 17.9124L106.748 17.9542L106.885 18.0036C107.608 18.2465 108.304 18.5649 108.962 18.9537C109.48 19.26 109.917 19.686 110.239 20.1964C110.551 20.7315 110.706 21.3439 110.688 21.9637C110.71 22.7006 110.512 23.4271 110.119 24.0496C109.727 24.6721 109.158 25.1621 108.487 25.4564C107.713 25.801 106.873 25.9697 106.027 25.9504H106.031Z" fill="white"/>
<path fill-rule="evenodd" clip-rule="evenodd" d="M19.406 5.56139C20.1351 5.79322 21.8839 6.57613 22.5677 6.88397C23.8783 7.47305 25.2117 8.09633 26.5338 8.62841C27.1057 8.86835 27.6972 9.05777 28.3016 9.19471C29.8617 9.52533 33.9449 10.0422 34.028 7.57186C34.0303 7.18796 33.9067 6.814 33.6767 6.50772C32.7399 4.98751 30.5491 3.49011 29.0079 2.61219C28.4791 2.31068 27.9428 2.03198 27.3988 1.77607C27.2555 1.71998 27.1092 1.67177 26.9607 1.63166C25.699 1.2516 24.3845 0.905753 23.1003 0.613115C22.0795 0.362584 21.0436 0.179764 19.9991 0.0658404C19.6886 0.0392511 19.3765 0.0392511 19.066 0.0658404C18.9301 0.0658404 18.7601 0.0658404 18.6166 0.0658404C15.4417 0.178413 12.3462 1.09332 9.61519 2.7262C8.42861 3.48892 7.3033 4.34413 6.24964 5.28395C6.04944 5.45118 5.84924 5.6184 5.64526 5.78182C9.41125 3.72193 15.8365 2.60459 19.406 5.56139Z" fill="#DBDBDB"/>
<path fill-rule="evenodd" clip-rule="evenodd" d="M19.4323 5.5463C19.1612 5.38993 18.8664 5.27951 18.5597 5.21945C14.4878 3.69925 11.0051 2.92014 6.99736 5.01802L5.64508 5.77813C5.54158 5.84797 5.4454 5.9282 5.358 6.01756C5.12983 6.25313 4.96395 6.54247 4.87553 6.85914C4.78711 7.17582 4.77897 7.50975 4.85184 7.83041C5.55443 10.3767 9.51301 9.4494 11.1826 9.02377C13.6001 8.40429 17.0601 6.61424 19.4323 5.5463Z" fill="#A0A0A0"/>
<path fill-rule="evenodd" clip-rule="evenodd" d="M7.41316 4.23521C15.7874 -2.22568 23.8596 0.221857 27.3989 1.77626L19.4061 5.57679C16.4599 4.46323 13.0376 3.52451 9.96283 3.99957C8.99713 4.18535 8.06237 4.5078 7.18651 4.9573C6.55477 5.24291 5.95253 5.59044 5.38851 5.99484C5.31675 6.05185 5.49805 5.89223 5.49805 5.89223C6.09109 5.36016 6.70679 4.79008 7.33005 4.29981L7.41316 4.23521Z" fill="#D5D5D5"/>
<path fill-rule="evenodd" clip-rule="evenodd" d="M19.425 33.4188C18.696 33.1869 16.9432 32.404 16.2633 32.0961C14.9526 31.5071 13.6192 30.8838 12.2972 30.3517C11.7252 30.1124 11.1337 29.9229 10.5294 29.7855C8.96561 29.4548 4.86344 28.9379 4.79922 31.4082C4.79701 31.7922 4.92046 32.1662 5.15051 32.4724C6.08728 33.9926 8.28191 35.49 9.82304 36.368C10.3469 36.6669 10.8832 36.9456 11.4322 37.2041C11.5753 37.2607 11.7217 37.3089 11.8704 37.3485C13.1282 37.7285 14.4465 38.0744 15.727 38.367C16.7479 38.6169 17.7838 38.7997 18.8281 38.9143C19.1381 38.9472 19.4502 38.9536 19.7611 38.9333C19.8972 38.9333 20.0709 38.9333 20.2107 38.9333C23.3867 38.8207 26.4834 37.9058 29.2158 36.273C30.4005 35.5093 31.5245 34.6541 32.5776 33.7152L33.1819 33.2173C29.4159 35.2582 22.9945 36.3755 19.425 33.4188Z" fill="#DBDBDB"/>
<path fill-rule="evenodd" clip-rule="evenodd" d="M19.3986 33.4346C19.6683 33.5909 19.9618 33.7014 20.2674 33.7614C24.3431 35.2816 27.822 36.0645 31.8297 33.9628L33.182 33.2028C33.2854 33.1329 33.3817 33.0527 33.469 32.9633C33.6972 32.7278 33.8631 32.4384 33.9515 32.1217C34.04 31.8051 34.0481 31.4711 33.9752 31.1505C33.2727 28.6041 29.314 29.5315 27.6482 29.9571C25.2269 30.5842 21.7669 32.3667 19.3986 33.4346Z" fill="#A0A0A0"/>
<path fill-rule="evenodd" clip-rule="evenodd" d="M31.4141 34.7643C23.0397 41.2251 14.9714 38.7776 11.4321 37.2232L19.4249 33.4228C22.3712 34.5363 25.7934 35.475 28.8682 35C29.8325 34.8136 30.7659 34.4911 31.6407 34.0422C32.2688 33.7526 32.866 33.3999 33.4236 32.9895C33.4954 32.9324 33.3141 33.0921 33.3141 33.0921C32.7248 33.6241 32.1091 34.1942 31.4859 34.6845L31.4141 34.7643Z" fill="#D5D5D5"/>
<path fill-rule="evenodd" clip-rule="evenodd" d="M19.4179 23.4766L19.6482 23.5375C19.7654 23.3284 26.2623 21.1583 26.7874 20.9835C28.0559 20.5662 29.349 20.2285 30.6592 19.9725L32.7253 19.6761C33.5904 19.6153 33.8585 19.4975 34.9502 19.7065C38.0589 20.3145 38.1571 22.0362 38.4895 22.5645C38.5218 22.6092 38.5508 22.6561 38.5764 22.7051C38.5764 22.7051 38.5764 22.6861 38.5764 22.6709C38.6028 22.1693 38.7388 21.5726 38.7652 21.0747C38.9163 18.1293 39.0221 13.6143 35.785 12.3335C31.8565 10.7905 24.0035 13.6827 19.4141 15.4956L19.4179 23.4766Z" fill="#D5D5D5"/>
<path fill-rule="evenodd" clip-rule="evenodd" d="M19.418 23.4771C24.4229 24.6819 30.6139 28.6496 35.7889 26.6163C36.5697 26.2908 37.2445 25.752 37.7371 25.061C38.2297 24.3699 38.5205 23.5541 38.5765 22.7055C38.6256 21.5237 37.9646 20.296 34.9503 19.707C32.8614 19.3003 28.763 20.3379 26.7875 20.9839C26.2624 21.1587 19.5388 23.2718 19.418 23.4771Z" fill="#6E6E6E"/>
<path fill-rule="evenodd" clip-rule="evenodd" d="M19.4176 15.5031L19.2136 15.45C19.0927 15.659 12.573 17.8214 12.0367 17.9963C10.7681 18.4136 9.47508 18.7512 8.16496 19.0072L6.09876 19.3037C5.50956 19.3897 4.91219 19.4037 4.31964 19.3454C4.18366 19.3265 4.04391 19.3074 3.87393 19.2733C0.765194 18.669 0.666986 16.9436 0.334582 16.4153C0.300101 16.372 0.270929 16.3249 0.247703 16.2746C0.247703 16.2746 0.247703 16.2937 0.247703 16.3088C0.221261 16.8105 0.0815005 17.4072 0.0588367 17.9051C-0.092256 20.8505 -0.19802 25.3692 3.03914 26.6462C6.96755 28.1892 14.8206 25.2971 19.41 23.4842L19.4176 15.5031Z" fill="#D5D5D5"/>
<path fill-rule="evenodd" clip-rule="evenodd" d="M19.4179 15.5034C14.4129 14.3025 8.22191 10.331 3.04699 12.3642C2.26615 12.6897 1.59133 13.2285 1.09874 13.9195C0.606144 14.6106 0.315395 15.4264 0.259331 16.2749C0.210226 17.4569 0.867481 18.6845 3.88556 19.2736C3.99887 19.2963 4.11975 19.3229 4.26329 19.3382C6.45791 19.589 10.4543 18.692 12.3203 18.0802C12.8302 17.9054 19.297 15.7124 19.4179 15.5034Z" fill="#6E6E6E"/>
<path fill-rule="evenodd" clip-rule="evenodd" d="M19.418 23.477C17.4387 22.5915 10.8624 20.5696 4.38048 19.3573C3.94609 19.2737 3.73079 19.2129 3.30017 19.1368C4.21798 19.3711 5.17165 19.4278 6.1105 19.3041C10.6849 18.6504 15.1005 17.1149 19.418 15.5035C21.5295 16.4499 28.627 18.6694 35.5358 19.8437C34.6164 19.6114 33.6618 19.5547 32.7217 19.6765C28.6724 20.2542 23.4069 22.0176 19.4671 23.477C19.3954 23.458 19.4897 23.5074 19.418 23.477Z" fill="#A0A0A0"/>
</g>
<defs>
<clipPath id="clip0_201_377">
<rect width="111" height="39" fill="white"/>
</clipPath>
</defs>
</svg>
