<svg width="110" height="32" viewBox="0 0 110 32" fill="none" xmlns="http://www.w3.org/2000/svg">
<g clip-path="url(#clip0_201_378)">
<path d="M108.766 23.5175C108.421 23.1859 108.017 23.0202 107.551 23.0202C107.223 23.0202 106.9 23.118 106.585 23.3109C106.27 23.5039 106.014 23.7974 105.823 24.1833C105.3 25.0964 104.759 25.8192 104.196 26.3437C103.633 26.8709 103.106 27.1345 102.61 27.1345C102.117 27.1345 101.648 26.9008 101.209 26.4279C100.77 25.9578 100.55 25.417 100.55 24.8083C100.55 24.6425 100.633 24.4632 100.798 24.2675C100.961 24.0746 101.231 23.8517 101.6 23.6017C101.972 23.3517 102.211 23.1859 102.322 23.1044C103.227 22.4685 103.962 21.762 104.525 20.9847C105.088 20.2102 105.367 19.1993 105.367 17.952C105.367 16.6775 104.901 15.5769 103.967 14.6475C103.032 13.7208 101.88 13.2561 100.509 13.2561C98.861 13.2561 97.3529 13.8784 95.9794 15.1258C95.624 15.4464 95.2927 15.7997 94.9803 16.1774C94.9103 16.2644 94.773 16.2101 94.7783 16.0959C94.8484 14.7399 94.9534 13.5007 95.0907 12.3811C95.1096 12.2343 95.2335 12.1256 95.3816 12.1202C97.194 12.0658 98.8018 11.7587 100.199 11.1989C101.751 10.5766 102.944 9.71788 103.781 8.62272C104.619 7.52755 105.036 6.31553 105.036 4.98666C105.036 3.54637 104.549 2.35609 103.573 1.41311C102.599 0.472849 101.344 0 99.8066 0C97.0055 0 94.7272 1.48921 92.9713 4.46761C92.3789 5.4731 91.8887 6.70142 91.4955 8.14171C91.2935 8.11725 91.1265 8.10095 90.9946 8.10095C90.2486 8.10095 89.71 8.37814 89.3788 8.93523C89.2415 9.16622 89.1579 9.43254 89.1445 9.70429C89.1203 10.1608 89.2576 10.5685 89.5538 10.9272C89.7504 11.1636 90.1059 11.4408 90.666 11.6337C90.7388 11.6582 90.7845 11.7261 90.7737 11.8022C90.5018 13.8648 90.2702 16.8378 90.3267 19.1722C90.3322 19.4113 90.2971 19.645 90.211 19.8678C89.8151 20.9005 88.9937 21.9848 88.113 22.5392C87.6525 22.8299 87.1678 23.0501 86.6589 23.205C86.8312 22.3598 86.9173 21.4793 86.9173 20.5662C86.9173 18.933 86.6157 17.5117 86.0125 16.3079C85.4092 15.104 84.666 14.1964 83.7881 13.5849C83.1767 13.161 82.587 12.8892 82.0187 12.7588C81.3481 12.5604 80.6076 12.4626 79.7943 12.4626C78.173 12.4626 76.7053 12.9545 75.3884 13.9382C74.0715 14.9219 73.0401 16.2318 72.2995 17.865C71.9521 18.6286 71.6908 19.4194 71.5077 20.2401C71.0634 21.2429 70.4251 22.0093 69.5822 22.5419C69.2267 22.7647 68.8578 22.9468 68.4727 23.0908C68.3192 23.1479 68.1657 23.0202 68.1953 22.8571C68.3245 22.1207 68.3892 21.357 68.3892 20.569C68.3892 18.9357 68.0876 17.5145 67.4844 16.3106C66.8811 15.1067 66.1378 14.1991 65.2599 13.5876C64.6486 13.1637 64.0588 12.8919 63.4906 12.7615C62.82 12.5631 62.0794 12.4653 61.2661 12.4653C59.6448 12.4653 58.1772 12.9572 56.8603 13.9409C55.2687 15.1285 54.0972 16.7916 53.3486 18.9276C53.2435 19.2292 53.1628 19.539 53.0739 19.8461C52.9392 20.3054 52.7776 20.7592 52.5945 21.2021C51.9993 22.656 51.3503 23.8925 50.642 24.9116C49.6537 26.3383 48.6923 27.0503 47.7605 27.0503C46.9095 27.0503 46.2174 26.4905 45.6815 25.3681C45.3475 24.667 45.1186 23.6941 44.992 22.4495C44.9436 21.9576 45.0998 21.4657 45.4094 21.0826C47.4723 18.5254 49.1555 15.9573 50.4562 13.3784C52.0074 10.3021 52.783 7.5194 52.783 5.02471C52.783 3.58442 52.3791 2.42675 51.5685 1.55443C50.7578 0.6821 49.721 0.24458 48.4607 0.24458C45.9346 0.24458 43.9983 1.80987 42.6545 4.94047C41.3079 8.07106 40.6373 12.9191 40.6373 19.4847C40.6373 23.5012 41.2406 26.4252 42.4498 28.2514C43.6563 30.0803 45.2774 30.9934 47.308 30.9934C49.5055 30.9934 51.4311 29.6863 53.0819 27.0747C53.1708 26.9361 53.3782 26.9443 53.4455 27.0937C53.7309 27.7215 54.0891 28.2949 54.5335 28.8112C55.783 30.2651 57.4904 30.9934 59.661 30.9934C61.363 30.9934 62.8792 30.5233 64.2123 29.5803C65.1117 28.9444 65.8712 28.159 66.4933 27.2269C66.6549 26.985 66.9107 26.8274 67.1962 26.7839C68.505 26.5937 69.9054 26.0883 71.0823 25.2159C71.2061 25.1235 71.3785 25.1915 71.4108 25.3437C71.6881 26.6888 72.2376 27.8492 73.0643 28.8112C74.3139 30.2651 76.0213 30.9934 78.1919 30.9934C79.8939 30.9934 81.4101 30.5233 82.7432 29.5803C83.6426 28.9444 84.4021 28.159 85.0241 27.2269C85.1857 26.985 85.4442 26.8247 85.7297 26.7839C87.087 26.5883 88.3716 26.0747 89.5781 25.2377C89.745 25.1208 89.9066 24.9985 90.0628 24.8708C90.1975 24.7594 90.3995 24.8572 90.4048 25.0311C90.4399 26.3573 90.4857 27.4715 90.5476 28.3764C90.6014 29.208 90.8222 29.852 91.2074 30.3086C91.5925 30.7651 92.1122 30.9934 92.772 30.9934C93.4857 30.9934 94.0405 30.7379 94.439 30.2243C94.8376 29.7134 95.0099 29.0259 94.9534 28.1672C94.8887 27.1209 94.8349 26.1562 94.7891 25.2567C94.7891 25.1616 94.7865 25.0692 94.7865 24.9686C94.7865 23.3626 95.0126 21.9631 95.4651 20.7728C95.9175 19.5825 96.5073 18.683 97.2344 18.0716C97.9615 17.4628 98.7237 17.1585 99.5212 17.1585C100.014 17.1585 100.393 17.2753 100.652 17.5117C100.914 17.7482 101.042 18.058 101.042 18.4466C101.042 18.7781 100.892 19.1314 100.59 19.5064C100.288 19.8814 99.8413 20.2673 99.2517 20.6695C98.6617 21.0717 98.2847 21.3272 98.1205 21.4386C97.4875 21.8544 97.0082 22.2837 96.6797 22.7267C96.351 23.1696 96.1868 23.6832 96.1868 24.2648C96.1868 25.485 96.4804 26.6127 97.0728 27.6508C97.6626 28.6889 98.4463 29.5151 99.4211 30.1238C100.396 30.7325 101.419 31.0369 102.488 31.0369C103.752 31.0369 104.931 30.5858 106.03 29.6863C107.126 28.7868 108.101 27.5041 108.954 25.8437C109.172 25.4551 109.283 25.0964 109.283 24.7621C109.281 24.2648 109.108 23.849 108.766 23.5175ZM46.6483 6.20955C47.168 4.81002 47.6904 4.11162 48.2129 4.11162C48.6788 4.11162 48.9131 4.55458 48.9131 5.44049C48.9131 6.465 48.6169 7.87811 48.027 9.67983C47.4373 11.4816 46.6187 13.3566 45.5764 15.3105C45.4068 15.6258 45.2344 15.9329 45.0593 16.2318C45.0324 16.2807 44.957 16.259 44.957 16.2046C44.9408 15.1285 45.1887 13.2452 45.369 11.9245C45.7003 9.51406 46.1258 7.60908 46.6483 6.20955ZM63.0166 22.1859C62.1252 21.3272 61.6781 20.1912 61.6781 18.7781C61.6781 18.1422 61.767 17.6368 61.9447 17.2617C62.1225 16.8867 62.3621 16.7019 62.6665 16.7019C63.1593 16.7019 63.566 17.0905 63.881 17.865C64.1962 18.6395 64.355 19.5281 64.355 20.5255C64.355 21.2592 64.2984 21.9332 64.1934 22.5528C64.1557 22.7647 63.9188 22.8789 63.7383 22.762C63.4825 22.5962 63.2428 22.406 63.0166 22.1859ZM60.0299 27.1318C58.985 27.1318 58.1907 26.7513 57.6412 25.9904C57.0918 25.2295 56.8171 24.2104 56.8171 22.9359C56.8171 21.8543 57.0084 20.7809 57.3935 19.7157C57.687 18.8977 58.0775 18.1938 58.5596 17.6041C58.6592 17.4818 58.8531 17.5824 58.8208 17.7346C58.67 18.4656 58.5892 19.1477 58.5892 19.7782C58.5892 21.1369 58.9177 22.3544 59.5775 23.4359C60.1916 24.4414 61.0587 25.2975 62.2302 25.9497C62.3621 26.023 62.3783 26.2024 62.2625 26.3002C61.6054 26.8519 60.8622 27.1318 60.0299 27.1318ZM81.5448 22.1859C80.6534 21.3272 80.2063 20.1912 80.2063 18.7781C80.2063 18.1422 80.2951 17.6368 80.4729 17.2617C80.6507 16.8867 80.8903 16.7019 81.1946 16.7019C81.6875 16.7019 82.0941 17.0905 82.4092 17.865C82.7243 18.6395 82.8832 19.5281 82.8832 20.5255C82.8832 21.2592 82.8266 21.9332 82.7215 22.5528C82.6839 22.7647 82.4468 22.8789 82.2665 22.762C82.0133 22.5962 81.7737 22.406 81.5448 22.1859ZM78.5609 27.1318C77.516 27.1318 76.7215 26.7513 76.1721 25.9904C75.6227 25.2295 75.348 24.2104 75.348 22.9359C75.348 21.8543 75.5392 20.7809 75.9243 19.7157C76.2179 18.8977 76.6083 18.1938 77.0904 17.6041C77.19 17.4818 77.384 17.5824 77.3517 17.7346C77.2008 18.4656 77.1201 19.1477 77.1201 19.7782C77.1201 21.1369 77.4486 22.3544 78.1084 23.4359C78.7144 24.4306 79.7269 25.4089 80.7584 25.9578C80.8903 26.0285 80.9011 26.2106 80.7853 26.3057C80.1309 26.8546 79.3902 27.1318 78.5609 27.1318ZM99.5212 3.86161C99.9602 3.86161 100.31 4.0002 100.571 4.27739C100.832 4.55458 100.961 4.9296 100.961 5.39973C100.961 5.89704 100.757 6.39162 100.345 6.87534C99.9325 7.36178 99.2864 7.76941 98.4085 8.10095C97.6733 8.37813 96.8035 8.53847 95.799 8.58467C95.8555 8.37542 95.9175 8.1716 95.9794 7.97594C96.8573 5.23396 98.0369 3.86161 99.5212 3.86161Z" fill="white"/>
<path d="M38.7421 23.4336C38.1658 23.4336 37.5895 23.7379 37.0132 24.3466C35.4485 26.2027 33.6765 27.1294 31.7025 27.1294C28.8721 27.1294 27.3263 25.8005 27.057 23.1509C27.1378 23.189 27.2186 23.2298 27.2966 23.2651C28.3389 23.7352 29.4646 23.9716 30.6737 23.9716C31.9099 23.9716 33.0141 23.708 33.9889 23.1808C34.9637 22.6536 35.7259 21.9471 36.2753 21.0612C36.8247 20.1752 37.0993 19.1915 37.0993 18.1099C37.0993 17.1126 36.8516 16.1914 36.3588 15.3462C35.8659 14.501 35.1442 13.8298 34.1963 13.3298C33.2483 12.8325 32.1307 12.5825 30.8407 12.5825C29.2761 12.5825 27.881 13.02 26.6611 13.8923C25.4385 14.7647 24.4852 15.9441 23.7985 17.4251C23.5965 17.8626 23.4268 18.3137 23.284 18.7757C23.2975 18.5284 23.3056 18.2784 23.3056 18.0284C23.3056 16.3653 23.1413 15.0446 22.8128 14.0608C22.4842 13.0771 21.8379 12.5852 20.8765 12.5852C20.3271 12.5852 19.8181 12.7999 19.3522 13.2292C18.8836 13.6586 18.652 14.1777 18.652 14.7864C18.652 14.9793 18.6925 15.3897 18.7759 16.012C18.8594 16.6343 18.8998 17.2104 18.8998 17.7376C18.8998 19.5122 18.6467 21.0911 18.1376 22.4743C17.6286 23.8602 17.0254 24.9391 16.3252 25.7163C15.6251 26.4935 15.0137 26.8794 14.4939 26.8794C14.1358 26.8794 13.8772 26.7489 13.7103 26.4853C13.5461 26.2217 13.4625 25.7869 13.4625 25.1755C13.4625 24.7869 13.5461 23.9282 13.7103 22.5993C13.8207 21.7677 13.9284 20.8139 14.0389 19.7323C14.1493 18.6507 14.2031 17.5583 14.2031 16.4495C14.2031 15.7294 14.0119 15.1614 13.6268 14.7456C13.2417 14.3298 12.7058 14.1233 12.0217 14.1233C11.3619 14.1233 10.8288 14.3461 10.4167 14.7891C10.0046 15.2321 9.79999 15.8136 9.79999 16.5338C9.79999 17.5175 9.74343 18.6208 9.63302 19.8383C9.47951 21.0747 9.22906 22.2134 8.87358 23.2461C8.44808 24.4798 7.94717 25.4472 7.37086 26.1538C6.79455 26.8604 6.23171 27.2136 5.68232 27.2136C5.24335 27.2136 4.92019 27.0397 4.71552 26.6946C4.51085 26.3495 4.40582 25.719 4.40582 24.8032C4.40582 24.0287 4.47315 23.121 4.61049 22.0802C4.74784 21.0421 4.83132 20.3845 4.85825 20.1073C5.18681 17.8925 5.35107 16.3001 5.35107 15.3299C5.35107 13.501 4.63742 12.5879 3.21011 12.5879C2.49645 12.5879 1.93899 12.8243 1.54311 13.2945C1.14455 13.7673 0.945259 14.444 0.945259 15.3299C0.945259 16.1886 0.780983 17.8083 0.452431 20.1916C0.425501 20.5231 0.342017 21.2242 0.204672 22.2895C0.0673266 23.3575 0 24.2081 0 24.844C0 26.8386 0.447046 28.3958 1.33844 29.5181C2.22984 30.6404 3.41747 31.2003 4.90134 31.2003C6.30172 31.2003 7.65363 30.597 8.95706 29.3931C9.1725 29.1947 9.37987 28.9882 9.57916 28.7708C9.72458 28.6159 9.96699 28.6132 10.107 28.7735L10.5217 29.2491C11.4401 30.3035 12.6007 30.828 14.0011 30.828C15.345 30.828 16.7454 30.2247 18.2023 29.0208C19.6565 27.8169 20.8711 26.2217 21.846 24.2434C22.2391 23.4444 22.5488 22.6292 22.7832 21.8003C22.7777 21.9552 22.7724 22.1128 22.7724 22.2705C22.7724 24.0151 23.1278 25.5532 23.8442 26.8821C24.5578 28.211 25.5543 29.2436 26.8308 29.9774C28.1073 30.7111 29.5696 31.078 31.215 31.078C34.7025 31.078 37.5841 29.6105 39.8624 26.6729C40.2475 26.1755 40.4388 25.6755 40.4388 25.1782C40.4388 24.6809 40.2745 24.2651 39.946 23.9309C39.6066 23.5993 39.2081 23.4336 38.7421 23.4336ZM30.9188 16.4522C31.522 16.4522 32.0095 16.6316 32.3811 16.993C32.7528 17.3545 32.9359 17.8246 32.9359 18.4061C32.9359 19.0448 32.6828 19.5964 32.1738 20.0693C31.6648 20.5421 30.9727 20.7758 30.0948 20.7758C29.1845 20.7758 28.312 20.6372 27.4771 20.3709C27.3263 20.322 27.2402 20.1617 27.2805 20.0068C27.4718 19.2785 27.7626 18.6317 28.1612 18.0746C28.926 16.993 29.847 16.4522 30.9188 16.4522Z" fill="#979797"/>
</g>
<defs>
<clipPath id="clip0_201_378">
<rect width="110" height="32" fill="white"/>
</clipPath>
</defs>
</svg>
