<svg width="475" height="341" viewBox="0 0 475 341" fill="none" xmlns="http://www.w3.org/2000/svg">
<path d="M50.3684 102.207C51.025 100.314 51.5139 98.4067 51.8422 96.4786C52.1704 94.5504 52.4079 92.6432 52.5546 90.7499C52.9178 84.1271 53.1343 77.4693 53.2111 70.7766C53.281 64.0839 53.2461 57.4191 53.0994 50.7962C52.9527 46.1365 52.6244 41.861 52.1146 37.9697C51.6047 34.0784 50.8783 31.3329 49.9284 29.7261C51.8911 29.5095 54.0214 29.2021 56.3123 28.7969C58.6033 28.3987 60.8803 27.9236 63.1363 27.3787C65.3923 26.8338 67.5227 26.233 69.5203 25.5763C71.5179 24.9196 73.2151 24.2629 74.5981 23.6132C74.2349 24.5633 73.9066 25.9047 73.6132 27.6512C73.3199 29.3977 73.0685 31.4167 72.8519 33.7082C72.6354 35.9996 72.4678 38.5146 72.363 41.2392C72.2512 43.9708 72.1604 46.7513 72.0906 49.5876C71.9439 56.2105 71.9439 63.015 72.0906 70.0011C72.2373 76.9872 72.4887 83.7917 72.8519 90.4146C72.8519 91.5813 73.0126 92.706 73.3408 93.7959C73.6691 94.8857 74.193 95.8358 74.9264 96.6323C75.6528 97.4357 76.6516 98.0504 77.9298 98.4906C79.201 98.9237 80.7865 99.1123 82.6793 99.0355C85.3684 98.8888 87.6803 98.1832 89.608 96.9047C91.5358 95.6332 92.9537 94.0474 93.8617 92.1541C94.7697 90.2609 95.1748 88.207 95.0631 85.9854C94.9513 83.7638 94.155 81.6749 92.6603 79.7049C91.1656 77.7418 88.9864 76.0302 86.1088 74.577C83.2311 73.1239 79.5432 72.2507 75.0311 71.9572V70.2107C80.1229 68.2476 84.2508 65.7535 87.4219 62.7355C90.5859 59.7175 92.9118 56.476 94.4065 53.0178C95.8942 49.5597 96.5717 46.0527 96.4251 42.4827C96.2784 38.9198 95.3843 35.6084 93.7499 32.5485C92.1155 29.4885 89.7687 26.8757 86.7094 24.6891C83.6502 22.5024 79.9762 21.0842 75.6877 20.4345C72.7052 19.9245 69.632 19.9245 66.468 20.4345C63.3039 20.9445 60.2307 21.8737 57.2483 23.215C54.2658 24.5633 51.465 26.3448 48.8458 28.5664C46.2265 30.788 43.9914 33.3728 42.1335 36.314C40.2756 39.2621 38.8927 42.5736 37.9847 46.2483C37.0767 49.923 36.7973 53.9051 37.1675 58.2015C37.5307 62.5679 38.732 66.5709 40.7715 70.2107C42.811 73.8505 45.6817 76.617 49.3906 78.5102V78.622C44.1521 80.2218 39.4375 80.8017 35.2537 80.3685C31.0699 79.9354 27.5077 78.7478 24.5602 76.8196C21.6127 74.8914 19.3357 72.3974 17.7362 69.3444C16.1367 66.2845 15.2637 62.9032 15.117 59.1936C14.9703 54.1007 15.7526 49.406 17.4638 45.1095C19.175 40.8131 21.5708 36.9427 24.665 33.4846C27.7592 30.0265 31.4121 27.0294 35.6308 24.4795C39.8495 21.9295 44.4524 19.8617 49.4394 18.2548C54.4195 16.655 59.644 15.5652 65.099 14.9783C70.554 14.3985 76.0509 14.3636 81.5827 14.8666C89.5103 15.5931 96.1177 17.3257 101.391 20.0503C106.665 22.7819 110.688 26.0374 113.454 29.8239C116.219 33.6104 117.784 37.6483 118.147 41.9378C118.51 46.2343 117.763 50.3282 115.912 54.2194C114.054 58.1107 111.128 61.5549 107.125 64.538C103.123 67.521 98.1363 69.561 92.1714 70.6508C97.9896 71.2307 102.774 72.6139 106.525 74.8006C110.269 76.9803 112.888 79.4953 114.383 82.3316C115.87 85.168 116.185 88.0463 115.311 90.9525C114.438 93.8657 112.329 96.3738 108.983 98.4836C105.638 100.593 100.979 102.046 95.0142 102.85C89.0493 103.653 81.7015 103.283 72.9707 101.76C70.0581 101.25 66.6985 100.887 62.8779 100.67C59.0573 100.454 54.8944 100.964 50.3824 102.2L50.3684 102.207Z" fill="white"/>
<path d="M133.534 61.0518C132.584 57.7753 130.824 54.869 128.24 52.3191C125.656 49.7762 122.331 47.8829 118.252 46.6464C122.254 45.2631 125.6 43.4118 128.296 41.0784C130.985 38.752 132.731 35.8388 133.534 32.3458C134.338 35.8388 136.084 38.752 138.773 41.0784C141.462 43.4048 144.814 45.2631 148.817 46.6464C144.814 47.8829 141.525 49.7762 138.94 52.3191C136.356 54.869 134.554 57.7753 133.541 61.0518H133.534ZM121.639 100.349C122.659 98.0922 123.386 95.2 123.819 91.672C124.252 88.144 124.433 84.5601 124.364 80.9203C124.294 77.2806 124.014 73.8643 123.546 70.6577C123.071 67.4581 122.436 65.0548 121.639 63.455C125.858 63.6716 130.021 63.3083 134.135 62.3652C138.242 61.422 142.014 59.7803 145.429 57.4539C144.919 58.7673 144.479 60.4929 144.116 62.6376C143.753 64.7824 143.48 67.1507 143.299 69.7355C143.117 72.3204 143.005 75.045 142.971 77.9233C142.936 80.8016 143.005 83.617 143.187 86.3835C143.369 89.15 143.641 91.7488 144.004 94.187C144.367 96.6251 144.842 98.6791 145.422 100.356H121.633L121.639 100.349Z" fill="white"/>
<path d="M171.189 77.7556C171.042 81.6818 171.3 84.5251 171.95 86.2717C172.599 88.0182 173.438 88.8915 174.457 88.8915C176.204 88.8915 177.824 87.5292 179.312 84.7976C180.799 82.066 182.134 78.4123 183.293 73.8294C183.656 72.013 184.054 70.1197 184.494 68.1497C184.927 66.1866 185.332 64.0767 185.696 61.8202L188.315 61.7084C187.735 65.0548 187.169 68.0029 186.625 70.5529C186.08 73.1028 185.514 75.6108 184.934 78.0839C184.355 80.4872 183.698 82.7786 182.972 84.9583C182.245 87.138 181.428 89.1779 180.513 91.0711C179.605 92.9644 178.585 94.655 177.454 96.1501C176.322 97.6451 174.995 98.8258 173.473 99.699C171.873 100.642 169.834 101.194 167.361 101.334C164.888 101.48 162.507 101.026 160.216 99.9715C157.925 98.9166 155.962 97.1491 154.321 94.676C152.686 92.2029 151.862 88.7797 151.862 84.4134V74.8074C151.862 71.2445 151.792 67.6956 151.646 64.1606C151.499 60.6326 151.227 57.3212 150.828 54.2263C150.43 51.1314 149.83 48.6025 149.026 46.6394C150.842 46.2761 152.812 45.7871 154.921 45.1653C157.031 44.5505 159.105 43.8519 161.145 43.0904C163.184 42.3289 165.091 41.4906 166.872 40.5824C168.653 39.6742 170.127 38.745 171.293 37.7949V46.6394H180.785V50.349H171.07L171.182 77.7486L171.189 77.7556Z" fill="white"/>
<path d="M195.963 52.864C194.873 53.0806 194.161 54.0307 193.833 55.7004C193.504 57.377 193.574 59.3751 194.049 61.7015C194.524 64.0278 195.411 66.5219 196.724 69.1766C198.037 71.8313 199.783 74.2905 201.963 76.547C204.149 78.8035 206.782 80.6758 209.876 82.1708C212.97 83.6658 216.512 84.4064 220.521 84.4064C224.306 84.4064 228.448 83.603 232.96 82.0031C232.527 84.9862 231.557 87.6968 230.069 90.135C228.574 92.5732 226.737 94.648 224.558 96.3596C222.379 98.0712 219.92 99.3777 217.189 100.293C214.458 101.201 211.678 101.655 208.843 101.655C206.586 101.655 204.316 101.348 202.019 100.726C199.728 100.111 197.527 99.1401 195.418 97.8337C191.632 95.5772 188.706 92.7199 186.631 89.2617C184.557 85.8036 183.265 82.1499 182.755 78.2935C182.245 74.4372 182.462 70.5808 183.411 66.7245C184.354 62.8681 185.94 59.396 188.161 56.3012C190.382 53.2063 193.218 50.6983 196.675 48.7701C200.133 46.842 204.079 45.8779 208.514 45.8779C211.35 45.8779 213.641 46.4088 215.387 47.4637C217.133 48.5186 218.404 49.846 219.208 51.4458C220.004 53.0456 220.353 54.7782 220.241 56.6295C220.13 58.4808 219.697 60.1924 218.928 61.7573C218.167 63.3222 217.07 64.6496 215.653 65.7394C214.235 66.8293 212.579 67.3742 210.686 67.3742C210.177 65.2644 209.324 63.2803 208.123 61.422C206.922 59.5637 205.595 57.9848 204.142 56.6714C202.682 55.358 201.208 54.3451 199.721 53.6115C198.226 52.885 196.976 52.6265 195.956 52.85L195.963 52.864Z" fill="white"/>
<path d="M247.258 48.3928C250.604 46.5764 254.208 45.6613 258.063 45.6613C260.466 45.6613 262.827 46.0106 265.16 46.6952C267.486 47.3868 269.707 48.4068 271.816 49.7551C273.926 51.1035 275.888 52.7592 277.711 54.7223C279.527 56.6854 281.092 58.907 282.405 61.38C284.151 64.8033 285.227 68.3312 285.625 71.971C286.023 75.6108 285.806 79.0829 284.968 82.3943C284.13 85.7058 282.712 88.7238 280.715 91.4553C278.71 94.1869 276.189 96.3875 273.129 98.0572C269.784 99.8806 266.18 100.789 262.324 100.789C259.921 100.789 257.561 100.446 255.228 99.7549C252.902 99.0632 250.681 98.0433 248.571 96.6949C246.462 95.3466 244.499 93.6909 242.676 91.7278C240.853 89.7647 239.296 87.5431 237.983 85.07C236.237 81.6468 235.161 78.1188 234.763 74.479C234.365 70.8393 234.581 67.3672 235.419 64.0557C236.257 60.7443 237.675 57.7053 239.673 54.9388C241.671 52.1723 244.206 49.9927 247.258 48.3858V48.3928ZM265.705 70.3363C264.105 67.2763 262.485 64.5308 260.85 62.0926C259.216 59.6545 257.651 57.6145 256.157 55.9798C254.662 54.345 253.3 53.1574 252.064 52.4308C250.827 51.7043 249.808 51.5575 249.004 51.9977C248.278 52.4308 247.873 53.36 247.803 54.7851C247.726 56.2033 247.929 57.9848 248.404 60.1365C248.879 62.2813 249.661 64.7194 250.751 67.451C251.84 70.1826 253.153 73.0748 254.676 76.1278C256.275 79.1877 257.896 81.9123 259.53 84.3155C261.165 86.7187 262.729 88.7377 264.224 90.3725C265.712 92.0072 267.095 93.1949 268.373 93.9214C269.644 94.648 270.643 94.8296 271.376 94.4664C272.103 94.0332 272.501 93.1041 272.578 91.6859C272.647 90.2677 272.452 88.4653 271.977 86.2856C271.502 84.1059 270.72 81.6468 269.63 78.9152C268.54 76.1837 267.227 73.3333 265.705 70.3432V70.3363Z" fill="white"/>
<path d="M301.284 61.0518C300.334 57.7753 298.574 54.869 295.99 52.3191C293.406 49.7762 290.081 47.8829 286.002 46.6464C290.004 45.2631 293.35 43.4118 296.046 41.0784C298.735 38.752 300.481 35.8388 301.284 32.3458C302.088 35.8388 303.834 38.752 306.523 41.0784C309.212 43.4048 312.565 45.2631 316.567 46.6464C312.565 47.8829 309.275 49.7762 306.69 52.3191C304.106 54.869 302.304 57.7753 301.291 61.0518H301.284ZM289.39 100.349C290.409 98.0922 291.136 95.2 291.569 91.672C292.002 88.144 292.183 84.5601 292.114 80.9203C292.044 77.2806 291.764 73.8643 291.296 70.6577C290.821 67.4581 290.186 65.0548 289.39 63.455C293.608 63.6716 297.771 63.3083 301.885 62.3652C305.992 61.422 309.764 59.7803 313.179 57.4539C312.669 58.7673 312.229 60.4929 311.866 62.6376C311.503 64.7824 311.23 67.1507 311.049 69.7355C310.867 72.3204 310.755 75.045 310.721 77.9233C310.686 80.8016 310.755 83.617 310.937 86.3835C311.119 89.15 311.391 91.7488 311.754 94.187C312.117 96.6251 312.592 98.6791 313.172 100.356H289.383L289.39 100.349Z" fill="white"/>
<path d="M338.931 75.2477C338.931 80.4174 339.148 85.2728 339.588 89.8207C340.021 94.3687 340.754 97.8827 341.767 100.356H316.993C317.866 98.3927 318.557 95.9685 319.067 93.0972C319.577 90.2259 319.919 87.1311 320.101 83.8196C320.282 80.5082 320.317 77.1619 320.213 73.7736C320.108 70.3853 319.905 67.2206 319.612 64.2794C319.319 61.3313 318.941 58.7115 318.466 56.42C317.991 54.1286 317.503 52.4729 316.993 51.4529C318.669 51.3062 320.45 51.0687 322.343 50.7403C324.236 50.412 326.163 50.0277 328.126 49.5946C330.089 49.1615 332.003 48.6864 333.854 48.1764C335.711 47.6664 337.402 47.1564 338.931 46.6464V66.1866C340.098 62.0369 341.474 58.2923 343.08 54.946C344.68 51.5996 346.824 49.0916 349.52 47.4149C351.196 46.4718 353.138 45.9269 355.359 45.7802C357.58 45.6335 359.725 46.0876 361.799 47.1425C363.874 48.1974 365.62 49.9788 367.038 52.4938C368.455 55.0019 369.168 58.446 369.168 62.8123V74.2766C369.168 76.6798 369.224 79.1878 369.329 81.8076C369.44 84.4274 369.58 86.9215 369.762 89.2828C369.943 91.6511 370.216 93.8098 370.579 95.7799C370.942 97.743 371.417 99.273 371.997 100.363H348.095C348.528 99.7061 348.968 98.232 349.408 95.9406C349.841 93.6491 350.191 90.9595 350.442 87.8646C350.694 84.7698 350.861 81.5002 350.931 78.0421C351.001 74.584 350.931 71.4053 350.714 68.4921C350.498 65.5789 350.093 63.1617 349.513 61.2335C348.933 59.3053 348.13 58.3063 347.11 58.2294C346.237 58.1596 345.434 58.5368 344.708 59.3752C343.981 60.2135 343.29 61.3383 342.633 62.7565C341.977 64.1746 341.376 65.8304 340.831 67.7236C340.286 69.6168 339.756 71.545 339.246 73.5081C339.169 73.8015 339.12 74.088 339.085 74.3814C339.05 74.6748 338.994 74.9612 338.924 75.2546L338.931 75.2477Z" fill="white"/>
<path d="M50.4805 102.487C51.137 100.593 51.6259 98.6861 51.9542 96.758C52.2825 94.8298 52.52 92.9226 52.6667 91.0293C53.0299 84.4065 53.2464 77.7487 53.3232 71.056C53.3931 64.3633 53.3581 57.6985 53.2115 51.0757C53.0648 46.4159 52.7365 42.1404 52.2266 38.2491C51.7167 34.3578 50.9903 31.6123 50.0404 30.0055C52.0031 29.7889 54.1334 29.4815 56.4244 29.0763C58.7153 28.6781 60.9923 28.2031 63.2484 27.6581C65.5044 27.1132 67.6347 26.5124 69.6323 25.8557C71.6299 25.199 73.3272 24.5423 74.7101 23.8926C74.3469 24.8427 74.0187 26.1841 73.7253 27.9306C73.432 29.6771 73.1805 31.6961 72.964 33.9876C72.7475 36.279 72.5798 38.794 72.4751 41.5186C72.3633 44.2502 72.2725 47.0307 72.2027 49.8671C72.056 56.4899 72.056 63.2944 72.2027 70.2805C72.3493 77.2667 72.6008 84.0712 72.964 90.694C72.964 91.8607 73.1246 92.9855 73.4529 94.0753C73.7812 95.1651 74.305 96.1152 75.0384 96.9117C75.7648 97.7151 76.7636 98.3298 78.0418 98.77C79.313 99.2031 80.8985 99.3917 82.7914 99.3149C85.4804 99.1682 87.7923 98.4626 89.7201 97.1841C91.6479 95.9126 93.0657 94.3268 93.9737 92.4336C94.8817 90.5403 95.2869 88.4864 95.1751 86.2648C95.0633 84.0432 94.2671 81.9544 92.7724 79.9843C91.2777 78.0212 89.0985 76.3096 86.2208 74.8564C83.3431 73.4033 79.6553 72.5301 75.1432 72.2367V70.4901C80.235 68.527 84.3629 66.033 87.5339 63.015C90.698 59.9969 93.0238 56.7554 94.5186 53.2973C96.0063 49.8391 96.6838 46.3321 96.5371 42.7622C96.3904 39.1992 95.4964 35.8878 93.862 32.8279C92.2276 29.768 89.8808 27.1551 86.8215 24.9685C83.7622 22.7818 80.0883 21.3636 75.7997 20.7139C72.8173 20.2039 69.7441 20.2039 66.58 20.7139C63.416 21.2239 60.3428 22.1531 57.3603 23.4944C54.3779 24.8427 51.577 26.6242 48.9578 28.8458C46.3386 31.0674 44.1035 33.6522 42.2456 36.5934C40.3877 39.5416 39.0047 42.853 38.0967 46.5277C37.1887 50.2024 36.9093 54.1845 37.2795 58.481C37.6427 62.8473 38.8441 66.8503 40.8836 70.4901C42.9231 74.1299 45.7938 76.8964 49.5026 78.7896V78.9014C44.2641 80.5012 39.5495 81.0811 35.3657 80.6479C31.1819 80.2148 27.6198 79.0272 24.6723 77.099C21.7247 75.1708 19.4478 72.6768 17.8483 69.6238C16.2488 66.5639 15.3757 63.1826 15.229 59.473C15.0824 54.3801 15.8646 49.6854 17.5759 45.389C19.2871 41.0925 21.6828 37.2222 24.777 33.764C27.8712 30.3059 31.5242 27.3088 35.7429 24.7589C39.9616 22.209 44.5645 20.1411 49.5515 18.5343C54.5315 16.9344 59.7561 15.8446 65.211 15.2578C70.666 14.6779 76.1629 14.643 81.6948 15.146C89.6223 15.8725 96.2298 17.6051 101.503 20.3297C106.777 23.0613 110.8 26.3168 113.566 30.1033C116.332 33.8898 117.896 37.9278 118.259 42.2172C118.623 46.5137 117.875 50.6076 116.024 54.4989C114.166 58.3901 111.24 61.8343 107.238 64.8174C103.235 67.8005 98.2483 69.8404 92.2835 70.9302C98.1017 71.5101 102.886 72.8933 106.637 75.08C110.381 77.2597 113 79.7747 114.495 82.6111C115.982 85.4474 116.297 88.3257 115.424 91.2319C114.55 94.1452 112.441 96.6532 109.095 98.763C105.75 100.873 101.091 102.326 95.1262 103.129C89.1613 103.933 81.8135 103.562 73.0827 102.039C70.1701 101.529 66.8105 101.166 62.9899 100.95C59.1693 100.733 55.0065 101.243 50.4944 102.48L50.4805 102.487Z" fill="white"/>
<path d="M133.646 61.3313C132.696 58.0548 130.936 55.1486 128.352 52.5987C125.767 50.0557 122.443 48.1625 118.364 46.9259C122.366 45.5427 125.712 43.6913 128.408 41.358C131.097 39.0316 132.843 36.1184 133.646 32.6253C134.449 36.1184 136.196 39.0316 138.885 41.358C141.574 43.6843 144.926 45.5427 148.929 46.9259C144.926 48.1625 141.637 50.0557 139.052 52.5987C136.468 55.1486 134.666 58.0548 133.653 61.3313H133.646ZM121.751 100.628C122.771 98.3718 123.497 95.4795 123.931 91.9515C124.364 88.4235 124.545 84.8396 124.475 81.1999C124.405 77.5601 124.126 74.1439 123.658 70.9372C123.183 67.7376 122.548 65.3344 121.751 63.7345C125.97 63.9511 130.133 63.5878 134.247 62.6447C138.354 61.7016 142.125 60.0598 145.541 57.7335C145.031 59.0469 144.591 60.7724 144.228 62.9172C143.865 65.0619 143.592 67.4302 143.411 70.0151C143.229 72.5999 143.117 75.3245 143.082 78.2028C143.047 81.0811 143.117 83.8965 143.299 86.663C143.48 89.4295 143.753 92.0284 144.116 94.4665C144.479 96.9047 144.954 98.9586 145.534 100.635H121.744L121.751 100.628Z" fill="white"/>
<path d="M171.3 78.0351C171.154 81.9613 171.412 84.8047 172.062 86.5512C172.711 88.2978 173.549 89.171 174.569 89.171C176.315 89.171 177.936 87.8087 179.424 85.0771C180.911 82.3456 182.245 78.6918 183.405 74.1089C183.768 72.2925 184.166 70.3993 184.606 68.4292C185.039 66.4661 185.444 64.3563 185.807 62.0998L188.427 61.988C187.847 65.3343 187.281 68.2825 186.736 70.8324C186.192 73.3824 185.626 75.8904 185.046 78.3635C184.466 80.7667 183.81 83.0581 183.083 85.2378C182.357 87.4175 181.54 89.4575 180.625 91.3507C179.717 93.2439 178.697 94.9346 177.566 96.4296C176.434 97.9246 175.107 99.1053 173.584 99.9786C171.985 100.922 169.945 101.474 167.473 101.613C165 101.76 162.619 101.306 160.328 100.251C158.037 99.1961 156.074 97.4286 154.433 94.9555C152.798 92.4824 151.974 89.0592 151.974 84.6929V75.087C151.974 71.5241 151.904 67.9751 151.757 64.4401C151.611 60.9121 151.338 57.6007 150.94 54.5058C150.542 51.411 149.941 48.882 149.138 46.9189C150.954 46.5556 152.924 46.0666 155.033 45.4448C157.143 44.83 159.217 44.1314 161.257 43.37C163.296 42.6085 165.203 41.7701 166.984 40.8619C168.765 39.9537 170.239 39.0246 171.405 38.0745V46.9189H180.897V50.6285H171.182L171.293 78.0281L171.3 78.0351Z" fill="white"/>
<path d="M196.075 53.1435C194.985 53.3601 194.273 54.3102 193.945 55.9799C193.616 57.6566 193.686 59.6546 194.161 61.981C194.636 64.3074 195.523 66.8014 196.836 69.4562C198.149 72.1109 199.896 74.57 202.075 76.8265C204.261 79.083 206.894 80.9553 209.988 82.4504C213.083 83.9454 216.624 84.6859 220.633 84.6859C224.419 84.6859 228.56 83.8825 233.073 82.2827C232.639 85.2658 231.669 87.9764 230.181 90.4145C228.686 92.8527 226.849 94.9276 224.67 96.6392C222.491 98.3508 220.032 99.6572 217.301 100.572C214.57 101.481 211.79 101.935 208.955 101.935C206.699 101.935 204.429 101.627 202.131 101.006C199.84 100.391 197.639 99.4197 195.53 98.1133C191.744 95.8567 188.818 92.9994 186.743 89.5413C184.669 86.0831 183.377 82.4294 182.867 78.5731C182.357 74.7167 182.574 70.8604 183.524 67.004C184.466 63.1477 186.052 59.6756 188.273 56.5807C190.494 53.4859 193.33 50.9778 196.787 49.0497C200.245 47.1215 204.191 46.1574 208.626 46.1574C211.462 46.1574 213.753 46.6884 215.499 47.7433C217.245 48.7982 218.517 50.1255 219.32 51.7254C220.116 53.3252 220.465 55.0577 220.354 56.9091C220.242 58.7604 219.809 60.472 219.04 62.0369C218.279 63.6018 217.182 64.9291 215.765 66.019C214.347 67.1088 212.691 67.6537 210.799 67.6537C210.289 65.5439 209.437 63.5599 208.235 61.7015C207.034 59.8432 205.707 58.2644 204.254 56.951C202.794 55.6376 201.32 54.6246 199.833 53.8911C198.338 53.1645 197.088 52.906 196.068 53.1296L196.075 53.1435Z" fill="white"/>
<path d="M247.37 48.6655C250.716 46.8491 254.32 45.9339 258.175 45.9339C260.578 45.9339 262.939 46.2832 265.272 46.9678C267.598 47.6595 269.819 48.6794 271.928 50.0278C274.037 51.3761 276 53.0318 277.823 54.9949C279.639 56.958 281.204 59.1796 282.517 61.6527C284.263 65.0759 285.339 68.6039 285.737 72.2437C286.135 75.8834 285.918 79.3555 285.08 82.667C284.242 85.9784 282.824 88.9964 280.826 91.728C278.822 94.4596 276.3 96.6602 273.241 98.3299C269.896 100.153 266.291 101.061 262.436 101.061C260.033 101.061 257.672 100.719 255.34 100.028C253.014 99.3359 250.793 98.3159 248.683 96.9676C246.574 95.6193 244.611 93.9635 242.788 92.0004C240.965 90.0373 239.408 87.8157 238.094 85.3427C236.348 81.9195 235.273 78.3915 234.875 74.7517C234.476 71.1119 234.693 67.6398 235.531 64.3284C236.369 61.017 237.787 57.978 239.785 55.2115C241.782 52.445 244.318 50.2653 247.37 48.6585V48.6655ZM265.816 70.6089C264.217 67.549 262.597 64.8034 260.962 62.3653C259.328 59.9271 257.763 57.8872 256.268 56.2524C254.774 54.6177 253.412 53.43 252.176 52.7035C250.939 51.9769 249.919 51.8302 249.116 52.2703C248.39 52.7035 247.985 53.6326 247.915 55.0578C247.838 56.476 248.041 58.2574 248.516 60.4092C248.991 62.5539 249.773 64.9921 250.862 67.7236C251.952 70.4552 253.265 73.3475 254.788 76.4004C256.387 79.4603 258.008 82.1849 259.642 84.5882C261.276 86.9914 262.841 89.0104 264.336 90.6451C265.823 92.2799 267.206 93.4675 268.485 94.1941C269.756 94.9206 270.755 95.1023 271.488 94.739C272.214 94.3059 272.613 93.3767 272.689 91.9585C272.759 90.5403 272.564 88.7379 272.089 86.5582C271.614 84.3786 270.831 81.9195 269.742 79.1879C268.652 76.4563 267.339 73.606 265.816 70.6159V70.6089Z" fill="white"/>
<path d="M301.396 61.3313C300.446 58.0548 298.686 55.1486 296.102 52.5987C293.517 50.0557 290.193 48.1625 286.114 46.9259C290.116 45.5427 293.461 43.6913 296.157 41.358C298.847 39.0316 300.593 36.1184 301.396 32.6253C302.199 36.1184 303.945 39.0316 306.634 41.358C309.323 43.6843 312.676 45.5427 316.678 46.9259C312.676 48.1625 309.386 50.0557 306.802 52.5987C304.218 55.1486 302.416 58.0548 301.403 61.3313H301.396ZM289.501 100.628C290.521 98.3718 291.247 95.4795 291.68 91.9515C292.113 88.4235 292.295 84.8396 292.225 81.1999C292.155 77.5601 291.876 74.1439 291.408 70.9372C290.933 67.7376 290.297 65.3344 289.501 63.7345C293.72 63.9511 297.883 63.5878 301.997 62.6447C306.104 61.7016 309.875 60.0598 313.291 57.7335C312.781 59.0469 312.341 60.7724 311.978 62.9172C311.614 65.0619 311.342 67.4302 311.16 70.0151C310.979 72.5999 310.867 75.3245 310.832 78.2028C310.797 81.0811 310.867 83.8965 311.049 86.663C311.23 89.4295 311.503 92.0284 311.866 94.4665C312.229 96.9047 312.704 98.9586 313.284 100.635H289.494L289.501 100.628Z" fill="white"/>
<path d="M339.05 75.5201C339.05 80.6899 339.267 85.5452 339.707 90.0932C340.14 94.6412 340.873 98.1552 341.886 100.628H317.111C317.984 98.6652 318.676 96.241 319.186 93.3697C319.696 90.4984 320.038 87.4035 320.219 84.0921C320.401 80.7807 320.436 77.4343 320.331 74.046C320.226 70.6578 320.024 67.4931 319.731 64.5519C319.437 61.6038 319.06 58.984 318.585 56.6925C318.11 54.4011 317.621 52.7453 317.111 51.7254C318.788 51.5787 320.569 51.3411 322.462 51.0128C324.354 50.6844 326.282 50.3002 328.245 49.8671C330.208 49.4339 332.121 48.9589 333.972 48.4489C335.83 47.9389 337.52 47.4289 339.05 46.9189V66.4591C340.216 62.3093 341.592 58.5648 343.199 55.2184C344.798 51.8721 346.943 49.364 349.639 47.6874C351.315 46.7442 353.257 46.1993 355.478 46.0526C357.699 45.9059 359.843 46.36 361.918 47.4149C363.992 48.4698 365.738 50.2513 367.156 52.7663C368.574 55.2743 369.287 58.7185 369.287 63.0848V74.549C369.287 76.9523 369.342 79.4603 369.447 82.0801C369.559 84.6999 369.699 87.1939 369.88 89.5553C370.062 91.9236 370.334 94.0823 370.697 96.0524C371.061 98.0155 371.536 99.5454 372.115 100.635H348.214C348.647 99.9786 349.087 98.5045 349.527 96.213C349.96 93.9216 350.309 91.2319 350.561 88.1371C350.812 85.0422 350.98 81.7727 351.05 78.3146C351.119 74.8564 351.05 71.6778 350.833 68.7645C350.617 65.8513 350.211 63.4341 349.632 61.5059C349.052 59.5778 348.249 58.5788 347.229 58.5019C346.356 58.432 345.553 58.8093 344.826 59.6476C344.1 60.486 343.408 61.6107 342.752 63.0289C342.095 64.4471 341.495 66.1028 340.95 67.9961C340.405 69.8893 339.874 71.8175 339.364 73.7806C339.288 74.074 339.239 74.3604 339.204 74.6538C339.169 74.9473 339.113 75.2337 339.043 75.5271L339.05 75.5201Z" fill="white"/>
<path d="M124.587 145.87C124.755 142.908 124.454 139.911 123.658 136.865C122.471 132.324 120.138 128.14 116.652 124.304C113.167 120.469 108.494 117.157 102.62 114.37C96.7463 111.583 89.608 109.717 81.1985 108.767C74.5421 108.027 67.8928 107.943 61.2504 108.523C54.608 109.102 48.266 110.297 42.2173 112.107C36.1686 113.923 30.5669 116.312 25.4192 119.288C20.2716 122.264 15.7944 125.792 11.9808 129.886C8.1672 133.98 5.20571 138.598 3.08937 143.726C0.973026 148.861 -0.0537142 154.498 0.00216286 160.639C0.00216286 165.11 0.938103 169.211 2.79601 172.928C4.65393 176.644 7.34301 179.704 10.8563 182.094C14.3695 184.483 18.6372 185.992 23.6801 186.614C28.716 187.235 34.4154 186.642 40.7714 184.832V184.699C36.3432 182.338 32.9556 178.943 30.6298 174.507C28.2969 170.077 26.9628 165.229 26.6276 159.961C26.0688 152.144 27.2143 145.242 30.05 139.241C32.8858 133.24 36.6435 128.314 41.3302 124.458C46.0099 120.602 51.2693 117.87 57.0945 116.27C62.9197 114.67 68.5423 114.363 73.9694 115.341C79.131 116.228 83.5104 118.024 87.1005 120.72C90.6906 123.417 93.4425 126.631 95.3493 130.347C97.2561 134.064 98.255 138.074 98.3458 142.377C98.4366 146.681 97.5425 150.894 95.6706 155.022C93.7918 159.151 90.9071 163 87.0237 166.563C83.1402 170.133 78.0973 173.04 71.9089 175.289L71.867 177.392C77.5665 177.762 83.2101 177.567 88.8047 176.791C94.3924 176.023 99.5611 174.563 104.297 172.411C109.032 170.266 113.153 167.381 116.645 163.762C120.138 160.143 122.596 155.63 124.014 150.223C124.063 149.999 124.098 149.776 124.14 149.552C122.757 148.881 121.29 148.281 119.712 147.771C121.444 147.212 123.064 146.576 124.601 145.863L124.587 145.87Z" fill="white"/>
<path d="M69.4016 140.317C69.639 137.033 69.9184 134.015 70.2327 131.256C70.547 128.496 70.9033 126.072 71.2944 123.976C71.6855 121.88 72.1116 120.266 72.5726 119.135C70.8893 119.889 68.8079 120.644 66.3423 121.384C63.8697 122.125 61.2645 122.802 58.5335 123.41C55.8025 124.018 53.0436 124.535 50.2707 124.961C47.4978 125.394 44.9693 125.716 42.6784 125.939C43.7819 127.888 44.5712 131.214 45.0601 135.915C45.5421 140.617 45.8145 145.773 45.8843 151.39C45.9053 159.368 45.8005 167.395 45.556 175.457C45.3186 183.519 44.8995 191.539 44.3128 199.51C44.0893 201.787 43.761 204.086 43.3279 206.398C42.8879 208.718 42.2523 211.002 41.4211 213.266C44.0683 212.616 46.7295 212.204 49.4116 212.036C52.0937 211.868 54.7269 211.834 57.3182 211.924C59.9025 212.015 62.3611 212.218 64.68 212.525C66.9989 212.833 69.0803 213.133 70.9172 213.433C70.0861 211.051 69.4993 208.145 69.1711 204.715C68.8428 201.285 68.6263 197.603 68.5285 193.649C68.4377 189.261 68.4097 184.79 68.4517 180.228C68.4936 175.673 68.5075 171.37 68.5005 167.339L68.8218 150.377C68.9755 146.96 69.1711 143.607 69.4086 140.324L69.4016 140.317Z" fill="white"/>
<path d="M149.382 176.162C149.662 173.053 150.039 170.21 150.535 167.632C151.024 165.054 151.59 162.979 152.232 161.415C148.055 164.146 143.473 166.032 138.493 167.073C133.513 168.121 128.477 168.464 123.393 168.1C124.322 170.049 125.034 172.956 125.53 176.826C126.026 180.696 126.277 184.825 126.284 189.205C126.284 193.593 125.991 197.903 125.383 202.144C124.776 206.384 123.833 209.856 122.554 212.546L151.254 213.091C150.591 211.065 150.067 208.578 149.683 205.63C149.299 202.689 149.026 199.545 148.873 196.205C148.719 192.873 148.691 189.471 148.803 186.006C148.914 182.548 149.103 179.257 149.382 176.148V176.162Z" fill="white"/>
<path d="M154.181 147.519C150.43 145.905 147.224 143.914 144.57 141.539C141.378 138.675 139.332 135.126 138.452 130.899C137.404 135.091 135.232 138.556 131.935 141.302C129.812 143.069 127.353 144.592 124.58 145.871C124.51 147.107 124.357 148.337 124.119 149.559C127.032 150.97 129.539 152.724 131.607 154.848C134.666 157.977 136.726 161.519 137.795 165.488C139.094 161.568 141.336 158.103 144.514 155.092C147.175 152.57 150.43 150.621 154.272 149.231C154.237 148.84 154.209 148.441 154.195 148.043C154.188 147.869 154.195 147.701 154.181 147.526V147.519Z" fill="white"/>
<path d="M119.698 147.778C121.269 148.288 122.736 148.888 124.126 149.559C124.363 148.337 124.517 147.107 124.587 145.87C123.057 146.576 121.43 147.219 119.698 147.778Z" fill="white"/>
<path d="M245.288 223.752C249.326 222.033 253.502 220.594 257.819 219.441C257.896 219.036 257.966 218.624 258.021 218.212C258.482 214.845 258.168 211.659 257.085 208.655C256.247 206.356 255.018 204.121 253.391 201.941C251.763 199.761 249.8 197.819 247.51 196.108C245.212 194.396 242.648 193.034 239.819 192.014C236.984 190.994 233.987 190.456 230.83 190.4C226.793 190.414 223.447 190.938 220.793 191.986C218.139 193.034 216.093 194.354 214.661 195.947C213.229 197.547 212.356 199.3 212.056 201.229C211.755 203.15 211.965 204.952 212.677 206.636C213.39 208.319 214.549 209.745 216.149 210.911C217.748 212.085 219.69 212.777 221.967 212.993C221.576 210.534 221.939 208.452 223.07 206.762C224.202 205.071 225.738 203.765 227.687 202.835C229.636 201.906 231.801 201.333 234.176 201.117C236.551 200.9 238.807 201.033 240.951 201.508C243.095 201.99 244.946 202.786 246.504 203.918C248.061 205.043 248.997 206.489 249.319 208.25C249.556 209.486 249.34 210.597 248.662 211.589C247.985 212.588 247.07 213.468 245.91 214.237C244.751 215.005 243.403 215.662 241.859 216.2C240.308 216.745 238.793 217.129 237.291 217.367C234.916 217.674 232.5 217.716 230.041 217.492C227.589 217.269 224.984 216.85 222.232 216.228C219.48 215.606 216.575 214.893 213.515 214.09C210.456 213.287 207.131 212.546 203.548 211.861C204.491 208.194 206.244 203.799 208.801 198.672C211.357 193.544 214.333 188.081 217.741 182.268C221.143 176.456 224.81 170.518 228.749 164.454C232.681 158.39 236.481 152.626 240.141 147.17C243.801 141.714 247.118 136.775 250.101 132.359C253.083 127.944 255.339 124.437 256.883 121.831C250.625 122.851 244.918 123.228 239.743 122.956C234.567 122.683 229.615 122.153 224.893 121.356C220.165 120.567 215.548 119.777 211.043 118.988C206.538 118.198 201.781 117.807 196.773 117.8C191.681 117.793 186.534 118.289 181.337 119.281C176.141 120.28 171.475 121.971 167.347 124.346C163.219 126.721 159.908 129.844 157.422 133.694C155.005 137.431 153.936 142.049 154.174 147.526C154.949 147.861 155.732 148.183 156.549 148.476C155.759 148.7 155.005 148.958 154.265 149.231C154.537 151.983 155.396 154.408 156.856 156.51C158.525 158.914 160.614 160.856 163.135 162.351C165.65 163.846 168.485 164.887 171.636 165.474C174.786 166.06 177.943 166.165 181.114 165.781C184.285 165.404 187.302 164.516 190.187 163.126C193.064 161.736 195.495 159.829 197.472 157.412C192.554 157.495 188.482 156.713 185.27 155.078C182.05 153.436 179.675 151.417 178.138 149.021C176.602 146.625 175.861 144.026 175.917 141.218C175.973 138.416 176.832 135.817 178.501 133.442C180.171 131.06 182.622 129.09 185.856 127.532C189.09 125.974 193.12 125.282 197.947 125.457C200.838 125.604 203.73 126.114 206.608 127.001C209.485 127.888 212.363 128.978 215.241 130.256C213.934 134.176 211.937 138.703 209.255 143.824C206.566 148.951 203.527 154.303 200.126 159.899C196.724 165.488 193.169 171.146 189.467 176.868C185.758 182.583 182.168 187.997 178.69 193.111C175.212 198.218 172.097 202.849 169.338 207.013C166.579 211.17 164.434 214.509 162.891 217.017C167.92 215.795 173.088 215.236 178.397 215.341C183.705 215.438 188.804 216.374 193.686 218.128C197.521 219.518 201.048 221.251 204.254 223.326C207.46 225.408 210.631 227.413 213.753 229.362C216.875 231.311 220.074 232.988 223.336 234.413C224.202 234.79 225.089 235.118 225.99 235.412C227.506 234.119 229.112 232.89 230.802 231.716C235.245 228.642 240.064 225.994 245.274 223.773L245.288 223.752Z" fill="white"/>
<path d="M154.181 147.519C154.188 147.694 154.181 147.861 154.195 148.036C154.209 148.441 154.237 148.839 154.272 149.224C155.012 148.958 155.767 148.7 156.556 148.469C155.739 148.169 154.949 147.847 154.181 147.519Z" fill="white"/>
<path d="M302.479 219.141C309.352 221.53 315.226 224.863 320.087 229.131C322.657 231.388 324.948 233.833 326.981 236.467C330.166 237.808 333.581 238.562 337.241 238.716C342.152 238.898 346.321 238.101 349.73 236.32C353.145 234.545 355.82 232.247 357.762 229.432C359.704 226.616 360.905 223.528 361.359 220.161C361.506 219.106 361.562 218.072 361.555 217.052L358.063 217.003C359.243 216.57 360.381 216.067 361.485 215.508C361.345 213.824 360.989 212.183 360.416 210.597C359.578 208.298 358.349 206.063 356.721 203.883C355.094 201.704 353.131 199.761 350.84 198.05C348.542 196.338 345.979 194.976 343.15 193.956C340.315 192.936 337.318 192.398 334.161 192.335C330.124 192.349 326.778 192.873 324.124 193.921C321.47 194.969 319.424 196.289 317.992 197.882C316.56 199.482 315.687 201.236 315.386 203.164C315.086 205.085 315.296 206.887 316.008 208.571C316.721 210.255 317.88 211.68 319.479 212.846C321.079 214.02 323.021 214.712 325.298 214.928C324.907 212.469 325.27 210.387 326.401 208.697C327.533 207.006 329.069 205.7 331.018 204.77C332.967 203.841 335.132 203.268 337.507 203.052C339.882 202.835 342.138 202.968 344.282 203.443C346.426 203.925 348.277 204.722 349.835 205.853C351.392 206.978 352.328 208.424 352.649 210.185C352.887 211.421 352.67 212.532 351.993 213.524C351.315 214.523 350.4 215.403 349.241 216.172C348.082 216.94 346.733 217.597 345.19 218.135C343.639 218.68 342.124 219.064 340.622 219.302C338.247 219.609 335.83 219.651 333.372 219.427C330.92 219.204 328.315 218.785 325.563 218.163C322.811 217.541 319.906 216.829 316.846 216.025C313.787 215.222 310.469 214.481 306.879 213.797C307.822 210.129 309.575 205.735 312.132 200.607C314.688 195.479 317.663 190.016 321.072 184.203C324.473 178.391 328.14 172.453 332.08 166.389C336.012 160.325 339.812 154.561 343.472 149.105C347.132 143.649 350.449 138.71 353.432 134.294C356.414 129.879 358.67 126.365 360.214 123.766C353.956 124.786 348.249 125.164 343.074 124.891C337.898 124.619 332.946 124.088 328.224 123.291C323.496 122.502 318.879 121.712 314.374 120.923C309.869 120.134 305.112 119.742 300.111 119.735C295.019 119.728 289.872 120.224 284.675 121.216C279.478 122.215 274.813 123.906 270.685 126.281C266.557 128.657 263.246 131.779 260.76 135.629C258.273 139.485 257.191 144.264 257.526 149.971C257.645 153.22 258.532 156.042 260.194 158.438C261.863 160.842 263.952 162.784 266.473 164.279C268.988 165.774 271.823 166.815 274.973 167.402C278.123 167.989 281.281 168.093 284.452 167.709C287.623 167.332 290.64 166.445 293.525 165.054C296.402 163.664 298.833 161.757 300.81 159.34C295.892 159.424 291.82 158.641 288.607 157.006C285.387 155.365 283.013 153.346 281.476 150.949C279.939 148.553 279.199 145.954 279.255 143.146C279.311 140.344 280.17 137.746 281.839 135.37C283.509 132.988 285.96 131.018 289.194 129.46C292.428 127.902 296.458 127.21 301.284 127.385C304.176 127.532 307.068 128.042 309.945 128.929C312.823 129.816 315.701 130.906 318.578 132.185C317.272 136.104 315.275 140.631 312.593 145.752C309.904 150.879 306.865 156.231 303.464 161.827C300.062 167.423 296.507 173.074 292.805 178.796C289.096 184.511 285.506 189.925 282.028 195.039C278.55 200.146 275.434 204.777 272.675 208.941C270.447 212.302 268.624 215.117 267.193 217.401C271.02 216.766 274.862 216.353 278.71 216.186C287.678 215.76 295.592 216.745 302.472 219.134L302.479 219.141Z" fill="white"/>
<path d="M369.384 158.886C370.802 160.625 372.528 162.099 374.567 163.322C376.607 164.544 378.87 165.488 381.363 166.144C383.85 166.808 386.413 167.164 389.046 167.213C393.258 167.29 397.379 166.515 401.402 164.88C405.425 163.245 408.75 160.569 411.369 156.846C406.626 157.104 402.575 156.503 399.223 155.036C395.87 153.569 393.209 151.613 391.232 149.161C389.256 146.716 387.929 144.012 387.237 141.064C386.546 138.116 386.406 135.259 386.804 132.506C387.209 129.754 388.173 127.336 389.71 125.261C391.239 123.187 393.195 121.866 395.577 121.293C396.631 121.049 397.602 120.937 398.482 120.951C400.592 120.993 402.401 121.594 403.916 122.76C405.432 123.927 406.745 125.359 407.849 127.043C408.959 128.734 409.888 130.459 410.65 132.227C411.404 133.994 411.991 135.496 412.41 136.733C416.174 146.625 419.82 156.608 423.362 166.668C426.903 176.735 430.109 186.837 432.993 196.974C433.657 199.182 434.293 201.361 434.907 203.52C435.522 205.679 435.969 207.705 436.241 209.598C436.514 211.491 436.521 213.203 436.276 214.726C436.025 216.256 435.319 217.492 434.167 218.435L474.845 219.204C473.19 218.47 471.178 215.802 468.804 211.198C466.429 206.594 463.907 200.935 461.225 194.215C457.873 185.908 454.82 177.609 452.082 169.309C449.344 161.016 446.474 152.675 443.47 144.285C442.304 141.022 441.11 137.906 439.894 134.944C438.679 131.982 437.149 129.278 435.305 126.833C433.461 124.388 431.156 122.215 428.384 120.322C425.611 118.429 422.035 116.913 417.669 115.774C413.995 114.915 410.405 114.454 406.899 114.384C400.669 114.265 394.808 115.25 389.326 117.339C383.843 119.428 379.198 122.236 375.405 125.757C371.606 129.285 368.826 133.393 367.072 138.095C365.312 142.797 365.089 147.75 366.395 152.947C366.968 155.155 367.96 157.118 369.377 158.858L369.384 158.886Z" fill="white"/>
<path d="M383.486 217.367C381.859 215.229 380.706 213.349 380.036 211.708C379.365 210.073 379.023 208.445 379.009 206.817C378.995 205.197 379.274 203.422 379.833 201.508C380.399 199.594 381.097 197.323 381.936 194.704L389.765 170.643C388.187 170.699 386.692 170.671 385.288 170.559L377.458 194.487C376.25 198.148 374.937 201.215 373.533 203.688C372.122 206.161 370.614 208.257 369 209.982C367.387 211.708 365.668 213.119 363.845 214.23C363.077 214.691 362.295 215.117 361.492 215.522C361.533 216.032 361.554 216.542 361.561 217.059L383.479 217.36L383.486 217.367Z" fill="white"/>
<path d="M408.114 175.471C406.277 184.294 400.913 189.366 392.021 190.686C396.394 191.469 399.872 193.292 402.457 196.143C405.034 199 406.724 202.493 407.527 206.629C408.4 202.437 410.216 199.028 412.989 196.408C415.762 193.788 419.262 192.077 423.494 191.28C419.206 190.498 415.727 188.828 413.052 186.278C410.377 183.728 408.736 180.123 408.121 175.464L408.114 175.471Z" fill="white"/>
<path d="M361.568 217.066C361.568 216.549 361.541 216.032 361.499 215.529C360.388 216.081 359.25 216.584 358.076 217.024L361.568 217.073V217.066Z" fill="white"/>
<path d="M336.159 263.684C335.167 257.725 333.246 252.018 330.389 246.554C329.041 243.977 327.477 241.552 325.717 239.268C323.747 236.718 321.526 234.343 319.039 232.163C314.325 228.027 308.639 224.8 301.976 222.48C295.319 220.168 287.643 219.211 278.961 219.63C275.232 219.798 271.516 220.196 267.807 220.811C266.005 221.111 264.196 221.46 262.401 221.865C261.165 222.145 259.935 222.452 258.72 222.774C254.536 223.891 250.485 225.282 246.581 226.951C241.531 229.103 236.858 231.667 232.563 234.643C230.921 235.782 229.371 236.97 227.897 238.22C225.508 240.246 223.343 242.426 221.394 244.759C218.251 248.525 215.792 252.597 214.011 256.985C212.23 261.372 211.427 266.088 211.595 271.132C211.762 275.351 212.754 279.201 214.57 282.673C216.386 286.145 218.977 288.981 222.323 291.175C225.676 293.369 229.727 294.71 234.483 295.206C239.24 295.702 244.597 295.038 250.548 293.222C246.329 291.07 243.06 287.905 240.749 283.728C238.43 279.55 237.068 274.981 236.656 270.014C236.076 263.643 236.802 257.83 238.828 252.577C240.853 247.323 243.668 242.831 247.265 239.114C250.862 235.391 255.018 232.456 259.733 230.305C264.447 228.153 269.288 227 274.247 226.833C280.533 226.588 285.974 228.055 290.563 231.241C295.152 234.427 298.937 238.583 301.913 243.711C304.888 248.839 307.019 254.651 308.304 261.149C309.582 267.646 310.078 274.101 309.792 280.507C309.498 286.92 308.388 292.977 306.439 298.692C304.497 304.4 301.787 309.073 298.309 312.713C296.402 314.62 294.258 315.815 291.855 316.311C289.452 316.807 287.161 316.723 284.968 316.059C282.775 315.396 280.917 314.243 279.388 312.587C277.858 310.932 277.048 308.948 276.971 306.628C276.887 304.316 276.803 301.214 276.726 297.323C276.643 293.431 276.58 289.463 276.538 285.411C276.496 281.359 276.454 277.615 276.412 274.178C276.37 270.747 276.349 268.281 276.349 266.793C276.349 262.986 276.412 259.206 276.538 255.441C276.664 251.675 276.845 248.161 277.097 244.892C277.348 241.622 277.634 238.751 277.963 236.264C278.291 233.784 278.71 231.919 279.206 230.682C277.634 231.43 275.714 232.17 273.437 232.918C271.16 233.665 268.743 234.343 266.18 234.964C263.616 235.586 261.032 236.124 258.427 236.578C255.821 237.032 253.405 237.382 251.17 237.633C251.833 238.709 252.392 240.323 252.846 242.475C253.3 244.626 253.67 247.064 253.963 249.796C254.25 252.528 254.459 255.483 254.585 258.668C254.711 261.854 254.774 265.061 254.774 268.288V272.382C254.774 274.206 254.753 276.315 254.711 278.712C254.669 281.115 254.606 283.658 254.522 286.347C254.438 289.037 254.376 291.664 254.334 294.228C254.292 296.792 254.229 299.188 254.145 301.424C254.061 303.659 253.977 305.517 253.901 307.005C253.733 309.157 253.489 311.33 253.153 313.524C252.825 315.717 252.287 317.89 251.54 320.042C256.667 318.637 261.381 318.058 265.684 318.302C269.986 318.554 273.786 318.966 277.097 319.546C282.307 320.461 287.287 321.034 292.051 321.285C296.807 321.537 301.249 321.083 305.391 319.923C311.426 318.267 316.602 315.536 320.897 311.735C325.2 307.928 328.65 303.464 331.255 298.329C333.861 293.201 335.579 287.64 336.403 281.639C337.227 275.638 337.15 269.665 336.152 263.705L336.159 263.684Z" fill="#FE6A13"/>
<path d="M352.174 309.702L357.035 293.718C355.995 293.774 355.01 293.774 354.081 293.718L349.22 309.618C348.465 312.049 347.641 314.089 346.747 315.745C345.846 317.394 344.882 318.798 343.835 319.958C342.794 321.117 341.676 322.074 340.489 322.822C339.302 323.576 338.044 324.212 336.71 324.736L353.473 324.652C352.37 323.262 351.594 322.033 351.126 320.964C350.665 319.895 350.414 318.819 350.386 317.75C350.358 316.681 350.519 315.508 350.861 314.236C351.203 312.965 351.643 311.456 352.167 309.716L352.174 309.702Z" fill="#FE6A13"/>
<path d="M409.672 319.518C408.051 316.507 406.312 312.797 404.461 308.396C402.142 302.953 400.033 297.511 398.119 292.062C396.205 286.62 394.208 281.15 392.126 275.645C391.316 273.5 390.492 271.46 389.654 269.518C388.816 267.576 387.775 265.815 386.525 264.215C385.281 262.623 383.731 261.218 381.88 260.003C380.029 258.787 377.654 257.83 374.756 257.138C372.325 256.614 369.95 256.356 367.631 256.356C363.517 256.356 359.669 257.083 356.079 258.529C352.489 259.975 349.464 261.889 347.006 264.264C344.547 266.64 342.766 269.392 341.662 272.515C340.559 275.645 340.475 278.914 341.404 282.33C341.809 283.777 342.487 285.069 343.444 286.194C344.4 287.325 345.56 288.276 346.915 289.058C348.277 289.84 349.779 290.434 351.434 290.84C353.082 291.245 354.78 291.447 356.512 291.447C359.292 291.447 361.995 290.881 364.635 289.757C367.268 288.625 369.426 286.815 371.103 284.328C367.974 284.559 365.298 284.217 363.07 283.288C360.842 282.365 359.061 281.101 357.727 279.508C356.393 277.915 355.485 276.148 354.989 274.206C354.493 272.263 354.367 270.384 354.598 268.561C354.828 266.737 355.436 265.131 356.421 263.74C357.406 262.35 358.677 261.449 360.242 261.044C360.94 260.869 361.576 260.785 362.155 260.785C363.545 260.785 364.747 261.162 365.759 261.917C366.772 262.671 367.652 263.601 368.407 264.697C369.161 265.794 369.797 266.926 370.32 268.086C370.844 269.245 371.242 270.23 371.536 271.041C374.141 277.531 376.676 284.07 379.135 290.672C381.594 297.274 383.836 303.904 385.868 310.568C386.329 312.014 386.783 313.447 387.216 314.865C387.649 316.283 387.971 317.617 388.173 318.861C388.376 320.104 388.404 321.236 388.257 322.249C388.11 323.262 387.663 324.086 386.909 324.722H413.744C412.64 324.261 411.285 322.522 409.665 319.511L409.672 319.518Z" fill="#FE6A13"/>
<path d="M369.203 296.673C368.099 302.52 364.628 305.937 358.781 306.922C361.673 307.383 363.992 308.542 365.731 310.394C367.47 312.245 368.623 314.536 369.203 317.254C369.726 314.474 370.879 312.203 372.674 310.436C374.469 308.668 376.753 307.494 379.533 306.915C376.697 306.454 374.378 305.392 372.583 303.743C370.788 302.094 369.657 299.733 369.196 296.666L369.203 296.673Z" fill="#FE6A13"/>
<path d="M472.17 261.882C471.8 259.689 470.62 258.054 468.636 256.978C467.972 256.65 467.288 256.377 466.589 256.167C465.884 255.965 465.123 255.86 464.291 255.86C462.804 255.86 461.316 256.154 459.821 256.726C461.889 258.466 463.314 260.45 464.103 262.686C464.885 264.921 465.241 267.296 465.158 269.818C465.074 272.34 464.62 274.904 463.796 277.51C462.964 280.116 461.973 282.68 460.82 285.209C459.661 287.731 458.48 290.092 457.286 292.279C456.085 294.472 454.988 296.436 453.996 298.175L442.953 271.621C441.466 267.981 440.39 265.089 439.727 262.93C439.063 260.778 439.063 258.752 439.727 256.852H408.952C409.944 257.516 410.859 258.319 411.683 259.269C412.507 260.219 413.36 261.4 414.226 262.804C415.092 264.216 416 265.885 416.957 267.834C417.907 269.776 419.003 272.075 420.246 274.723L441.34 320.643C441.089 321.055 440.718 321.697 440.222 322.564C439.727 323.43 439.21 324.366 438.672 325.358C438.134 326.35 437.596 327.258 437.058 328.09C436.521 328.921 436.046 329.536 435.634 329.955C434.642 331.115 433.398 331.695 431.911 331.695C431.163 331.695 430.486 331.506 429.864 331.136C429.243 330.765 428.768 330.207 428.439 329.459C428.104 328.711 428.048 327.803 428.251 326.727C428.453 325.652 428.977 324.45 429.801 323.13C427.978 321.97 426.037 321.39 423.969 321.39C421.734 321.39 419.792 322.117 418.137 323.563C416.482 325.009 415.532 326.811 415.28 328.963C415.113 330.619 415.28 332.17 415.776 333.616C416.272 335.062 417.019 336.347 418.011 337.465C419.003 338.583 420.205 339.449 421.608 340.071C423.012 340.693 424.5 341 426.079 341C428.146 341 430.255 340.357 432.407 339.079C434.558 337.793 436.583 335.663 438.483 332.687C441.543 327.887 444.665 322.696 447.85 317.114C451.035 311.533 454.031 306.174 456.846 301.039C457.593 299.635 458.662 297.714 460.073 295.269C461.477 292.831 462.943 290.162 464.48 287.263C466.01 284.364 467.456 281.366 468.824 278.265C470.186 275.163 471.185 272.201 471.8 269.392C472.422 266.577 472.54 264.076 472.17 261.882Z" fill="#FE6A13"/>
<path d="M159.105 32.6881C156.723 32.8767 154.369 32.6881 152.051 32.0943C149.732 31.5075 147.671 30.5154 145.862 29.1182C144.053 27.721 142.614 25.9185 141.546 23.7179C140.477 21.5173 139.995 18.9045 140.107 15.8934C140.191 13.6788 140.742 11.604 141.769 9.6688C142.796 7.74063 144.116 6.05697 145.716 4.61783C147.322 3.17869 149.131 2.05392 151.143 1.22956C153.154 0.405196 155.194 0 157.247 0C158.944 0 160.53 0.279445 161.997 0.845322C163.463 1.40421 164.707 2.19364 165.74 3.20663C166.767 4.21962 167.542 5.42124 168.066 6.7975C168.59 8.18076 168.737 9.69675 168.52 11.3385C168.381 12.4353 168.031 13.4623 167.473 14.4194C166.914 15.3765 166.222 16.2148 165.398 16.9274C164.574 17.64 163.645 18.1919 162.604 18.5901C161.564 18.9883 160.495 19.1839 159.398 19.1839C158.302 19.1839 157.352 18.9953 156.374 18.6111C155.403 18.2268 154.558 17.626 153.846 16.8016C153.434 16.3056 153.077 15.6629 152.777 14.8735C152.477 14.0771 152.309 13.2317 152.281 12.3235C152.253 11.4153 152.4 10.5281 152.714 9.65483C153.028 8.78157 153.587 8.01309 154.376 7.3564C154.816 8.89334 155.557 9.99017 156.598 10.6608C157.638 11.3315 158.735 11.6668 159.887 11.6668C160.188 11.6668 160.488 11.6389 160.788 11.583C161.089 11.5271 161.389 11.4573 161.689 11.3804C162.842 11.0241 163.652 10.4792 164.113 9.73867C164.581 8.99814 164.798 8.21569 164.77 7.39831C164.742 6.65778 164.546 5.95218 164.176 5.28151C163.806 4.61085 163.289 4.031 162.632 3.53498C161.976 3.03897 161.193 2.68267 160.285 2.44515C159.377 2.2146 158.365 2.1657 157.24 2.29844C155.759 2.48706 154.46 3.04595 153.336 3.96114C152.211 4.87632 151.268 6.01506 150.5 7.37037C149.732 8.72568 149.159 10.2347 148.775 11.8904C148.391 13.5461 148.216 15.2228 148.237 16.9204C148.265 18.7578 148.516 20.4973 148.998 22.16C149.48 23.8157 150.172 25.2758 151.073 26.5333C151.974 27.7908 153.091 28.7829 154.425 29.5094C155.752 30.236 157.296 30.5993 159.049 30.5993C160.362 30.5993 161.522 30.3128 162.521 29.74C163.519 29.1671 164.351 28.4266 165.007 27.5254C165.664 26.6241 166.16 25.6042 166.488 24.4654C166.816 23.3267 166.984 22.2019 166.984 21.0772C167.556 20.8326 168.094 20.9304 168.59 21.3636C169.086 21.8037 169.435 22.4185 169.638 23.2149C169.84 24.0113 169.854 24.9125 169.68 25.9255C169.498 26.9385 169.023 27.9096 168.241 28.8387C167.459 29.7679 166.334 30.5993 164.867 31.3258C163.401 32.0524 161.473 32.5135 159.091 32.7021L159.105 32.6881Z" fill="white"/>
<path d="M174.855 12.6449C176.113 11.9602 177.475 11.6179 178.927 11.6179C179.829 11.6179 180.723 11.7507 181.603 12.0091C182.483 12.2676 183.314 12.6519 184.11 13.1619C184.906 13.6718 185.647 14.2936 186.331 15.0341C187.016 15.7747 187.609 16.606 188.098 17.5422C188.755 18.8276 189.16 20.155 189.314 21.5243C189.46 22.8935 189.383 24.1999 189.069 25.4435C188.755 26.687 188.217 27.8257 187.463 28.8527C186.708 29.8797 185.758 30.711 184.606 31.3398C183.342 32.0244 181.987 32.3667 180.534 32.3667C179.633 32.3667 178.739 32.234 177.859 31.9755C176.979 31.717 176.148 31.3328 175.351 30.8228C174.555 30.3128 173.815 29.691 173.13 28.9505C172.446 28.21 171.852 27.3786 171.363 26.4425C170.707 25.157 170.301 23.8297 170.148 22.4604C169.994 21.0911 170.078 19.7847 170.392 18.5412C170.707 17.2976 171.244 16.1519 171.999 15.111C172.753 14.0701 173.703 13.2457 174.855 12.6449ZM181.805 20.9025C181.204 19.7498 180.59 18.7158 179.975 17.8006C179.361 16.8855 178.767 16.117 178.208 15.5022C177.649 14.8874 177.132 14.4403 176.664 14.1679C176.196 13.8954 175.812 13.8395 175.512 14.0002C175.24 14.1679 175.086 14.5172 175.058 15.0481C175.03 15.5791 175.107 16.2567 175.282 17.0601C175.456 17.8705 175.756 18.7857 176.169 19.8127C176.581 20.8396 177.07 21.9294 177.649 23.0752C178.25 24.2279 178.865 25.2548 179.479 26.1561C180.094 27.0573 180.688 27.8188 181.246 28.4335C181.805 29.0483 182.329 29.4954 182.811 29.7679C183.293 30.0403 183.67 30.1102 183.942 29.9705C184.215 29.8028 184.369 29.4535 184.396 28.9226C184.424 28.3916 184.348 27.714 184.173 26.8896C183.991 26.0652 183.698 25.1431 183.286 24.1161C182.874 23.0891 182.385 22.0133 181.805 20.8885V20.9025Z" fill="white"/>
<path d="M198.289 17.5701C198.205 18.0102 198.135 18.6041 198.086 19.3586C198.031 20.1131 197.996 20.9374 197.982 21.8456C197.968 22.7468 197.975 23.697 198.003 24.682C198.031 25.667 198.086 26.6241 198.17 27.5603C198.254 28.4894 198.366 29.3627 198.519 30.1661C198.673 30.9765 198.855 31.6542 199.071 32.1991H189.74C190.068 31.4585 190.326 30.5503 190.522 29.4675C190.711 28.3846 190.843 27.2249 190.913 25.9744C190.983 24.7309 190.997 23.4664 190.955 22.1949C190.913 20.9235 190.836 19.7288 190.732 18.618C190.627 17.5072 190.48 16.5222 190.299 15.6629C190.117 14.8036 189.935 14.1749 189.747 13.7906C190.375 13.7347 191.053 13.6439 191.779 13.5251C192.506 13.3994 193.239 13.2597 193.979 13.092C194.72 12.9313 195.432 12.7497 196.117 12.5611C196.801 12.3724 197.43 12.1768 198.01 11.9882V14.126C198.121 13.9862 198.219 13.8605 198.317 13.7347C198.415 13.609 198.512 13.4832 198.624 13.3435C199.197 12.7986 199.847 12.3864 200.559 12.1139C201.271 11.8415 201.984 11.7157 202.696 11.7437C203.492 11.7716 204.219 11.9672 204.875 12.3375C205.532 12.7078 206.105 13.1898 206.58 13.7766C207.062 14.3635 207.439 15.0411 207.711 15.8096C207.984 16.5781 208.123 17.3535 208.123 18.15C208.123 19.4075 207.858 20.4484 207.32 21.2728C206.789 22.0971 206.112 22.6979 205.308 23.0822C204.498 23.4664 203.625 23.6341 202.675 23.5991C201.732 23.5572 200.859 23.3057 200.063 22.8377C200.636 22.4255 201.055 21.8037 201.32 20.9654C201.579 20.127 201.711 19.2887 201.711 18.4364C201.711 17.5841 201.579 16.8296 201.32 16.1589C201.062 15.4882 200.685 15.111 200.189 15.0272C199.665 14.9154 199.26 15.118 198.952 15.621C198.652 16.131 198.429 16.7807 198.296 17.5701H198.289Z" fill="white"/>
<path d="M219.794 32.199C218.81 32.2269 217.888 32.0942 217.042 31.8078C216.19 31.5213 215.415 31.1301 214.696 30.6341C213.983 30.1381 213.334 29.5513 212.74 28.8666C212.153 28.182 211.636 27.4554 211.196 26.6869C210.644 25.7019 210.211 24.5492 209.883 23.2358C209.555 21.9224 209.408 20.602 209.45 19.2747C209.492 17.9473 209.743 16.6898 210.211 15.4952C210.679 14.3075 211.42 13.3504 212.433 12.6378C213.145 12.1418 213.878 11.8554 214.633 11.7785C215.387 11.6947 216.037 11.7226 216.588 11.8624C217.629 12.1348 218.502 12.7426 219.201 13.6927C219.899 14.6359 220.472 15.6838 220.905 16.8365C220.849 14.9712 220.723 13.3015 220.535 11.8274C220.346 10.3464 220.095 9.29846 219.794 8.66272C220.535 8.57889 221.338 8.43917 222.197 8.22958C223.056 8.02 223.908 7.79644 224.746 7.55193C225.585 7.30741 226.381 7.03496 227.149 6.72757C227.917 6.42716 228.56 6.12676 229.084 5.82635C228.888 6.42716 228.721 7.41221 228.567 8.78149C228.413 10.1508 228.309 11.7087 228.239 13.4622C228.169 15.2157 228.127 17.0531 228.113 18.9882C228.099 20.9164 228.127 22.7607 228.197 24.5143C228.267 26.2678 228.371 27.8327 228.504 29.2159C228.644 30.5992 228.832 31.5912 229.077 32.192H219.78L219.794 32.199ZM218.439 16.2217C217.839 16.1938 217.371 16.4313 217.042 16.9413C216.714 17.4513 216.512 18.115 216.428 18.9323C216.344 19.7497 216.372 20.6859 216.512 21.7268C216.651 22.7677 216.882 23.8226 217.21 24.8915C217.538 25.9604 217.964 26.9943 218.488 27.9933C219.012 28.9924 219.599 29.8586 220.255 30.5992C220.472 29.4185 220.646 27.9514 220.772 26.1839C220.898 24.4164 220.968 22.5931 220.996 20.6998C220.828 19.3864 220.521 18.3245 220.067 17.5141C219.613 16.7038 219.075 16.2776 218.439 16.2217Z" fill="white"/>
<path d="M234.309 12.6449C235.566 11.9602 236.928 11.6179 238.381 11.6179C239.282 11.6179 240.176 11.7507 241.056 12.0091C241.936 12.2676 242.767 12.6519 243.563 13.1619C244.359 13.6718 245.1 14.2936 245.784 15.0341C246.469 15.7747 247.063 16.606 247.551 17.5422C248.208 18.8276 248.613 20.155 248.767 21.5243C248.913 22.8935 248.837 24.1999 248.522 25.4435C248.208 26.687 247.67 27.8257 246.916 28.8527C246.161 29.8797 245.212 30.711 244.059 31.3398C242.795 32.0244 241.44 32.3667 239.987 32.3667C239.086 32.3667 238.192 32.234 237.312 31.9755C236.432 31.717 235.601 31.3328 234.804 30.8228C234.008 30.3128 233.268 29.691 232.583 28.9505C231.899 28.21 231.305 27.3786 230.816 26.4425C230.16 25.157 229.755 23.8297 229.601 22.4604C229.447 21.0911 229.531 19.7847 229.845 18.5412C230.16 17.2976 230.698 16.1519 231.452 15.111C232.206 14.0701 233.156 13.2457 234.309 12.6449ZM241.258 20.9025C240.658 19.7498 240.043 18.7158 239.428 17.8006C238.814 16.8855 238.22 16.117 237.661 15.5022C237.102 14.8874 236.586 14.4403 236.118 14.1679C235.65 13.8954 235.265 13.8395 234.965 14.0002C234.693 14.1679 234.539 14.5172 234.511 15.0481C234.483 15.5791 234.56 16.2567 234.735 17.0601C234.909 17.8705 235.21 18.7857 235.622 19.8127C236.034 20.8396 236.523 21.9294 237.102 23.0752C237.703 24.2279 238.318 25.2548 238.932 26.1561C239.547 27.0573 240.141 27.8188 240.699 28.4335C241.258 29.0483 241.782 29.4954 242.264 29.7679C242.746 30.0403 243.123 30.1102 243.396 29.9705C243.668 29.8028 243.822 29.4535 243.85 28.9226C243.878 28.3916 243.801 27.714 243.626 26.8896C243.444 26.0652 243.151 25.1431 242.739 24.1161C242.327 23.0891 241.838 22.0133 241.258 20.8885V20.9025Z" fill="white"/>
<path d="M258.489 5.82644C258.378 6.23863 258.273 6.81149 258.161 7.55202C258.049 8.29255 257.959 9.15184 257.875 10.1369C257.791 11.1219 257.728 12.1978 257.686 13.3645C257.644 14.5312 257.609 15.7258 257.581 16.9553C258.021 15.8026 258.594 14.7407 259.307 13.7487C260.019 12.7637 260.899 12.1349 261.94 11.8625C262.485 11.7227 263.141 11.6948 263.895 11.7786C264.65 11.8625 265.383 12.1489 266.096 12.6379C267.136 13.3505 267.884 14.3006 268.338 15.4952C268.792 16.6899 269.036 17.9474 269.078 19.2747C269.12 20.6021 268.973 21.9225 268.645 23.2359C268.317 24.5493 267.877 25.702 267.332 26.687C266.892 27.4555 266.375 28.189 265.767 28.8877C265.16 29.5863 264.489 30.1801 263.756 30.6761C263.015 31.1721 262.205 31.5564 261.332 31.8288C260.452 32.1013 259.509 32.227 258.496 32.1991H249.207C249.479 31.5703 249.703 30.6272 249.863 29.3627C250.031 28.1052 250.157 26.694 250.254 25.1291C250.352 23.5712 250.401 21.9365 250.401 20.2388C250.401 18.5412 250.359 16.9274 250.275 15.3905C250.192 13.8605 250.066 12.4912 249.884 11.2826C249.703 10.081 249.479 9.20074 249.207 8.65583C249.947 8.57199 250.75 8.43227 251.61 8.22269C252.469 8.0131 253.328 7.78955 254.18 7.54503C255.032 7.30052 255.828 7.02806 256.583 6.72067C257.337 6.42027 257.972 6.11986 258.496 5.81946L258.489 5.82644ZM260.096 16.2218C259.467 16.2777 258.922 16.7248 258.468 17.5562C258.014 18.3945 257.707 19.4773 257.539 20.8187C257.567 22.7888 257.623 24.6541 257.707 26.4076C257.791 28.1611 257.938 29.6002 258.161 30.718C258.846 30.0054 259.453 29.1531 259.991 28.1541C260.529 27.1551 260.962 26.1142 261.304 25.0313C261.646 23.9485 261.884 22.8726 262.024 21.8037C262.163 20.7348 262.191 19.7847 262.107 18.9464C262.024 18.1081 261.821 17.4374 261.493 16.9344C261.164 16.4244 260.696 16.1869 260.096 16.2148V16.2218Z" fill="white"/>
<path d="M279.953 25.744C279.736 26.5404 279.464 27.3508 279.15 28.1891C278.835 29.0275 278.437 29.775 277.955 30.4456C277.473 31.1163 276.887 31.6542 276.188 32.0664C275.49 32.4786 274.644 32.6812 273.66 32.6812C272.423 32.6812 271.425 32.3529 270.656 31.6962C269.888 31.0395 269.364 30.2291 269.071 29.272C268.784 28.3149 268.756 27.2949 268.987 26.212C269.217 25.1292 269.734 24.1651 270.531 23.3128C271.411 22.3836 272.374 21.685 273.429 21.217C274.484 20.7489 275.49 20.3367 276.454 19.9664C277.41 19.5962 278.263 19.17 279.003 18.695C279.743 18.2129 280.239 17.5003 280.484 16.5363C280.595 16.152 280.651 15.7398 280.651 15.3067C280.651 14.8736 280.574 14.4614 280.428 14.0981C280.274 13.7278 280.051 13.4135 279.75 13.155C279.45 12.8965 279.052 12.7498 278.556 12.7218C278.06 12.6939 277.592 12.8126 277.159 13.0711C276.719 13.3296 276.391 13.6859 276.174 14.14C275.958 14.5941 275.902 15.1111 276.007 15.6979C276.118 16.2848 276.488 16.8925 277.117 17.5283C276.733 17.9964 276.23 18.3596 275.615 18.6181C275.001 18.8766 274.365 19.0093 273.702 19.0093C272.905 19.0093 272.186 18.8067 271.543 18.3946C270.901 17.9824 270.468 17.3257 270.251 16.4245C270.139 15.7119 270.314 15.0412 270.768 14.4125C271.222 13.7837 271.844 13.2318 272.64 12.7707C273.436 12.3027 274.351 11.9394 275.392 11.6809C276.433 11.4224 277.501 11.2897 278.598 11.2897C279.694 11.2897 280.714 11.4364 281.741 11.7228C282.768 12.0092 283.69 12.4703 284.493 13.0991C285.303 13.7278 285.953 14.5452 286.449 15.5442C286.944 16.5432 287.189 17.7728 287.189 19.2189L287.231 26.7779C287.231 28.1751 287.364 29.265 287.622 30.0404C287.88 30.8159 288.327 31.1443 288.956 31.0045C289.368 30.8648 289.647 30.5365 289.801 30.0195C289.948 29.5025 289.983 28.9017 289.906 28.231C289.822 27.5604 289.64 26.8618 289.354 26.1352C289.068 25.4086 288.705 24.7869 288.265 24.2629C288.837 23.9625 289.403 23.8088 289.948 23.8088C290.604 23.8088 291.142 24.0254 291.554 24.4655C291.966 24.9056 292.246 25.4436 292.399 26.0863C292.553 26.729 292.553 27.4276 292.399 28.1821C292.246 28.9366 291.924 29.6422 291.436 30.2989C290.94 30.9556 290.276 31.5075 289.438 31.9407C288.6 32.3808 287.552 32.5974 286.295 32.5974C285.142 32.5974 284.172 32.4297 283.375 32.0874C282.579 31.7451 281.929 31.27 281.42 30.6692C280.91 30.0684 280.54 29.3488 280.309 28.5105C280.079 27.6721 279.96 26.75 279.96 25.737L279.953 25.744ZM279.953 22.2928C279.953 21.9086 279.953 21.5034 279.974 21.0842C279.988 20.6581 279.995 20.2529 279.995 19.8756C279.639 20.2319 279.275 20.6092 278.905 21.0074C278.535 21.4056 278.186 21.8387 277.857 22.2998C277.529 22.7679 277.236 23.2849 276.97 23.8577C276.712 24.4306 276.509 25.0733 276.377 25.7859C276.237 26.4705 276.244 26.9945 276.398 27.3648C276.544 27.735 276.775 27.9027 277.075 27.8817C277.403 27.8817 277.711 27.7211 278.004 27.4067C278.29 27.0923 278.542 26.6731 278.765 26.1562C278.982 25.6392 279.198 25.0454 279.401 24.3887C279.604 23.732 279.792 23.0334 279.953 22.2928Z" fill="white"/>
<path d="M190.766 6.14091L185.458 10.8496L183.831 9.50124L187.463 3.40234L190.773 6.14091H190.766Z" fill="white"/>
</svg>
