<?xml version="1.0" encoding="utf-8"?>
<!-- Generator: Adobe Illustrator 27.5.0, SVG Export Plug-In . SVG Version: 6.00 Build 0)  -->
<!DOCTYPE svg PUBLIC "-//W3C//DTD SVG 1.1//EN" "http://www.w3.org/Graphics/SVG/1.1/DTD/svg11.dtd" [
	<!ENTITY ns_extend "http://ns.adobe.com/Extensibility/1.0/">
	<!ENTITY ns_ai "http://ns.adobe.com/AdobeIllustrator/10.0/">
	<!ENTITY ns_graphs "http://ns.adobe.com/Graphs/1.0/">
	<!ENTITY ns_vars "http://ns.adobe.com/Variables/1.0/">
	<!ENTITY ns_imrep "http://ns.adobe.com/ImageReplacement/1.0/">
	<!ENTITY ns_sfw "http://ns.adobe.com/SaveForWeb/1.0/">
	<!ENTITY ns_custom "http://ns.adobe.com/GenericCustomNamespace/1.0/">
	<!ENTITY ns_adobe_xpath "http://ns.adobe.com/XPath/1.0/">
]>
<svg version="1.1" xmlns:x="&ns_extend;" xmlns:i="&ns_ai;" xmlns:graph="&ns_graphs;"
	 xmlns="http://www.w3.org/2000/svg" xmlns:xlink="http://www.w3.org/1999/xlink" x="0px" y="0px" width="517px" height="517px"
	 viewBox="0 0 517 517" style="enable-background:new 0 0 517 517;" xml:space="preserve">
<style type="text/css">
	.st0{fill:none;stroke:#FFFFFF;stroke-width:0.958;stroke-linecap:round;stroke-miterlimit:10;stroke-opacity:0.5;}
	.st1{opacity:0.3;}
	.st2{fill:#C45E15;}
	.st3{fill:#F9BB0B;}
	.st4{opacity:0.55;}
	.st5{fill:#DCC198;}
	.st6{fill:#D18E43;}
	.st7{fill:#D98111;}
	.st8{fill:#CFA970;}
	.st9{fill:#BCBCBC;}
	.st10{fill:#858441;}
	.st11{opacity:0.2;}
</style>
<metadata>
	<sfw  xmlns="&ns_sfw;">
		<slices></slices>
		<sliceSourceBounds  bottomLeftOrigin="true" height="516" width="516" x="0.5" y="0.5"></sliceSourceBounds>
	</sfw>
</metadata>
<g id="Layer_2">
</g>
<g id="Layer_1">
	<path class="st0" d="M244.2,374.5L244,376"/>
	<path class="st0" d="M243.5,380.2l-6.4,53.9"/>
	<path class="st0" d="M236,443.1l-7.2,60.8"/>
	<path class="st0" d="M227.8,512.9l-0.2,1.6"/>
	<path class="st0" d="M230.9,372.1l-0.4,1.5"/>
	<path class="st0" d="M229.6,377.6l-12.5,52.8"/>
	<path class="st0" d="M215,439.3l-14.1,59.6"/>
	<path class="st0" d="M198.7,507.7l-0.4,1.5"/>
	<path class="st0" d="M218.1,368.2l-0.5,1.5"/>
	<path class="st0" d="M216.1,373.5l-18.5,51"/>
	<path class="st0" d="M194.5,433.1l-20.9,57.5"/>
	<path class="st0" d="M170.5,499.2l-0.5,1.5"/>
	<path class="st0" d="M205.7,362.8l-0.7,1.4"/>
	<path class="st0" d="M203.2,367.9l-24.3,48.6"/>
	<path class="st0" d="M174.8,424.6l-27.4,54.7"/>
	<path class="st0" d="M143.4,487.5l-0.7,1.4"/>
	<path class="st0" d="M194.1,356l-0.9,1.3"/>
	<path class="st0" d="M191,360.8l-29.7,45.5"/>
	<path class="st0" d="M156.3,413.9l-33.5,51.2"/>
	<path class="st0" d="M117.8,472.7l-0.9,1.3"/>
	<path class="st0" d="M183.3,348l-1,1.2"/>
	<path class="st0" d="M179.7,352.4l-34.7,41.7"/>
	<path class="st0" d="M139.1,401.1l-39.2,47"/>
	<path class="st0" d="M94.1,455.1l-1,1.2"/>
	<path class="st0" d="M173.6,338.8l-1.1,1.1"/>
	<path class="st0" d="M169.4,342.7l-39.3,37.5"/>
	<path class="st0" d="M123.5,386.4l-44.3,42.2"/>
	<path class="st0" d="M72.6,434.9l-1.2,1.1"/>
	<path class="st0" d="M164.9,328.5l-1.3,1"/>
	<path class="st0" d="M160.3,331.9L117,364.6"/>
	<path class="st0" d="M109.7,370.1l-48.9,36.8"/>
	<path class="st0" d="M53.6,412.4l-1.3,1"/>
	<path class="st0" d="M157.5,317.3l-1.4,0.8"/>
	<path class="st0" d="M152.5,320.2l-46.8,27.5"/>
	<path class="st0" d="M97.9,352.2l-52.8,31"/>
	<path class="st0" d="M37.2,387.8l-1.4,0.8"/>
	<path class="st0" d="M151.4,305.3l-1.5,0.6"/>
	<path class="st0" d="M146.2,307.6l-49.7,21.9"/>
	<path class="st0" d="M88.2,333.1l-56,24.7"/>
	<path class="st0" d="M23.9,361.5l-1.5,0.6"/>
	<path class="st0" d="M146.8,292.6l-1.5,0.5"/>
	<path class="st0" d="M141.3,294.3l-51.9,16"/>
	<path class="st0" d="M80.7,313.1l-58.5,18.1"/>
	<path class="st0" d="M13.6,333.8l-1.5,0.5"/>
	<path class="st0" d="M143.6,279.6l-1.6,0.3"/>
	<path class="st0" d="M138,280.6l-53.4,10"/>
	<path class="st0" d="M75.7,292.3l-60.2,11.2"/>
	<path class="st0" d="M6.6,305.2L5,305.5"/>
	<path class="st0" d="M142,266.2l-1.6,0.1"/>
	<path class="st0" d="M136.2,266.6l-54.2,3.8"/>
	<path class="st0" d="M73,271l-61.1,4.2"/>
	<path class="st0" d="M2.9,275.9L1.3,276"/>
	<path class="st0" d="M141.9,252.8l-1.6-0.1"/>
	<path class="st0" d="M136.1,252.5L81.9,250"/>
	<path class="st0" d="M72.8,249.6l-61.1-2.8"/>
	<path class="st0" d="M2.6,246.4L1,246.3"/>
	<path class="st0" d="M143.3,239.4l-1.6-0.3"/>
	<path class="st0" d="M137.6,238.5L84,229.8"/>
	<path class="st0" d="M75.1,228.3l-60.4-9.8"/>
	<path class="st0" d="M5.7,217l-1.6-0.3"/>
	<path class="st0" d="M146.3,226.3l-1.5-0.4"/>
	<path class="st0" d="M140.8,224.7l-52.2-14.8"/>
	<path class="st0" d="M79.8,207.4l-58.9-16.7"/>
	<path class="st0" d="M12.2,188.2l-1.5-0.4"/>
	<path class="st0" d="M150.7,213.6l-1.5-0.6"/>
	<path class="st0" d="M145.4,211.4l-50.2-20.7"/>
	<path class="st0" d="M86.9,187.2l-56.6-23.4"/>
	<path class="st0" d="M21.9,160.4l-1.5-0.6"/>
	<path class="st0" d="M156.6,201.5l-1.4-0.8"/>
	<path class="st0" d="M151.6,198.7l-47.5-26.4"/>
	<path class="st0" d="M96.2,168l-53.5-29.7"/>
	<path class="st0" d="M34.8,133.8l-1.4-0.8"/>
	<path class="st0" d="M163.9,190.2l-1.3-0.9"/>
	<path class="st0" d="M159.2,186.9l-44.1-31.7"/>
	<path class="st0" d="M107.7,149.9L58,114.2"/>
	<path class="st0" d="M50.6,108.9l-1.3-0.9"/>
	<path class="st0" d="M172.4,179.8l-1.2-1.1"/>
	<path class="st0" d="M168.1,175.9l-40.2-36.5"/>
	<path class="st0" d="M121.2,133.3L75.9,92.1"/>
	<path class="st0" d="M69.2,86L68,84.9"/>
	<path class="st0" d="M182,170.4l-1-1.2"/>
	<path class="st0" d="M178.2,166.1l-35.7-40.9"/>
	<path class="st0" d="M136.6,118.3L96.3,72.2"/>
	<path class="st0" d="M90.3,65.4l-1-1.2"/>
	<path class="st0" d="M192.7,162.2l-0.9-1.3"/>
	<path class="st0" d="M189.4,157.5l-30.8-44.8"/>
	<path class="st0" d="M153.5,105.3l-34.7-50.4"/>
	<path class="st0" d="M113.7,47.3l-0.9-1.3"/>
	<path class="st0" d="M204.2,155.3l-0.7-1.4"/>
	<path class="st0" d="M201.5,150.2l-25.4-48"/>
	<path class="st0" d="M171.8,94.2l-28.7-54.1"/>
	<path class="st0" d="M138.9,32.1l-0.7-1.4"/>
	<path class="st0" d="M216.4,149.7l-0.6-1.5"/>
	<path class="st0" d="M214.4,144.4l-19.7-50.6"/>
	<path class="st0" d="M191.3,85.3l-22.2-57"/>
	<path class="st0" d="M165.8,19.8l-0.6-1.5"/>
	<path class="st0" d="M229.2,145.6l-0.4-1.5"/>
	<path class="st0" d="M227.8,140.1L214,87.6"/>
	<path class="st0" d="M211.7,78.8l-15.5-59.2"/>
	<path class="st0" d="M193.9,10.8l-0.4-1.5"/>
	<path class="st0" d="M242.4,143l-0.2-1.6"/>
	<path class="st0" d="M241.6,137.4L234,83.6"/>
	<path class="st0" d="M232.7,74.6L224.1,14"/>
	<path class="st0" d="M222.8,5l-0.2-1.6"/>
	<path class="st0" d="M255.8,142l0-1.6"/>
	<path class="st0" d="M255.7,136.2L254.3,82"/>
	<path class="st0" d="M254.1,72.9l-1.6-61.2"/>
	<path class="st0" d="M252.2,2.6l0-1.6"/>
	<path class="st0" d="M269.3,142.5l0.1-1.6"/>
	<path class="st0" d="M269.8,136.7l4.8-54.1"/>
	<path class="st0" d="M275.4,73.6l5.5-61"/>
	<path class="st0" d="M281.7,3.6l0.1-1.6"/>
	<path class="st0" d="M282.6,144.5l0.3-1.6"/>
	<path class="st0" d="M283.7,138.9l11-53.2"/>
	<path class="st0" d="M296.6,76.8l12.4-59.9"/>
	<path class="st0" d="M310.9,8l0.3-1.6"/>
	<path class="st0" d="M295.5,148l0.5-1.5"/>
	<path class="st0" d="M297.3,142.6L314.4,91"/>
	<path class="st0" d="M317.3,82.4l19.3-58.1"/>
	<path class="st0" d="M339.4,15.7l0.5-1.5"/>
	<path class="st0" d="M308,153l0.7-1.4"/>
	<path class="st0" d="M310.4,147.8l22.9-49.2"/>
	<path class="st0" d="M337.2,90.4L363,34.8"/>
	<path class="st0" d="M366.8,26.6l0.7-1.4"/>
	<path class="st0" d="M319.8,159.4l0.8-1.4"/>
	<path class="st0" d="M322.8,154.6l28.4-46.3"/>
	<path class="st0" d="M356,100.5l32-52.2"/>
	<path class="st0" d="M392.8,40.6l0.8-1.4"/>
	<path class="st0" d="M330.8,167.2l1-1.3"/>
	<path class="st0" d="M334.4,162.7l33.5-42.7"/>
	<path class="st0" d="M373.5,112.8l37.8-48.1"/>
	<path class="st0" d="M416.9,57.5l1-1.3"/>
	<path class="st0" d="M340.9,176.1l1.1-1.1"/>
	<path class="st0" d="M344.9,172l38.2-38.6"/>
	<path class="st0" d="M389.5,127l43.1-43.5"/>
	<path class="st0" d="M439,77.1l1.1-1.1"/>
	<path class="st0" d="M349.8,186.2l1.2-1"/>
	<path class="st0" d="M354.3,182.6l42.4-33.9"/>
	<path class="st0" d="M403.8,143l47.8-38.2"/>
	<path class="st0" d="M458.7,99.1l1.2-1"/>
	<path class="st0" d="M357.5,197.2l1.3-0.8"/>
	<path class="st0" d="M362.4,194.1l46-28.8"/>
	<path class="st0" d="M416.1,160.5L468,128"/>
	<path class="st0" d="M475.7,123.2l1.3-0.8"/>
	<path class="st0" d="M364,209l1.4-0.7"/>
	<path class="st0" d="M369.1,206.5l49-23.3"/>
	<path class="st0" d="M426.4,179.3l55.3-26.3"/>
	<path class="st0" d="M489.9,149.1l1.4-0.7"/>
	<path class="st0" d="M369,221.5l1.5-0.5"/>
	<path class="st0" d="M374.4,219.6l51.4-17.5"/>
	<path class="st0" d="M434.4,199.2l57.9-19.8"/>
	<path class="st0" d="M500.9,176.5l1.5-0.5"/>
	<path class="st0" d="M372.5,234.4l1.6-0.3"/>
	<path class="st0" d="M378.1,233.2l53.1-11.5"/>
	<path class="st0" d="M440.1,219.8l59.8-13"/>
	<path class="st0" d="M508.8,204.9l1.6-0.3"/>
	<path class="st0" d="M374.5,247.7l1.6-0.2"/>
	<path class="st0" d="M380.2,247.2l54-5.3"/>
	<path class="st0" d="M443.3,241l60.9-6"/>
	<path class="st0" d="M513.3,234.1l1.6-0.2"/>
	<path class="st0" d="M375,261.2l1.6,0"/>
	<path class="st0" d="M380.8,261.3l54.3,0.9"/>
	<path class="st0" d="M444.1,262.4l61.2,1.1"/>
	<path class="st0" d="M514.4,263.6l1.6,0"/>
	<path class="st0" d="M374,274.6l1.6,0.2"/>
	<path class="st0" d="M379.6,275.3l53.8,7.2"/>
	<path class="st0" d="M442.5,283.7l60.7,8.1"/>
	<path class="st0" d="M512.1,293l1.6,0.2"/>
	<path class="st0" d="M371.4,287.8l1.5,0.4"/>
	<path class="st0" d="M376.9,289.2l52.6,13.3"/>
	<path class="st0" d="M438.4,304.7l59.3,15"/>
	<path class="st0" d="M506.5,322l1.5,0.4"/>
	<path class="st0" d="M367.3,300.6l1.5,0.6"/>
	<path class="st0" d="M372.6,302.6l50.8,19.3"/>
	<path class="st0" d="M431.9,325.1l57.2,21.8"/>
	<path class="st0" d="M497.6,350.1l1.5,0.6"/>
	<path class="st0" d="M361.7,312.8l1.4,0.7"/>
	<path class="st0" d="M366.8,315.5l48.2,25"/>
	<path class="st0" d="M423.1,344.7l54.3,28.2"/>
	<path class="st0" d="M485.5,377l1.4,0.7"/>
	<path class="st0" d="M354.8,324.4l1.3,0.9"/>
	<path class="st0" d="M359.6,327.6l45,30.4"/>
	<path class="st0" d="M412.1,363l50.7,34.2"/>
	<path class="st0" d="M470.3,402.4l1.3,0.9"/>
	<path class="st0" d="M346.6,335l1.2,1"/>
	<path class="st0" d="M351,338.7l41.2,35.4"/>
	<path class="st0" d="M399,380l46.5,39.9"/>
	<path class="st0" d="M452.4,425.8l1.2,1"/>
	<path class="st0" d="M337.2,344.7l1.1,1.2"/>
	<path class="st0" d="M341.1,348.9l36.9,39.9"/>
	<path class="st0" d="M384.2,395.4l41.6,44.9"/>
	<path class="st0" d="M431.9,447l1.1,1.2"/>
	<path class="st0" d="M326.8,353.1l0.9,1.3"/>
	<path class="st0" d="M330.2,357.8l32,43.8"/>
	<path class="st0" d="M367.6,409l36.1,49.4"/>
	<path class="st0" d="M409.1,465.7l0.9,1.3"/>
	<path class="st0" d="M315.5,360.4l0.8,1.4"/>
	<path class="st0" d="M318.3,365.4l26.8,47.2"/>
	<path class="st0" d="M349.6,420.5l30.2,53.3"/>
	<path class="st0" d="M384.2,481.7l0.8,1.4"/>
	<path class="st0" d="M303.4,366.3l0.6,1.5"/>
	<path class="st0" d="M305.6,371.6l21.2,50"/>
	<path class="st0" d="M330.3,430l23.9,56.4"/>
	<path class="st0" d="M357.7,494.7l0.6,1.5"/>
	<path class="st0" d="M290.7,370.8l0.5,1.5"/>
	<path class="st0" d="M292.3,376.3l15.3,52.1"/>
	<path class="st0" d="M310.2,437.1l17.2,58.7"/>
	<path class="st0" d="M329.9,504.6l0.4,1.5"/>
	<path class="st0" d="M277.6,373.7l0.3,1.6"/>
	<path class="st0" d="M278.6,379.4l9.2,53.5"/>
	<path class="st0" d="M289.3,441.9l10.4,60.3"/>
	<path class="st0" d="M301.2,511.2l0.3,1.6"/>
	<path class="st0" d="M264.2,375.2l0.1,1.6"/>
	<path class="st0" d="M264.6,380.9l3,54.2"/>
	<path class="st0" d="M268,444.2l3.3,61.1"/>
	<path class="st0" d="M271.9,514.4l0.1,1.6"/>
	<g class="st1">
		<path class="st2" d="M475.7,121.6C418,79,349.2,56.4,276.9,56.4c-72.3,0-141.1,22.6-198.8,65.3c-13.9,10.3-18.8,28.5-11.9,44.3
			c4.4,10.1,13,17.7,23.6,20.7c5.2,1.5,10.6,1.8,15.9,1l32.3,59.6c-0.1,0.9-0.3,1.8-0.4,2.7c-0.8,5.2-1.5,10.5-1.5,16.1
			c0,2.8,0.1,5.5,0.4,8.3c0.2,1.4,0.4,2.8,0.7,4.3c0.3,1.4,0.8,2.9,1.3,4.3c0.5,1.4,1.2,2.8,1.9,4.2c0.8,1.3,1.7,2.7,2.8,3.9
			c2.2,2.4,5.3,4.6,8.8,5.4c1.8,0.4,3.6,0.5,5.2,0.3c1.7-0.1,3.2-0.5,4.7-1c0.7-0.2,1.3-0.4,1.9-0.7l25.2,46.6
			c-0.2,0.4-0.4,0.8-0.5,1.2c-0.3,0.7-0.6,1.3-0.8,2c-0.3,0.7-0.6,1.4-0.8,2.2c-0.9,3-1.6,6.1-1.4,9.7c0.1,1.8,0.5,3.6,1.2,5.5
			c0.8,1.8,2,3.5,3.6,4.9c1.5,1.3,2.9,2,3.7,2.6c0.4,0.3,0.7,0.5,0.9,0.8c0.3,0.3,0.5,0.6,0.7,0.9c0.9,1.4,1.3,3.6,1.4,6.2
			c0.1,2.5,0,5.3,0.3,8.4c0.3,3.1,0.8,6.3,2.2,9.4c1.4,3.2,3.7,6.1,7,8c1.6,1,3.5,1.7,5.4,1.9c1.9,0.3,3.8,0.1,5.5-0.2
			c1.7-0.3,3.2-0.9,4.6-1.4c0.2-0.1,0.3-0.1,0.5-0.2l29.3,54.2c-0.4,2.5-0.7,5.1-1,7.7c-0.4,3.8-0.5,7.9,0,11.9
			c0.5,4,1.4,8,3.2,11.9c0.9,1.9,2,3.8,3.3,5.5c1.3,1.8,2.8,3.3,4.5,4.7c1.8,1.4,3.8,2.5,6,3.3c2.2,0.8,4.6,1.2,7.2,1
			c2.6-0.2,5.2-1.3,7.2-2.9c2-1.6,3.5-3.6,4.5-5.7c2.1-4.1,2.8-8.2,3.2-12c0.4-3.3,0.4-6.6,0.2-10c3.2-2.1,5.9-5.1,7.9-8.7
			l25.2-46.6c0.4,0.5,0.7,1.1,1.1,1.6c1.3,1.6,2.8,3.1,4.7,4.3c1.9,1.2,4.2,2.1,6.7,2.3c2.5,0.2,5.2-0.6,7.3-1.9
			c2.1-1.4,3.7-3.2,4.8-5c1.1-1.9,1.9-3.9,2.3-6c0.4-2.1,0.5-4,0.5-5.9c-0.1-3.7-0.5-7-0.5-9.9c0-2.8,0.6-5.6,1.8-7.3
			c0.6-0.9,1.2-1.4,2.4-2.2l2.1-1.3c0.8-0.5,1.7-1.1,2.5-1.8c1.6-1.4,3-3,4.1-4.7c1.1-1.7,1.9-3.6,2.5-5.5c1.2-3.8,1.6-7.6,1.3-11.4
			c-0.1-0.9-0.2-1.9-0.3-2.8c-0.1-0.9-0.3-1.8-0.5-2.7c-0.4-1.8-0.9-3.5-1.4-5.2c-0.8-2.3-1.6-4.5-2.5-6.6l27.2-50.2
			c0.9,1.1,2,2.2,3.3,3.1c1.6,1.1,3.7,1.9,5.7,2.1c2.1,0.2,4.2-0.1,6-0.8c1.8-0.7,3.4-1.7,4.8-2.9c1.4-1.2,2.6-2.7,3.5-4.2
			c1.8-3.1,2.7-6.3,3.1-9.5c0.8-6.2,0.3-12.3-0.9-18.1c-0.8-4-1.9-7.8-3-11.5l27.1-49.9c1.5,0.3,3.1,0.5,4.6,0.3
			c3.2-0.3,6.2-1.8,8.3-3.8c2.2-1.9,3.8-4.3,4.8-6.8c0.5-1.2,1-2.6,1.2-3.8c0.2-0.7,0.3-1.4,0.4-2.1c1.8-0.2,3.5-0.6,5.3-1.1
			c10.6-3.1,19.2-10.6,23.6-20.7C494.5,150.1,489.6,131.9,475.7,121.6L475.7,121.6z"/>
		<path class="st2" d="M243.6,487.1c-0.5-0.3-1.1-0.6-1.7-0.8C242.5,486.6,243.1,486.9,243.6,487.1z"/>
	</g>
	<path class="st3" d="M420.7,172.7l-36.4,67.1l-6.7,12.5l-8,14.8l-2.4,4.4l-0.8,1.5l-0.5,0.9l-31.4,57.9L305,386.2l-5.1,9.4
		l-1.2,2.1l-28.3,52.3c-1.9,3.4-4.4,6-7.4,7.8c-3.7,2.2-8.1,3.1-12.3,2.8c-6.3-0.6-12.4-4.1-15.9-10.5l-2.2-4l-148-273.3
		c31-20.4,61.9-35.3,92.9-44.5C258.8,104,339.9,118.6,420.7,172.7z"/>
	<g class="st4">
		<path class="st5" d="M266,455.7c-0.9,0.8-1.9,1.5-2.9,2.1c-3.7,2.2-8.1,3.1-12.3,2.8c-6.3-0.6-12.4-4.1-15.9-10.5l-2.2-4
			l-148-273.3c16.3-10.7,32.5-19.9,48.8-27.5c-13.2,6.6-26.3,14.3-39.5,23l148,273.3l2.2,4c3.5,6.4,9.6,9.9,15.9,10.5
			C262.1,456.2,264,456.1,266,455.7L266,455.7z"/>
	</g>
	<path class="st2" d="M253.7,464.7c-9,0-17-4.7-21.3-12.7L82.1,174.6c-1-1.9-0.3-4.4,1.6-5.4c1.9-1,4.4-0.3,5.4,1.6l150.2,277.4
		c2.9,5.3,8.2,8.5,14.3,8.5c6.1,0,11.4-3.2,14.3-8.5l150.2-277.4c1-1.9,3.5-2.7,5.4-1.6c1.9,1,2.7,3.5,1.6,5.4L275,452
		C270.7,459.9,262.7,464.7,253.7,464.7z"/>
	<path class="st6" d="M460.7,151.8c-5.2,12-16.5,19.1-28.4,19.7c-4,0.2-8.1-0.3-12.1-1.6c-2.9-0.9-5.6-2.3-8.3-4.1
		c-2.5-1.7-5.1-3.4-7.6-5c-0.7-0.4-1.3-0.8-2-1.3c-23.5-14.7-49.3-26-76.8-33.3c-7.5-2-15-3.6-22.7-5c-5.4-0.9-10.9-1.8-16.4-2.4
		c-1-0.1-1.9-0.2-2.9-0.3c-0.3,0-0.6-0.1-0.9-0.1c-1-0.1-2.1-0.2-3.2-0.3c-8.5-0.8-17.1-1.2-25.9-1.2c-24.1,0-47.5,3-69.9,8.8
		c-4.3,1.1-8.5,2.3-12.7,3.6c-13.7,4.2-27,9.5-39.8,15.7c-12.5,6.1-24.6,13.1-36,20.9c-17,11.7-40.5,4.9-48.7-14
		c-1.8-4.2-2.7-8.7-2.7-13c0-10.2,4.8-20.1,13.4-26.5C113.8,70.4,182,47.8,253.7,47.8c43.5,0,85.7,8.3,124.8,24.2
		c25.3,10.3,49.3,23.8,71.5,40.2C462.4,121.4,466.8,137.7,460.7,151.8L460.7,151.8z"/>
	<g class="st4">
		<path class="st5" d="M452.1,113.9c-55.2-38.8-120.9-59.7-189.8-59.7c-68.9,0-139.8,22.6-196.4,64.5c-8.6,6.4-13.4,16.3-13.4,26.5
			c0,4.4,0.9,8.8,2.7,13.1c1.6,3.7,3.8,7,6.5,9.7c-6.5-3.3-11.9-8.8-15.1-16.1c-1.8-4.2-2.7-8.7-2.7-13c0-10.2,4.8-20.1,13.4-26.5
			C113.8,70.4,182,47.8,253.7,47.8s139.8,22.6,196.4,64.5C450.8,112.8,451.4,113.3,452.1,113.9z"/>
	</g>
	<path class="st2" d="M430.6,175.5c-7.3,0-14.6-2.2-20.8-6.5c-46.1-31.5-100.1-48.2-156.1-48.2c-56.1,0-110,16.7-156.1,48.2
		c-9.1,6.2-20.4,8.1-31,5C56,171,47.4,163.5,43,153.4c-6.9-15.8-2-34,11.9-44.3c57.7-42.7,126.4-65.2,198.8-65.2
		c72.3,0,141.1,22.6,198.8,65.3c13.9,10.3,18.8,28.5,11.9,44.3c-4.4,10.1-13,17.7-23.6,20.7C437.4,175.1,434,175.6,430.6,175.5
		L430.6,175.5z M253.7,112.9c57.7,0,113.2,17.1,160.6,49.6c7.1,4.9,16,6.3,24.3,3.9c8.3-2.4,15-8.3,18.5-16.2
		c5.4-12.4,1.5-26.7-9.4-34.7c-56.3-41.7-123.4-63.7-194-63.7c-70.6,0-137.7,22-194,63.7c-10.9,8.1-14.7,22.3-9.4,34.7
		c3.4,7.9,10.2,13.8,18.5,16.2c8.3,2.4,17.2,1,24.3-3.9C140.5,130.1,196,112.9,253.7,112.9L253.7,112.9z"/>
	<path class="st6" d="M360.1,115.1c-10.7-3.4-21.8,3.1-31.3,9.1c-1.1,0.7-2.1,1.4-3.3,2c-8.8,5.2-18.8,9.7-28.1,6.1
		c-5.7-2.2-10-7.1-13.5-12.1c-0.1-0.1-0.2-0.3-0.3-0.4c-0.3-0.5-0.6-0.9-1-1.4c-3.2-4.8-6.3-9.7-10.7-13.4c-4.8-4.1-8.7-7-19.3-6.3
		c31.9-11.5,61.8-10.8,89.5,4.3C348.3,106.4,354.3,110.4,360.1,115.1z"/>
	<g class="st4">
		<path class="st5" d="M287.8,122.8c2.1-5.6,0.8-12.3-3.2-16.7c-4-4.4-10.5-6.4-16.3-4.9C274.3,109,281.2,115.6,287.8,122.8
			L287.8,122.8z"/>
	</g>
	<path class="st2" d="M252.6,97.7c2.6-0.5,5.4-0.8,8.2-0.6c2.8,0.2,5.8,1.1,8.4,2.5c1.3,0.7,2.5,1.5,3.6,2.3
		c1.1,0.7,2.3,1.7,3.3,2.6c2.2,1.9,4,4.1,5.7,6.2c1.7,2.2,3.3,4.3,4.8,6.3c1.5,2,3,4,4.6,5.7c1.6,1.7,3.2,3.3,5,4.5
		c1.8,1.1,3.7,1.9,5.8,2.2c4.2,0.6,8.7-0.6,13.1-2.6c2.2-1,4.4-2.1,6.6-3.3l3.3-1.8l3.4-1.9c2.3-1.3,4.8-2.6,7.3-3.7
		c2.5-1.1,5.1-2.1,7.9-2.8c2.7-0.7,5.6-1.1,8.5-1c2.9,0.1,5.7,0.7,8.2,2c0.5,0.2,0.7,0.9,0.5,1.4c-0.2,0.4-0.6,0.6-1,0.6h0
		c-5-0.7-9.8,0.5-14.2,2.5c-4.5,2.1-8.6,4.8-12.9,7.8l-1.6,1.1l-1.7,1.1c-1.1,0.8-2.3,1.5-3.4,2.2c-2.4,1.4-4.8,2.7-7.5,3.8
		c-2.6,1.1-5.4,2-8.4,2.5c-2.9,0.5-6.1,0.7-9.2,0.2c-3.1-0.5-6.2-1.6-8.9-3.2c-2.7-1.6-5-3.6-7-5.7c-2-2.1-3.6-4.4-5.1-6.7
		c-1.5-2.3-2.7-4.6-4.1-6.7c-1.4-2.1-2.7-4.2-4.3-6c-0.8-0.9-1.6-1.7-2.5-2.6c-0.9-0.9-1.8-1.7-2.7-2.4c-0.9-0.7-1.9-1.4-2.9-1.9
		c-1-0.5-2.1-0.9-3.3-1.3c-2.3-0.6-4.9-1-7.5-1.1c-0.6,0-1-0.5-0.9-1.1C251.8,98.2,252.2,97.8,252.6,97.7L252.6,97.7z"/>
	<path class="st6" d="M183.8,125.7c0,0.3,0.1,0.6,0.1,1c0.7,6.3,2.6,12.7,1.4,18.9c-1.1,6.2-7,12.3-13.1,10.8
		c-2.8-0.7-5-2.8-7.2-4.7c-2.4-2.1-4.7-4-7.8-4.1c-3.4-0.1-6.3,2.3-9.6,3.2c-5.8,1.5-11.4-1.8-16.3-5.8c-1-0.8-1.9-1.6-2.8-2.4
		c-5.4-4.8-12.3-9.9-19.2-7.8l59.5-18.9l20.6-6.5C184.5,112.8,183.3,119.6,183.8,125.7L183.8,125.7z"/>
	<g class="st4">
		<path class="st5" d="M167.5,151.5c-0.3-5.9-5.1-11.2-10.9-12.2c-5.5-0.9-11.2,1.6-16.5,0c-5.4-1.6-8.8-7.2-14-9.3
			c-4.6-1.9-10.4-0.5-13.7,3.2c6.5,2.4,12.4,5.8,17.8,10.2c1.9,1.5,3.8,3.2,6,4.3c4.8,2.4,10.5,1.8,15.8,1.3
			C157.2,148.6,163.1,148.4,167.5,151.5z"/>
	</g>
	<path class="st2" d="M190,110.2c-1.5,2.1-2.2,4.3-2.5,6.5c-0.3,2.3-0.3,4.6,0,6.9c0.1,1.2,0.3,2.3,0.5,3.5l0.7,3.8
		c0.5,2.6,1,5.4,1.2,8.4c0.1,1.5,0.1,3-0.1,4.6c-0.1,0.8-0.2,1.6-0.3,2.4c-0.2,0.9-0.4,1.7-0.7,2.5c-1.2,3.2-3.1,6.1-5.8,8.3
		c-1.3,1.1-2.9,2.1-4.7,2.7c-1.8,0.6-3.9,0.9-5.8,0.6c-2-0.3-3.8-1.1-5.2-2c-1.5-0.9-2.6-1.9-3.7-2.8c-1.1-0.9-2-1.8-2.9-2.4
		c-0.9-0.7-1.7-1.2-2.4-1.4c-0.2-0.1-0.3-0.1-0.5-0.1c-0.1,0-0.1,0-0.2,0c-0.1,0-0.1,0-0.2,0c-0.3,0-0.5,0-0.9,0.1
		c-0.7,0.1-1.6,0.5-2.7,1c-1.1,0.5-2.4,1.2-4.1,1.8c-0.8,0.3-1.8,0.5-2.7,0.7c-0.9,0.1-1.8,0.2-2.7,0.2c-0.9,0-1.8-0.1-2.7-0.3
		c-0.9-0.2-1.7-0.4-2.5-0.6c-1.6-0.5-3.1-1.2-4.4-2c-2.7-1.5-5-3.4-7.1-5.3c-1.1-0.9-2-1.9-2.9-2.8c-0.9-0.9-1.8-1.7-2.7-2.5
		c-1.8-1.6-3.7-3.1-5.7-4.3c-1-0.5-2-1-3.1-1.4c-1.1-0.3-2.3-0.5-3.6-0.5h-0.1c-0.6,0-1-0.5-1-1.1c0-0.4,0.2-0.7,0.5-0.9
		c1.3-0.8,2.8-1.3,4.4-1.5c1.6-0.2,3.2-0.1,4.7,0.2c3.1,0.6,5.8,2,8.3,3.5c1.2,0.8,2.4,1.6,3.5,2.5l3.1,2.5c1,0.8,2,1.5,3,2.2
		c1,0.7,2,1.3,3,1.8c1,0.5,2,0.9,2.9,1.2c0.5,0.2,0.9,0.2,1.4,0.4c0.4,0,0.9,0.1,1.3,0.1c0.4,0,0.8,0,1.3-0.1
		c0.4-0.1,0.8-0.1,1.2-0.3c0.9-0.3,2-0.8,3.3-1.4c1.3-0.6,2.9-1.2,4.9-1.6c2-0.3,4.3-0.1,6.1,0.7c1.9,0.7,3.3,1.7,4.5,2.7
		c1.2,1,2.2,1.9,3.2,2.8c1.9,1.7,3.5,2.8,4.8,2.9c0.7,0.1,1.3,0,2-0.2c0.7-0.3,1.4-0.7,2.1-1.3c1.4-1.2,2.5-3,3-4.8
		c0.2-0.5,0.2-0.9,0.3-1.4c0.1-0.5,0.1-1,0.2-1.6c0.1-1.1,0.1-2.2,0-3.4c-0.1-2.3-0.5-4.8-0.8-7.5c-0.2-1.3-0.3-2.7-0.4-4.1
		c-0.1-1.4-0.2-3-0.1-4.4c0.2-3,0.8-6.1,2.2-8.9c1.4-2.8,3.8-5.3,6.7-6.3c0.5-0.2,1.1,0.1,1.3,0.6
		C190.3,109.6,190.2,109.9,190,110.2L190,110.2L190,110.2z"/>
	<path class="st6" d="M441.8,148.8c-4.6,2.5-6.9,7.7-7.9,12.8c-0.7,3.2-0.9,6.6-1.5,9.9c-0.3,1.9-0.7,3.7-1.2,5.5
		c-1.6,4.9-5.2,9.7-10.3,10.6c-1.7,0.3-3.3,0.1-4.9-0.4c-4.6-1.5-8.4-6.1-9.9-11c-1.5-5-1.4-10.2-1.6-15.5c0-1.6-0.1-3.3-0.2-4.9
		c-0.6-6.8-3.2-14.2-9.3-17.2l23.3,5.1L441.8,148.8L441.8,148.8z"/>
	<g class="st4">
		<path class="st5" d="M415.6,185.1c-3-8.2-4.4-17.1-4.1-25.8c0.1-4.4,0.7-9.1-1.2-13.1c-2.2-4.9-8.1-7.9-13.4-6.8
			c4.3,3.8,6.5,9.4,7.2,15.1c0.8,5.7,0.3,11.4,0.2,17.2c-0.1,3.3,0.1,7,2.4,9.5C408.9,183.4,412.5,184.6,415.6,185.1z"/>
	</g>
	<path class="st2" d="M395.3,137.7c2.4,0.6,4.7,2.1,6.4,4c0.9,0.9,1.6,2,2.3,3c0.6,1.1,1.3,2.2,1.7,3.4c1,2.3,1.6,4.7,2,7.2
		c0.4,2.4,0.6,4.7,0.7,7c0.3,4.5,0.4,8.7,1.4,12.3c0.4,1.7,1.2,3.3,2.2,4.8c1,1.4,2.3,2.7,3.6,3.4c1.4,0.8,2.8,1.1,4,0.9
		c1.3-0.2,2.5-0.9,3.7-1.9c1.1-1.1,2.2-2.5,3-4.1c0.4-0.8,0.8-1.6,1.1-2.5c0.3-0.9,0.6-1.9,0.9-2.9c0.5-2,0.9-4.2,1.4-6.4
		c0.5-2.2,1-4.6,1.9-6.9c0.9-2.3,2-4.5,3.6-6.5c1.6-2,3.6-3.6,5.9-4.5c0.5-0.2,1.1,0.1,1.3,0.6c0.2,0.4,0,0.9-0.3,1.1l0,0
		c-3.3,2.6-4.7,6.6-5.4,10.6c-0.3,2-0.4,4.1-0.6,6.4c-0.1,2.2-0.2,4.5-0.5,6.9c-0.2,1.2-0.4,2.4-0.6,3.7c-0.3,1.2-0.7,2.6-1.2,3.8
		c-1.1,2.5-2.6,4.9-4.8,6.8c-1.1,1-2.4,1.8-3.8,2.5c-1.4,0.7-3,1.1-4.5,1.3c-1.6,0.2-3.2,0-4.7-0.3c-1.5-0.4-2.9-0.9-4.2-1.6
		c-2.5-1.5-4.6-3.4-6.3-5.6c-1.6-2.2-3-4.7-3.7-7.3c-1.5-5.1-1.5-10-1.4-14.5c0-2.2,0.1-4.4,0.1-6.5c0-2-0.2-4.1-0.6-6
		c-0.7-3.9-2.2-7.7-5.5-10.4l0,0c-0.4-0.4-0.5-1-0.1-1.4C394.5,137.8,394.9,137.6,395.3,137.7L395.3,137.7z"/>
	<path class="st3" d="M389,269.5c-0.4,3.6-1.3,7.3-3.5,10.2c-2.2,2.9-5.8,4.9-9.4,4.5c-2.4-0.3-4.4-1.5-6-3.3
		c-1.8-2-3.1-4.8-3.6-7.5c0-0.1,0-0.3-0.1-0.4c-0.9-4.9-0.2-10-0.7-15c-0.4-5.1-2.5-10.7-7.1-13l10.8-17l14.9-23.4
		c-5.1,9.8-3.5,21.7-0.8,32.4c0.2,1,0.5,1.9,0.8,2.9C387,249.6,390,259.5,389,269.5z"/>
	<path class="st2" d="M385.2,205.1c-1.7,5.2-1.8,10.5-1.2,15.7c0.3,2.6,0.8,5.2,1.4,7.8c0.6,2.6,1.3,5.2,2.1,7.8
		c1.6,5.3,3.3,10.7,4.5,16.4c1.2,5.7,1.7,11.9,0.9,18.1c-0.4,3.1-1.3,6.4-3.1,9.5c-0.9,1.5-2.1,3-3.5,4.2c-1.4,1.2-3,2.2-4.9,2.9
		c-0.9,0.3-1.9,0.6-2.9,0.7c-1,0.1-2.1,0.2-3.1,0c-2.1-0.2-4.1-1-5.7-2.1c-3.3-2.3-5.3-5.4-6.4-8.7c-0.6-1.6-0.9-3.4-1-5
		c-0.1-1.6-0.1-3.2-0.1-4.6c0.1-3,0.5-5.7,0.6-8.3c0.1-1.3,0.1-2.5,0-3.8c-0.1-1.2-0.3-2.5-0.6-3.7c-0.7-2.4-1.9-4.6-3.9-6.1l0,0
		c-0.4-0.3-0.5-1-0.2-1.4c0.3-0.3,0.7-0.5,1.1-0.3c1.5,0.5,2.9,1.4,4.1,2.4c1.2,1.1,2.1,2.4,2.9,3.8s1.4,2.9,1.8,4.3
		c0.4,1.5,0.7,3.1,0.9,4.5c0.4,3,0.5,5.8,0.7,8.5c0.2,2.6,0.7,5,1.5,6.9c0.8,2,2.1,3.7,3.5,4.6c1.3,0.9,2.6,1.2,4.3,0.7
		c0.8-0.3,1.6-0.7,2.3-1.3c0.7-0.6,1.3-1.3,1.8-2.2c1-1.8,1.6-4,1.9-6.4c0.6-4.9-0.1-10.1-1.2-15.3c-1.1-5.2-2.6-10.6-3.9-16.1
		c-0.6-2.8-1.1-5.7-1.5-8.6c-0.3-2.9-0.5-5.9-0.3-8.9c0.1-3,0.6-6,1.5-8.9c0.9-2.9,2.2-5.6,4-8c0.3-0.4,1-0.5,1.4-0.2
		C385.2,204.2,385.4,204.7,385.2,205.1L385.2,205.1z"/>
	<path class="st3" d="M335.4,303l-2.2,3.6C333.8,305.3,334.5,304.1,335.4,303z"/>
	<path class="st3" d="M332.7,369.8c-1.7,1.2-3.7,2.1-5.3,3.5c-3.4,3-4.4,7.9-4.4,12.4c0,4.5,0.8,9.1,0,13.6c-0.8,4.5-3.7,9-8.1,9.9
		c-0.1,0-0.2,0-0.4,0.1c-4.5,0.6-8.7-2.6-11.1-6.5c-1.4-2.2-2.4-4.7-3.4-7.1c-0.8-1.9-1.6-3.8-2.7-5.5c-2.4-4-6.5-7.6-11.2-7.2
		l30.6-49.7l16.4-26.7c-2.7,5.7-2.3,12.8-0.6,19.1c0.5,2.1,1.2,4.1,1.9,6.1c1.9,5.5,4.1,10.8,5,16.5
		C340.8,356.2,339.2,365.2,332.7,369.8L332.7,369.8z"/>
	<path class="st2" d="M336.2,303.6c-3.1,5.6-2.7,12-1.2,17.9c0.4,1.5,0.8,2.9,1.4,4.4c0.5,1.5,1.1,3,1.7,4.5c1.2,3,2.6,6.1,3.7,9.4
		c0.6,1.7,1.1,3.4,1.4,5.2c0.2,0.9,0.4,1.8,0.5,2.7c0.1,0.9,0.2,1.9,0.3,2.8c0.2,3.8-0.1,7.6-1.3,11.4c-0.6,1.9-1.4,3.7-2.5,5.5
		c-1.1,1.7-2.5,3.4-4.1,4.7c-0.8,0.7-1.7,1.3-2.5,1.8l-2.1,1.3c-1.2,0.8-1.8,1.3-2.4,2.2c-1.2,1.8-1.8,4.5-1.8,7.3
		c0,2.9,0.4,6.2,0.5,9.9c0,1.9-0.1,3.8-0.5,5.9c-0.4,2.1-1.2,4.1-2.3,6c-1.1,1.9-2.7,3.7-4.8,5c-2.1,1.4-4.8,2.1-7.3,1.9
		c-2.6-0.2-4.9-1.1-6.7-2.3c-1.9-1.2-3.4-2.7-4.7-4.3c-0.6-0.8-1.2-1.7-1.7-2.6c-0.5-0.8-0.9-1.7-1.3-2.5c-0.8-1.7-1.4-3.3-2-4.8
		c-0.6-1.5-1.1-3-1.7-4.4c-0.3-0.7-0.5-1.3-0.9-1.9c-0.3-0.6-0.7-1.2-1-1.8c-1.6-2.3-3.5-4.3-6.5-5.1l-0.1,0
		c-0.5-0.1-0.9-0.7-0.8-1.2c0.1-0.3,0.3-0.6,0.7-0.7c0.9-0.3,1.9-0.5,2.9-0.5c1,0,2,0.2,3,0.5c1.9,0.6,3.7,1.7,5.2,2.9
		c0.8,0.6,1.4,1.4,2.1,2.1c0.6,0.8,1.2,1.6,1.7,2.3c1,1.6,1.8,3.2,2.6,4.7c0.7,1.5,1.4,3,2.1,4.3c0.4,0.7,0.7,1.3,1.1,1.9
		c0.4,0.6,0.7,1,1.2,1.5c0.8,0.9,1.8,1.8,2.7,2.3c0.9,0.6,1.9,0.9,2.7,0.9c0.8,0,1.5-0.1,2.2-0.6c0.7-0.4,1.4-1.2,2-2.2
		c0.6-0.9,1-2.1,1.3-3.3c0.3-1.2,0.4-2.6,0.4-4.1c0.1-3-0.3-6.3-0.2-10.1c0.1-1.9,0.3-3.8,0.8-5.8c0.5-2,1.3-4,2.6-5.9
		c0.7-0.9,1.4-1.8,2.3-2.6c0.9-0.8,1.8-1.4,2.6-1.9l2.2-1.3c0.6-0.4,1.1-0.7,1.6-1.1c1.9-1.5,3.3-3.8,4-6.4c0.8-2.6,0.9-5.5,0.6-8.4
		c-0.1-0.7-0.2-1.4-0.3-2.1c-0.1-0.7-0.3-1.5-0.4-2.2c-0.3-1.5-0.7-3-1.2-4.5c-0.9-3-1.9-6.2-2.9-9.5c-0.5-1.6-0.9-3.3-1.3-5
		c-0.4-1.7-0.7-3.5-0.9-5.3c-0.4-3.6-0.2-7.3,0.7-10.8c0.9-3.6,2.7-7,5.3-9.4c0.4-0.4,1-0.4,1.4,0.1
		C336.3,302.8,336.4,303.2,336.2,303.6L336.2,303.6L336.2,303.6z"/>
	<path class="st3" d="M112.3,192.1c6.9,9.8,7.4,22.8,6.4,34.8c-1.1,12-3.4,24.1-1.3,36c1.3,7.5,5.6,15.6,13.1,16.8
		c5.1,0.9,10-1.7,14.8-3.3c4.9-1.6,11.1-2,14.3,2.1"/>
	<g class="st4">
		<path class="st5" d="M112.3,192.1c1.4,2,2.5,4.1,3.4,6.2L112.3,192.1z"/>
	</g>
	<g class="st4">
		<path class="st5" d="M142.8,277.7c-3.7,1.4-7.3,2.6-11.1,2c-7.5-1.3-11.8-9.4-13.1-16.8c-2.1-11.8,0.2-24,1.3-36
			c0.9-9.6,0.7-19.8-2.9-28.5l8.3,15.1c1.4,2.5,2,5.3,1.7,8.1c0,0,0,0,0,0c-1.1,12-3.4,24.1-1.3,36c1.3,7.5,5.6,15.6,13.1,16.8
			c1,0.2,2,0.2,3,0.1C142,275.5,142.3,276.6,142.8,277.7z"/>
	</g>
	<path class="st2" d="M113.1,191.5c3.4,4.2,5.6,9.4,6.8,14.7c1.3,5.3,1.6,10.7,1.6,16.1c0,5.4-0.5,10.7-0.9,15.8
		c-0.4,5.2-0.7,10.3-0.5,15.3c0.1,2.5,0.4,4.9,0.8,7.3c0.2,1.2,0.4,2.3,0.8,3.4c0.3,1.1,0.7,2.2,1.2,3.2c0.4,1,1,2,1.5,2.9
		c0.6,0.9,1.2,1.7,1.9,2.4c0.7,0.7,1.4,1.3,2.1,1.7c0.2,0.1,0.4,0.2,0.6,0.3c0.2,0.1,0.4,0.2,0.6,0.3c0.4,0.1,0.8,0.3,1.2,0.4
		c0.8,0.2,1.6,0.3,2.5,0.2c0.9-0.1,1.9-0.2,3-0.5c2.2-0.5,4.6-1.4,7.3-2.2c2.9-0.8,6-1.2,9.2-0.6c1.6,0.3,3.2,0.9,4.5,1.9
		c1.4,1,2.5,2.3,3,3.8c0.2,0.6-0.1,1.2-0.7,1.3c-0.3,0.1-0.5,0.1-0.8,0l-0.1,0c-1.1-0.5-2.2-0.8-3.2-0.8c-1-0.1-2,0-3.1,0.2
		c-2.1,0.4-4.2,1-6.2,1.9c-2.3,0.9-4.7,2.1-7.5,3c-1.4,0.5-3,0.8-4.7,1s-3.5,0.1-5.2-0.3c-3.6-0.8-6.7-2.9-8.8-5.4
		c-1.1-1.2-2-2.6-2.8-3.9c-0.7-1.4-1.4-2.7-1.9-4.2c-0.5-1.4-1-2.8-1.3-4.3c-0.4-1.4-0.6-2.9-0.7-4.3c-0.3-2.8-0.4-5.6-0.4-8.3
		c0.1-5.5,0.8-10.8,1.5-16.1c0.7-5.2,1.6-10.3,2.1-15.4c0.4-5.1,0.5-10.2-0.1-15.2c-0.7-5-2.2-9.9-4.8-14.2
		c-0.3-0.5-0.1-1.1,0.3-1.4C112.3,191,112.8,191.1,113.1,191.5L113.1,191.5z"/>
	<path class="st3" d="M174.3,296.5c3.4,5.7,3.2,12.8,1.4,19.2c-1.8,6.4-4.9,12.2-7.2,18.4c-2.2,5.7-3.3,13,1.2,17.1
		c1.4,1.3,3.1,2,4.5,3.3c4.2,3.9,3.7,10.5,3.8,16.3c0.1,3.7,0.6,7.4,2.3,10.6c1.6,3.3,4.5,6.1,8,7c4.9,1.2,9.8-1.1,14.5-3
		c4.7-1.9,10.4-3.1,14.4-0.1"/>
	<g class="st4">
		<path class="st5" d="M174.3,296.5c0.5,0.9,0.9,1.8,1.3,2.7L174.3,296.5z"/>
	</g>
	<g class="st4">
		<path class="st5" d="M197.1,387.2c0.2,0.1,0.5,0.1,0.7,0.2c-3.1,1.1-6.3,1.8-9.4,1c-3.5-0.9-6.4-3.7-8.1-7
			c-1.6-3.3-2.2-7-2.3-10.6c-0.1-5.7,0.4-12.4-3.8-16.3c-1.4-1.3-3.1-2-4.5-3.3c-4.5-4.1-3.4-11.4-1.2-17.1c2.3-6.2,5.5-12,7.2-18.4
			c1.5-5.4,1.9-11.4-0.1-16.5l0.4,0.8c5,10.3,5.3,22.1,1.3,32.8c0,0.1,0,0.1-0.1,0.2c-2.2,5.7-3.3,13,1.2,17.1
			c1.4,1.3,3.1,2.1,4.5,3.3c4.2,3.9,3.7,10.5,3.8,16.3c0.1,3.7,0.6,7.4,2.3,10.7C190.6,383.5,193.5,386.3,197.1,387.2L197.1,387.2z"
			/>
	</g>
	<path class="st2" d="M175.1,296c2,2.2,3.4,5.1,4.1,8.1c0.7,3,0.8,6.1,0.5,9.1c-0.6,6.1-3,11.6-5,16.7l-1.5,3.8
		c-0.2,0.6-0.5,1.2-0.7,1.9c-0.2,0.6-0.4,1.2-0.6,1.7c-0.7,2.3-1.1,4.6-1,6.6c0,1,0.2,1.9,0.5,2.6c0.3,0.7,0.7,1.3,1.2,1.8
		c0.5,0.5,1.7,1.2,3.1,2.2c0.7,0.5,1.5,1.2,2.2,2c0.7,0.7,1.2,1.6,1.7,2.4c1,1.7,1.5,3.5,1.8,5.1c0.3,1.7,0.4,3.2,0.5,4.7
		c0.1,3-0.1,5.8,0.2,8.1c0.2,2.4,0.8,4.7,1.7,6.6c0.9,1.8,2.4,3.3,3.9,4.2c0.8,0.4,1.5,0.7,2.3,0.8c0.8,0.1,1.8,0.2,2.8,0
		c2.1-0.2,4.5-1.1,7.1-1.9c1.3-0.4,2.8-0.9,4.3-1.2c1.5-0.3,3.1-0.5,4.7-0.5c1.6,0,3.3,0.3,4.9,0.9c1.6,0.6,3,1.6,4,2.8
		c0.3,0.5,0.3,1.1-0.2,1.5c-0.3,0.2-0.6,0.3-0.9,0.2l-0.1,0c-2.5-0.8-4.7-0.4-6.9,0.3c-1.1,0.4-2.3,0.8-3.4,1.4
		c-1.1,0.5-2.2,1.1-3.5,1.7c-1.2,0.6-2.5,1.3-4,1.8c-1.4,0.5-2.9,1.1-4.6,1.4c-1.7,0.3-3.6,0.5-5.5,0.2c-1.9-0.3-3.8-1-5.4-1.9
		c-3.3-2-5.5-4.9-7-8c-1.4-3.1-2-6.4-2.2-9.4c-0.2-3.1-0.1-5.9-0.3-8.4c-0.1-2.5-0.5-4.8-1.4-6.1c-0.2-0.4-0.5-0.7-0.7-0.9
		c-0.3-0.3-0.5-0.5-0.9-0.8c-0.8-0.6-2.2-1.3-3.7-2.6c-1.5-1.3-2.8-3-3.6-4.9c-0.8-1.8-1.1-3.7-1.2-5.5c-0.2-3.5,0.5-6.7,1.4-9.7
		c0.2-0.7,0.5-1.5,0.8-2.2c0.3-0.7,0.5-1.4,0.8-2c0.6-1.3,1.1-2.6,1.7-3.9c2.4-5,4.6-9.8,6-14.5c0.7-2.4,1.1-4.9,1.3-7.4
		c0.1-2.5-0.2-5-0.9-7.6v0c-0.2-0.5,0.1-1.1,0.7-1.3C174.5,295.6,174.9,295.7,175.1,296L175.1,296z"/>
	<path class="st3" d="M262.2,473.7c-0.9,5.1-2.9,10.5-7.6,12.7c-4.6,2.2-10.2,0.2-14-3.1c-1.6-1.4-2.9-3-4.1-4.7
		c-4.1-6.3-5.4-14.5-5-22.1c0.2-3.5,0.6-7,1.2-10.4c1-6.2,2.3-12.3,2.8-18.6c0.8-9.8-0.8-20.4-7.7-27.4l23.8,11.5l10.9,5.3
		c-4.2,3.1-5.6,8.7-5.2,13.9c0.4,5.1,2.4,10,3.7,15c1,4,1.7,8,2,12.1C263.4,463.1,263.1,468.5,262.2,473.7L262.2,473.7z"/>
	<path class="st2" d="M228.6,399.3c1.5,1.2,2.8,2.7,4,4.3c1.2,1.6,2.2,3.3,3,5.1c1.6,3.6,2.6,7.5,3.1,11.4c0.2,2,0.4,3.9,0.4,5.9
		c0,2-0.1,3.9-0.2,5.8c-0.2,3.8-0.8,7.6-1.5,11.2c-0.7,3.6-1.4,7.2-1.7,10.7c-0.4,3.5-0.4,6.9,0,10.2c0.4,3.3,1.2,6.6,2.5,9.5
		c0.6,1.5,1.5,2.8,2.4,4c0.4,0.6,1,1.2,1.5,1.8c0.5,0.5,1.1,1.1,1.6,1.5c2.2,1.8,5.1,2.8,7.4,2.5c0.6-0.1,1.1-0.2,1.6-0.4
		c0.5-0.2,0.9-0.5,1.4-0.9c0.9-0.7,1.6-1.8,2.2-3.1c1.3-2.6,1.9-5.9,2.4-9.3c0.5-3.4,0.8-6.9,0.7-10.4c0-3.5-0.3-7-0.9-10.4
		c-0.6-3.4-1.6-6.9-2.4-10.7c-0.4-1.9-0.7-3.8-0.8-5.8c-0.1-2-0.1-4.1,0.4-6.1c0.4-2,1.1-4,2.2-5.7c0.5-0.9,1.2-1.7,1.9-2.4
		c0.7-0.7,1.5-1.4,2.4-1.9c0.5-0.3,1.1-0.2,1.4,0.3c0.3,0.4,0.2,0.9-0.2,1.3l0,0c-2.5,2.3-3.6,5.7-3.7,9c-0.2,3.3,0.7,6.6,1.8,10
		c0.6,1.7,1.2,3.4,1.9,5.2c0.6,1.8,1.2,3.6,1.8,5.5c1.1,3.8,1.7,7.6,2.1,11.5c0.4,3.9,0.3,7.9-0.1,11.8c-0.2,2-0.5,3.9-1,5.9
		c-0.5,2-1.2,4.1-2.2,6.1c-1,2-2.5,4.1-4.5,5.7c-2,1.6-4.6,2.7-7.2,2.9c-2.6,0.3-5-0.2-7.2-1c-2.2-0.8-4.2-1.9-6-3.3
		c-0.9-0.7-1.7-1.5-2.4-2.2c-0.7-0.8-1.5-1.6-2.1-2.5c-1.3-1.7-2.4-3.6-3.3-5.5c-1.8-3.8-2.7-7.9-3.2-11.9c-0.5-4-0.4-8.1,0-11.9
		c0.4-3.9,1-7.6,1.5-11.3c0.5-3.7,1.3-7.2,2.1-10.7c0.7-3.5,1.2-6.9,1.2-10.4c0.1-3.5-0.2-7-1-10.3c-0.4-1.7-1-3.3-1.7-4.9
		c-0.7-1.6-1.7-3.1-2.7-4.5l0,0c-0.3-0.5-0.2-1.1,0.2-1.4C227.7,399,228.2,399,228.6,399.3L228.6,399.3z"/>
	<g class="st1">
		<path class="st2" d="M460.7,151.8c-5.2,12-16.5,19.1-28.4,19.7c-0.3,1.9-0.7,3.7-1.2,5.5c-1.6,4.9-5.2,9.7-10.3,10.6
			c-1.7,0.3-3.3,0.1-4.9-0.4c-1-1-1.9-2.1-2.8-3.2c3.4-0.7,5.9-4,6.8-7.4c0.5-2.2,0.6-4.4,0.4-6.7c-0.1-1.3-0.3-2.6-0.4-3.8
			c-0.6-4.8-1.2-9.6-1.8-14.4c-0.3-2.4-0.6-4.8-0.1-7.1c0.1-0.3,0.1-0.6,0.3-0.8c0.7-1.8,2.5-3,4.1-4.3c8.3-6.9,11.3-19.4,7-29.3
			C425.6,101.7,417.7,96,410,91c-10.3-6.7-20.8-13-31.5-18.9c25.3,10.3,49.3,23.8,71.5,40.2C462.4,121.4,466.8,137.7,460.7,151.8
			L460.7,151.8z"/>
	</g>
	<g class="st1">
		<path class="st2" d="M404,158.5c-0.5,0.4-1.1,0.7-1.6,1c-23.5-14.7-49.3-26-76.8-33.3c-8.8,5.2-18.8,9.7-28.1,6.1
			c-5.7-2.2-10-7.1-13.5-12.1c-0.1-0.6-0.3-1.1-0.4-1.7c-0.2-0.9-0.3-1.7-0.4-2.6c1,1.2,2.1,2.1,3.3,2.9c4.6,3,10.7,3.5,16.4,2.4
			c1.8-0.4,3.6-0.9,5.2-1.5c8.4-3.3,15.4-9.3,23.4-13.2c3.3-1.6,7-2.9,10.7-3.4c5.3-0.8,10.7-0.1,14.9,3.1
			c5.1,3.7,7.8,10.3,13.3,13.5c2.9,1.7,6.3,2.2,9.5,3.3c11.7,4.2,18.6,15.9,24.6,26.8c0.7,1.3,0.6,3,0.6,4.5
			C405.2,155.7,405.3,157.6,404,158.5L404,158.5z"/>
	</g>
	<g class="st1">
		<path class="st2" d="M253.7,116.9c-24.1,0-47.5,3-69.9,8.8c0,0.3,0.1,0.6,0.1,1c0.7,6.3,2.6,12.7,1.4,18.9
			c-1.1,6.2-7,12.3-13.1,10.8c-2.8-0.7-5-2.8-7.2-4.7c0-0.5,0-0.9,0.1-1.3c3.2,0.9,6.7-1.3,8.1-4.3c1.5-3,1.2-6.6,0.4-9.8
			c-0.6-2.4-1.6-4.7-2.5-7c-0.3-0.8-0.6-1.6-0.9-2.4c-1.1-3.5-1.7-7.3-1.4-10.9c0.3-3.5,1.3-6.8,3.3-9.7c4.1-5.9,11.4-8.8,18.5-9.4
			c7.1-0.7,14.3,0.6,21.4,1.2c7.1,0.6,14.6,0.6,21.1-2.5c4.8-2.2,9-6.1,14.2-7.4c6.4-1.6,13.3,1.1,18.2,5.5
			c5,4.3,8.4,10.1,11.8,15.8c1.5,2.6,2.3,5.6,2.4,8.7C271,117.3,262.4,116.9,253.7,116.9L253.7,116.9z"/>
	</g>
	<g class="st1">
		<path class="st2" d="M129.5,145.5c-8.2,5.3-15.8,11.4-24.2,16.4c-8.3,5-17.6,9-27.4,9.3c-9.7,0.3-19.5-3.4-25.1-11.5
			c6.5,3.4,14.3,4.1,21.3,1.8c7-2.2,12.9-7.4,16.2-13.9c1.5-3.1,2.5-6.5,4.8-9.2c3.1-3.6,8-5.1,12.8-5c4.7,0.1,9.3,1.5,13.8,2.9
			C125.1,137.5,128,142.3,129.5,145.5L129.5,145.5z"/>
	</g>
	<g class="st1">
		<path class="st2" d="M384.3,239.9c2.6,9.8,5.7,19.6,4.7,29.6c-0.4,3.6-1.3,7.3-3.5,10.2c-2.2,2.9-5.8,4.9-9.4,4.5
			c-2.4-0.3-4.4-1.5-6-3.3c-1.6-2.8-2.6-6.1-2.9-9.3c-0.1-1.2-0.2-2.4-0.1-3.6c0.9-0.2,1.7-0.4,2.5-0.8c4-1.9,6.8-6.1,7.7-10.5
			c0.3-1.4,0.4-2.9,0.3-4.3c-0.1-3.9-1.2-7.8-2.7-11.5c-1.7-4.3-3.9-8.5-5.5-12.8c-0.3-0.7-0.5-1.4-0.7-2.1
			c-1.6-5.1-3.8-12.3-0.9-16.8c6.2-9.7,9.2-21.9,6.3-33.1c-2.9-11.2-12.2-20.9-23.7-22.6c-9.7-1.4-19.2,2.7-28.8,4.2
			c-11,1.8-22.5,0.1-32.6-4.7c-8.6-4.1-16-10.3-24.9-13.6c-8.8-3.3-18.5-3.4-27.9-3.4c-7,0-14.3-0.1-20.7,2.8
			c-6.8,3-11.9,8.9-18,13.2c-5.6,3.9-13.2,6.4-19.2,3.6c3.5-1.9,6.2-5.9,7-9.9c1.1-6.2-0.7-12.6-1.4-18.9c0-0.1,0-0.1,0-0.2
			c33-9,66-11.6,99-7.8h0c0.3,0.4,0.5,0.8,0.8,1.2c0.1,0.1,0.2,0.3,0.3,0.4c3.5,5,7.8,9.9,13.5,12.1c8.9,3.4,18.4-0.5,26.9-5.4
			c26.7,7.5,53.4,19.3,80.1,35.4c0.1,4.7,0.2,9.4,1.5,13.8c1.2,4,4,7.8,7.5,9.9L384.3,239.9L384.3,239.9z"/>
	</g>
	<g class="st1">
		<path class="st2" d="M339.5,348.4c1.3,7.8-0.4,16.9-6.8,21.4c-1.7,1.2-3.7,2.1-5.3,3.5c-3.4,3-4.4,7.9-4.4,12.4
			c0,4.5,0.8,9.1,0,13.6c-0.8,4.5-3.7,9-8.1,9.8c-0.1,0-0.2,0-0.4,0.1c-5.3-2.2-8.5-8.8-9.3-14.9c-0.4-2.7-0.4-5.4-0.2-8.1
			c0.5-5.5,2.2-11,4.9-15.8c2.9-5,7.1-9.5,8.6-15.1c2-7.1,0.4-14.6-1.8-22.1c-1.4-4.9-3.1-9.8-4.2-14.7c-5.6,4.8-12.8,7.7-20.7,7.7
			c-11.9,0-22.2-6.6-27.6-16.2c3.2,1.2,6.7,1.8,10.4,1.8c17.5,0,31.6-14.2,31.6-31.6c0-5.6-1.5-10.8-4-15.4
			c9.9,3.4,17.6,11.6,20.2,21.9c3.3-5,6.1-10.1,6.7-15.8c0.6-5.4-1-10.7-1.6-16.1c-0.6-5.4,0-11.4,4-15.1c3.2-3.1,8.1-3.8,12.5-3.3
			c7.7,0.9,14.8,5.6,18.7,12.2c-0.6,8.4,0.9,16.9,3.2,25.3l-31.4,57.9C336.4,337.3,338.6,342.7,339.5,348.4L339.5,348.4z"/>
	</g>
	<g class="st1">
		<path class="st2" d="M298.8,397.7l-28.3,52.3c-1.9,3.4-4.4,6-7.4,7.8c0.4,5.3,0,10.6-0.9,15.8c-0.9,5.1-2.9,10.5-7.6,12.7
			c-4.6,2.2-10.2,0.2-14-3.1c-1.6-1.4-2.9-3-4.1-4.7c3.8-0.2,7.5-1.5,10.1-4.2c3.4-3.6,4.3-8.7,4.2-13.8c0-1.4-0.1-2.8-0.3-4.1
			c-1.2-9.4-4-18.7-3.8-28.2c0.1-5.8,1.7-11.9,4.9-16.6c2-3,4.7-5.5,8.1-7c4.3-1.9,10.2-2.7,11.6-7.2c1-3-0.6-6.2-0.1-9.3
			c0.7-4.7,6.1-7.5,10.8-7c4.7,0.4,8.9,3.2,12.8,5.8C296.4,390.4,297.7,394,298.8,397.7z"/>
	</g>
	<g class="st1">
		<path class="st2" d="M98.5,165c3.7-1.2,7.7,0.2,11.1,2.2c3.3,2,6.3,4.6,9.8,6.3c9,4.2,19.6,1.3,28.5-3.2
			c8.9-4.4,17.2-10.3,26.9-12.2c-1.5-1.5-3.7-2.2-5.2-3.7c-2-1.9-4.1-3.8-6.7-4.9c-4.8-1.9-10.1-0.3-15.2-0.2
			c-5.4,0.1-10.9-1.5-15.4-4.6C119.2,147.3,107.5,155.4,98.5,165z"/>
	</g>
	<path class="st7" d="M221.9,218.7c4-17-6.5-34-23.5-38.1c-17-4-34,6.5-38.1,23.5c-4,17,6.5,34,23.5,38.1
		C200.9,246.2,217.9,235.7,221.9,218.7z"/>
	<g class="st1">
		<path class="st2" d="M240,225.9c0,17.5-14.2,31.6-31.6,31.6c-11.9,0-22.2-6.6-27.6-16.2c3.3,1.2,6.8,1.8,10.4,1.8
			c17.5,0,31.6-14.2,31.6-31.6c0-5.6-1.5-10.8-4-15.4C231.2,200.3,240,212,240,225.9z"/>
	</g>
	<g class="st4">
		<path class="st5" d="M169.2,216.1c0,10.6,5.2,19.9,13.1,25.7c-13.2-3.8-22.8-16-22.8-30.4c0-17.5,14.2-31.6,31.6-31.6
			c6.9,0,13.3,2.2,18.5,6c-2.8-0.8-5.8-1.3-8.8-1.3C183.4,184.5,169.2,198.6,169.2,216.1L169.2,216.1z"/>
	</g>
	<path class="st2" d="M191.2,247c-19.6,0-35.6-16-35.6-35.6s16-35.6,35.6-35.6c19.6,0,35.6,16,35.6,35.6S210.8,247,191.2,247z
		 M191.2,183.8c-15.2,0-27.7,12.4-27.7,27.6c0,15.2,12.4,27.6,27.7,27.6c15.2,0,27.6-12.4,27.6-27.6
		C218.8,196.2,206.4,183.8,191.2,183.8z"/>
	<g class="st1">
		<path class="st2" d="M193.7,220.8c0.6-2.5-1-5-3.4-5.6s-5,1-5.6,3.4c-0.6,2.5,1,5,3.4,5.6S193.1,223.3,193.7,220.8z"/>
	</g>
	<g class="st1">
		<path class="st2" d="M202,213.2c3.8,0,6.9-3.1,6.9-6.9c0-3.8-3.1-6.9-6.9-6.9c-3.8,0-6.9,3.1-6.9,6.9
			C195.2,210.1,198.2,213.2,202,213.2z"/>
	</g>
	<path class="st7" d="M274.6,311.8c17.5,0,31.6-14.2,31.6-31.6s-14.2-31.6-31.6-31.6c-17.5,0-31.6,14.2-31.6,31.6
		S257.1,311.8,274.6,311.8z"/>
	<g class="st4">
		<path class="st5" d="M252.6,284.9c0,10.6,5.2,19.9,13.1,25.7c-13.2-3.8-22.8-16-22.8-30.4c0-17.5,14.2-31.6,31.6-31.6
			c6.9,0,13.3,2.2,18.5,6c-2.8-0.8-5.8-1.3-8.8-1.3C266.8,253.3,252.6,267.4,252.6,284.9L252.6,284.9z"/>
	</g>
	<path class="st2" d="M274.6,315.8c-19.6,0-35.6-16-35.6-35.6c0-19.6,16-35.6,35.6-35.6c19.6,0,35.6,16,35.6,35.6
		C310.2,299.8,294.2,315.8,274.6,315.8z M274.6,252.6c-15.2,0-27.6,12.4-27.6,27.6s12.4,27.6,27.6,27.6c15.2,0,27.6-12.4,27.6-27.6
		S289.8,252.6,274.6,252.6z"/>
	<g class="st1">
		<path class="st2" d="M272.6,293.2c2.6,0,4.6-2.1,4.6-4.6c0-2.6-2.1-4.6-4.6-4.6c-2.6,0-4.6,2.1-4.6,4.6
			C268,291.1,270.1,293.2,272.6,293.2z"/>
	</g>
	<g class="st1">
		<path class="st2" d="M285.4,282c3.8,0,6.9-3.1,6.9-6.9c0-3.8-3.1-6.9-6.9-6.9c-3.8,0-6.9,3.1-6.9,6.9
			C278.6,278.9,281.6,282,285.4,282z"/>
	</g>
	<path class="st3" d="M194.5,163.9c2.6,0.5,4.4,3.1,5.1,5.7c0.6,2.6,0.4,5.3,0.5,8c0.1,6.1,2.1,12.4,6.4,16.7
		c4.3,4.3,11.2,6.3,16.8,3.9c4.3-1.9,7.3-5.9,10.3-9.6c3-3.7,6.6-7.3,11.3-8"/>
	<path class="st3" d="M194.5,163.9c0.4,0.1,0.7,0.2,1.1,0.4L194.5,163.9z"/>
	<g class="st4">
		<path class="st5" d="M230.6,192.3c-2.1,2.4-4.4,4.6-7.3,5.9c-5.6,2.4-12.5,0.5-16.8-3.9c-4.3-4.3-6.3-10.6-6.5-16.7
			c-0.1-2.7,0.2-5.4-0.5-8c-0.5-2.2-1.9-4.4-4-5.3l8.6,2.9c2,0.6,3.3,2.5,3.3,4.5c0,0,0,0,0,0c0.1,6.1,2.1,12.4,6.4,16.7
			C218.3,192.6,225,194.6,230.6,192.3L230.6,192.3z"/>
	</g>
	<path class="st2" d="M194.7,162.9c1-0.1,2.1,0.2,3.1,0.7c1,0.5,1.8,1.2,2.5,2c0.7,0.8,1.3,1.7,1.7,2.7c0.4,1,0.7,2,0.9,3
		c0.4,1.9,0.5,3.8,0.7,5.4c0.2,1.6,0.4,3,0.7,4.4c0.6,2.8,1.8,5.5,3.3,7.6c1.5,2.2,3.4,3.8,5.6,5c2.3,1.1,4.8,1.6,7.1,1.2
		c2.2-0.4,4.5-1.8,6.7-3.9c1.1-1,2.3-2.2,3.5-3.4c1.2-1.2,2.5-2.5,3.9-3.7c1.4-1.2,3-2.2,4.7-3c1.7-0.8,3.7-1.3,5.5-1.2
		c0.6,0,1,0.5,1,1c0,0.4-0.3,0.8-0.7,0.9l0,0c-2.9,1.1-5.1,3.3-7,5.8c-0.9,1.3-1.8,2.6-2.8,4c-0.9,1.4-1.9,2.9-3.1,4.3
		c-1.2,1.4-2.5,2.9-4.1,4.2c-1.6,1.3-3.6,2.4-5.8,3c-4.3,1.2-8.8,0.7-12.7-1c-2-0.8-3.8-2-5.4-3.4c-1.6-1.4-2.9-3-4-4.8
		c-2.2-3.5-3.3-7.4-3.8-11.2c-0.2-1.9-0.3-3.9-0.1-5.7c0.1-1.8,0.4-3.4,0.5-4.8c0.1-1.4,0.1-2.6-0.3-3.9c-0.4-1.3-1-2.4-2.2-3.2
		l-0.1-0.1c-0.5-0.3-0.6-1-0.3-1.4C194.1,163.1,194.4,162.9,194.7,162.9L194.7,162.9z"/>
	<path class="st3" d="M266.4,233.2c2.7-0.3,5.2,1.7,6.5,4c1.4,2.3,1.9,5,2.8,7.5c1.9,5.8,5.7,11.2,11.1,14.1
		c5.4,2.9,12.6,2.7,17.2-1.2c3.6-3.1,5.2-7.8,7-12.2c1.8-4.4,4.2-9,8.5-11"/>
	<path class="st3" d="M235.7,270.5l-1.1,0C234.9,270.4,235.3,270.4,235.7,270.5z"/>
	<g class="st4">
		<path class="st5" d="M305.2,256.4c-0.4,0.4-0.8,0.8-1.3,1.2c-4.7,4-11.8,4.1-17.2,1.2c-5.4-2.9-9.1-8.3-11.1-14.1
			c-0.9-2.5-1.4-5.2-2.8-7.6c-1.2-2-3.1-3.7-5.4-3.9l7,0.2c4.3,0.1,8,2.9,9.4,7c0,0,0,0,0,0.1c1.9,5.8,5.7,11.2,11.1,14.1
			C298,256.2,301.8,256.9,305.2,256.4z"/>
	</g>
	<path class="st2" d="M266.3,232.2c1-0.4,2.1-0.4,3.2-0.2c1.1,0.2,2.1,0.6,3,1.2c0.9,0.6,1.7,1.3,2.5,2.1c0.7,0.8,1.3,1.7,1.8,2.6
		c1,1.7,1.6,3.4,2.2,4.9c0.6,1.4,1.2,2.7,2,4c1.4,2.5,3.3,4.7,5.4,6.4c2.1,1.6,4.3,2.7,6.8,3.1c2.5,0.4,5.1,0.2,7.1-1
		c2-1,3.8-3,5.3-5.7c0.8-1.3,1.5-2.8,2.3-4.3c0.8-1.5,1.6-3.1,2.7-4.7c1-1.5,2.2-3,3.6-4.3c1.4-1.3,3.1-2.3,4.9-2.8
		c0.5-0.1,1.1,0.2,1.2,0.7c0.1,0.4,0,0.8-0.4,1.1l0,0c-2.5,1.9-3.9,4.6-5,7.6c-0.5,1.5-1,3-1.5,4.6c-0.5,1.6-1,3.3-1.7,5
		c-0.7,1.7-1.5,3.5-2.7,5.2c-1.2,1.7-2.8,3.3-4.7,4.5c-3.8,2.4-8.2,3.3-12.4,2.8c-2.1-0.2-4.2-0.8-6.2-1.7c-2-0.9-3.7-2-5.3-3.4
		c-3.1-2.7-5.4-6.1-6.9-9.6c-0.8-1.8-1.4-3.6-1.8-5.4c-0.4-1.8-0.6-3.3-0.9-4.7c-0.3-1.4-0.7-2.5-1.4-3.6c-0.7-1.1-1.7-2-3-2.4
		l-0.1,0c-0.5-0.2-0.8-0.7-0.7-1.3C265.7,232.6,266,232.4,266.3,232.2L266.3,232.2z"/>
	<g class="st1">
		<path class="st2" d="M298.7,173.4c-6.9,9-0.1,14.3,9.3,19.6c3.6,2,4.4,6.8,1.7,9.9c-2.7,3-6.2,6.7-9.5,9.6
			c-7.1,6.4,4.5,12.2,4.5,12.2l1.8,1.1c0,0,10.5,7.7,12.9-1.5c1.1-4.3,2.8-9.1,4.3-13c1.5-3.9,6.2-5.3,9.6-3
			c9.8,6.8,19.1,11.9,23.4,0.6c3.5-9.1-1.1-27.3-17.1-37.2C323.6,162,305.8,164.1,298.7,173.4L298.7,173.4z"/>
	</g>
	<path class="st8" d="M287.7,161.1c-6.9,9-0.1,14.3,9.3,19.6c3.6,2,4.4,6.8,1.7,9.9c-2.7,3-6.2,6.7-9.5,9.6
		c-7.1,6.4,4.5,12.2,4.5,12.2l1.8,1.1c0,0,10.5,7.7,12.9-1.5c1.1-4.3,2.8-9.1,4.3-13c1.5-3.9,6.2-5.3,9.6-3
		c9.8,6.8,19.1,11.9,23.4,0.6c3.5-9.1-1.1-27.3-17.1-37.2C312.6,149.7,294.8,151.8,287.7,161.1L287.7,161.1z"/>
	<g class="st1">
		<path class="st2" d="M285.8,201.9c-2.3,5.3,6.4,9.7,6.4,9.7l1.8,1.1c0,0,10.5,7.7,12.9-1.5c1.1-4.4,2.8-9.1,4.3-13
			c1.5-3.9,6.2-5.3,9.6-3c9.8,6.8,19,11.9,23.4,0.6c2.2-5.8,1.2-15.1-3.9-23.7c1.9,6.1,1.9,11.9,0.4,16c-4.3,11.3-13.6,6.2-23.4-0.6
			c-3.4-2.4-8.1-0.9-9.6,3c-1.5,3.8-3.2,8.6-4.3,13c-2.4,9.3-12.9,1.5-12.9,1.5l-1.8-1.1C288.7,203.8,287.3,203.1,285.8,201.9z"/>
	</g>
	<g class="st4">
		<path class="st9" d="M288.2,174.6c0.3-1.7,1.2-3.5,2.7-5.5c7.1-9.4,24.9-11.4,40.9-1.6c6.5,4,11.1,9.4,14.1,14.9
			c-2.1-8.2-7.6-17.1-17.2-23c-16-9.8-33.7-7.7-40.9,1.6C283.4,166.8,284.4,171,288.2,174.6z"/>
	</g>
	<path class="st2" d="M303.2,220.1c-4.3,0-8.5-2.8-9.7-3.6l-1.5-1c-1.6-0.8-7.8-4.3-8.5-9.9c-0.3-2,0.1-5,3.4-8
		c2.7-2.4,5.9-5.6,9.2-9.4c0.6-0.7,0.9-1.6,0.7-2.4c-0.1-0.5-0.4-1.5-1.5-2.1c-6-3.3-12.4-7.3-13.7-13.5c-0.8-3.6,0.4-7.4,3.3-11.2
		c8.8-11.6,28.8-12.7,45.5-2.5c18.2,11.1,22.5,31.2,18.6,41.4c-1.7,4.5-4.4,7.3-7.9,8.4c-6.4,2-13.8-2.6-20.8-7.4
		c-0.7-0.5-1.7-0.7-2.5-0.4c-0.9,0.3-1.5,0.9-1.9,1.7c-1.8,4.8-3.3,9.1-4.2,12.6c-1.1,4.3-3.7,6-5.6,6.7
		C305.2,219.9,304.2,220.1,303.2,220.1L303.2,220.1z M290.5,163.2c-2.5,3.3-2.1,5-2,5.6c0.7,3.1,5.6,6.2,10.3,8.8c2.7,1.5,4.5,4,5,7
		c0.5,3-0.4,6-2.4,8.3c-3.6,4-6.9,7.3-9.8,9.9c-0.6,0.5-1.2,1.2-1.1,1.9c0.2,1.4,3,3.7,4.9,4.6c0.1,0,0.2,0.1,0.3,0.1l1.8,1.1
		c0.1,0,0.2,0.1,0.2,0.2c1.7,1.2,4.9,2.7,6.3,2.3c0.6-0.2,0.9-1.1,1.1-1.9c1-3.8,2.5-8.3,4.4-13.3c1.1-2.8,3.4-5,6.3-5.9
		c2.9-0.9,6-0.4,8.6,1.3c3.6,2.5,11,7.6,14.7,6.4c1.3-0.4,2.5-1.8,3.4-4.2c3-7.9-1.5-24.2-15.7-32.9
		C311.8,153.3,296.2,155.7,290.5,163.2L290.5,163.2z"/>
	<g class="st1">
		<path class="st2" d="M221.8,335.4c-9.2,6.6-4.3,13.7,3.2,21.4c2.9,3,2.2,7.8-1.3,10c-3.5,2.1-7.9,4.6-11.9,6.4
			c-8.7,4,0.7,13,0.7,13l1.4,1.6c0,0,7.7,10.5,12.8,2.3c2.4-3.8,5.4-7.9,8-11.1c2.6-3.3,7.5-3.3,10.1,0c7.4,9.4,14.7,16.9,22.2,7.4
			c6-7.7,7-26.5-5.4-40.5C249,331.8,231.4,328.6,221.8,335.4L221.8,335.4z"/>
	</g>
	<path class="st8" d="M215.4,327.6c-9.2,6.6-4.3,13.7,3.2,21.4c2.9,3,2.2,7.8-1.3,10c-3.5,2.1-7.9,4.6-11.9,6.4
		c-8.7,4,0.7,13,0.7,13l1.4,1.6c0,0,7.7,10.5,12.8,2.3c2.4-3.8,5.4-7.9,8-11.1c2.6-3.3,7.5-3.3,10.1,0c7.4,9.4,14.7,16.9,22.2,7.4
		c6-7.7,7-26.5-5.4-40.5C242.5,324,224.9,320.8,215.4,327.6L215.4,327.6z"/>
	<g class="st1">
		<path class="st2" d="M201.5,366c-3.8,4.4,3.3,11.1,3.3,11.1l1.4,1.6c0,0,7.7,10.5,12.8,2.3c2.4-3.8,5.4-7.9,7.9-11.1
			c2.6-3.3,7.5-3.3,10.1,0c7.4,9.4,14.7,16.9,22.2,7.4c3.8-4.9,5.6-14.1,3.3-23.8c0,6.4-1.6,12-4.3,15.4c-7.4,9.5-14.8,2-22.2-7.4
			c-2.6-3.3-7.5-3.3-10.1,0c-2.5,3.2-5.6,7.3-8,11.1c-5,8.1-12.8-2.3-12.8-2.3l-1.4-1.6C203.8,368.7,202.7,367.6,201.5,366z"/>
	</g>
	<g class="st4">
		<path class="st9" d="M211.8,340.7c0.8-1.5,2.1-3,4.2-4.4c9.6-6.8,27.1-3.6,39.5,10.5c5.1,5.7,7.9,12.2,9.1,18.4
			c0.4-8.4-2.2-18.6-9.7-27c-12.4-14.1-30-17.3-39.5-10.5C209.5,331.8,209.3,336.1,211.8,340.7z"/>
	</g>
	<path class="st2" d="M215.5,388.9c-5.4,0-9.8-5.3-10.9-6.7l-1.2-1.4c-1.3-1.3-6.2-6.4-5.3-11.9c0.3-2,1.6-4.8,5.6-6.6
		c3.2-1.5,7.3-3.7,11.6-6.2c0.8-0.5,1.3-1.2,1.4-2.1c0.1-0.5,0.1-1.5-0.8-2.4c-4.7-4.9-9.7-10.6-9.1-16.9c0.3-3.7,2.5-6.9,6.5-9.8
		c11.9-8.5,31.3-3.7,44.2,11c14.1,16,12.3,36.4,5.6,45c-3,3.8-6.3,5.7-10,5.7h0c-6.7,0-12.4-6.5-17.7-13.1c-0.6-0.7-1.4-1.1-2.3-1.1
		c-0.9,0-1.7,0.4-2.3,1.1c-3.2,4-5.8,7.8-7.7,10.8c-2.3,3.8-5.2,4.7-7.3,4.7C215.7,388.9,215.6,388.9,215.5,388.9L215.5,388.9z
		 M227.3,327.6c-3.9,0-7.3,1-9.9,2.8c-3.4,2.4-3.5,4.2-3.6,4.7c-0.3,3.2,3.5,7.6,7.2,11.4c2.1,2.2,3.1,5.2,2.7,8.2
		c-0.4,3-2.1,5.6-4.7,7.2c-4.6,2.8-8.7,5-12.3,6.6c-0.7,0.3-1.5,0.8-1.6,1.4c-0.2,1.4,1.8,4.4,3.3,5.8c0.1,0.1,0.1,0.1,0.2,0.2
		l1.4,1.6c0.1,0.1,0.1,0.2,0.2,0.2c1.3,1.7,3.9,4.1,5.4,4c0.6,0,1.2-0.8,1.6-1.5c2.1-3.3,4.8-7.2,8.2-11.5c1.9-2.4,4.7-3.8,7.8-3.8
		c3.1,0,5.9,1.4,7.8,3.8c2.7,3.4,8.2,10.5,12.2,10.5c1.4,0,2.9-1,4.5-3c5.2-6.6,5.7-23.6-5.3-36.1
		C244.5,331.6,235,327.6,227.3,327.6L227.3,327.6z"/>
	<g class="st1">
		<path class="st2" d="M200.4,308.7c2,0,3.7-2.4,3.7-5.4s-1.6-5.4-3.7-5.4c-2,0-3.7,2.4-3.7,5.4S198.4,308.7,200.4,308.7z"/>
	</g>
	<g class="st1">
		<path class="st2" d="M302.5,354.8c2,0,3.7-2.4,3.7-5.4c0-3-1.6-5.4-3.7-5.4c-2,0-3.7,2.4-3.7,5.4
			C298.8,352.4,300.5,354.8,302.5,354.8z"/>
	</g>
	<g class="st1">
		<path class="st2" d="M262.5,203.8c2,0,3.7-2.4,3.7-5.4s-1.6-5.4-3.7-5.4s-3.7,2.4-3.7,5.4S260.4,203.8,262.5,203.8z"/>
	</g>
	<g class="st1">
		<path class="st2" d="M137.6,199.3c2,0,3.7-2.4,3.7-5.4c0-3-1.6-5.4-3.7-5.4s-3.7,2.4-3.7,5.4C133.9,196.8,135.6,199.3,137.6,199.3
			z"/>
	</g>
	<g class="st1">
		<path class="st2" d="M215.3,296.5c1.1,0,1.9-1.3,1.9-2.9c0-1.6-0.9-2.9-1.9-2.9c-1.1,0-1.9,1.3-1.9,2.9
			C213.4,295.2,214.2,296.5,215.3,296.5z"/>
	</g>
	<g class="st1">
		<path class="st2" d="M141.3,214.3c1.1,0,1.9-1.3,1.9-2.9s-0.9-2.9-1.9-2.9c-1.1,0-1.9,1.3-1.9,2.9S140.2,214.3,141.3,214.3z"/>
	</g>
	<g class="st1">
		<path class="st2" d="M253.7,177.3c1.1,0,1.9-1.3,1.9-2.9s-0.9-2.9-1.9-2.9c-1.1,0-1.9,1.3-1.9,2.9S252.6,177.3,253.7,177.3z"/>
	</g>
	<g class="st1">
		<path class="st2" d="M292.3,343.2c1.1,0,1.9-1.3,1.9-2.9c0-1.6-0.9-2.9-1.9-2.9c-1.1,0-1.9,1.3-1.9,2.9
			C290.4,341.9,291.2,343.2,292.3,343.2z"/>
	</g>
	<g class="st1">
		<path class="st2" d="M203.4,287.9c1.8,0,3.3-2.2,3.3-4.9c0-2.7-1.5-4.9-3.3-4.9c-1.8,0-3.3,2.2-3.3,4.9
			C200.2,285.8,201.6,287.9,203.4,287.9z"/>
	</g>
	<path class="st10" d="M171.8,255.9c6.6,9.2,15.9,15.1,28.1,17.2l-7.3,12c-11.7-1.9-21.1-7.6-28.1-17.2L171.8,255.9z"/>
	<g class="st4">
		<path class="st9" d="M164.4,268l7.3-12c1.2,1.6,2.5,3.2,3.8,4.6L171,268c5.8,7.9,13.3,13.2,22.3,15.8l-0.8,1.3
			C180.9,283.2,171.5,277.5,164.4,268L164.4,268z"/>
	</g>
	<path class="st2" d="M192.6,288.1c-0.2,0-0.3,0-0.5,0c-12.5-2-22.6-8.2-30.1-18.3c-0.7-1-0.8-2.3-0.1-3.3l7.3-12
		c0.5-0.9,1.4-1.4,2.4-1.4c1,0,2,0.4,2.5,1.2c6.4,8.8,15,14,26.2,16c1,0.2,1.8,0.8,2.2,1.7c0.4,0.9,0.4,1.9-0.2,2.8l-7.3,12
		C194.6,287.6,193.6,288.1,192.6,288.1z M168.1,267.8c6,7.5,13.6,12.1,23,14l4.1-6.7c-9.2-2.4-17-7-23-14L168.1,267.8L168.1,267.8z"
		/>
	<path class="st10" d="M230.8,135.3c10.9,3.1,21.8,2,32.7-3.9l1.7,14c-10.4,5.8-21.3,7.1-32.7,3.9L230.8,135.3z"/>
	<g class="st4">
		<path class="st9" d="M232.5,149.3l-1.7-14c1.9,0.6,3.9,1,5.8,1.3l1,8.7c9.5,2.6,18.6,2.2,27.3-1.3l0.2,1.5
			C254.8,151.1,243.9,152.4,232.5,149.3z"/>
	</g>
	<path class="st2" d="M244.4,153.9c-4.2,0-8.4-0.6-12.7-1.8c-1.2-0.3-2-1.3-2.2-2.5l-1.7-14c-0.1-1,0.3-2,1-2.6
		c0.8-0.6,1.8-0.9,2.8-0.6c10.5,3,20.4,1.8,30.5-3.7c0.9-0.5,1.9-0.5,2.8,0c0.9,0.5,1.5,1.3,1.6,2.3l1.7,14c0.1,1.2-0.5,2.4-1.5,3
		C259.5,152,252.1,154,244.4,153.9L244.4,153.9z M235.2,146.9c9.4,2.2,18.2,1.1,26.8-3.2l-0.9-7.8c-8.7,3.9-17.7,5-26.8,3.2
		L235.2,146.9L235.2,146.9z"/>
	<path class="st10" d="M288.3,321.5c11.3-0.5,21.3-5,29.8-14l6,12.7c-8,8.7-18,13.4-29.8,14L288.3,321.5z"/>
	<g class="st4">
		<path class="st9" d="M294.3,334.3l-6-12.7c2-0.1,4-0.3,5.9-0.7l3.7,7.9c9.8-0.5,18.3-3.8,25.5-9.9l0.7,1.4
			C316,329,306.1,333.7,294.3,334.3z"/>
	</g>
	<path class="st2" d="M294.3,337.3c-1.2,0-2.2-0.7-2.7-1.7l-6-12.8c-0.4-0.9-0.4-2,0.1-2.8c0.5-0.9,1.4-1.4,2.4-1.4
		c10.9-0.5,20-4.8,27.7-13.1c0.7-0.7,1.7-1.1,2.7-0.9c1,0.2,1.8,0.8,2.2,1.7l6,12.7c0.5,1.1,0.3,2.4-0.5,3.3
		c-8.5,9.3-19.2,14.4-31.9,15C294.4,337.3,294.3,337.3,294.3,337.3L294.3,337.3z M292.8,324.1l3.3,7c9.6-0.9,17.6-4.7,24.4-11.5
		l-3.3-7.1C310.1,319,301.9,322.9,292.8,324.1L292.8,324.1z"/>
	<g class="st11">
		<path class="st5" d="M298.7,88.8c6.6,3.6,14.6,3.8,22,3c3.8-0.4,8.1-1.5,9.7-4.9c1.5-3.1,0-7-2.5-9.3c-2.6-2.3-6-3.3-9.3-4.1
			c-4.9-1.2-9.9-2.1-14.9-2.7c-2.6-0.3-5.2-0.5-7.8-0.7c-1.5-0.1-5.6-0.9-6.9,0c-2.5,1.8,0.1,8.1,1.2,10.2
			C292,83.8,295.1,86.8,298.7,88.8L298.7,88.8z"/>
	</g>
	<g class="st11">
		<path class="st5" d="M339.3,81.3c-0.7,2.2,0.8,4.5,2.5,6.1c2.5,2.4,5.6,4.2,8.9,5.2c1.5,0.5,3.1,0.7,4.5,0c1.2-0.7,1.9-2,2.2-3.4
			c1-4.7-2.5-9-6.8-10.6C347.3,77.5,340.6,77.3,339.3,81.3L339.3,81.3z"/>
	</g>
	<path class="st3" d="M350.6,247c0,0-47.3,52.1-100.5,54.1c-53.3,2.1-109.6-49.8-109.6-49.8s66-28.5,105.1-28.8
		C294.8,222.3,350.6,247,350.6,247z"/>
	<path class="st2" d="M247.4,296.7c-57.1,0.4-106.9-45.3-106.9-45.3s58,60.7,106.3,60.7c53,0,103.8-65,103.8-65
		S301.6,296.2,247.4,296.7L247.4,296.7z"/>
</g>
</svg>
