<svg width="324" height="55" viewBox="0 0 324 55" fill="none" xmlns="http://www.w3.org/2000/svg">
<path d="M3.33692 19.275C2.96959 19.275 2.65059 19.1783 2.37992 18.985C2.12859 18.7723 1.90625 18.5113 1.71292 18.202C1.51959 17.8926 1.36492 17.5736 1.24892 17.245C1.15225 16.897 1.08459 16.578 1.04592 16.288L0.900919 7.47197C0.900919 6.40863 0.891252 5.45163 0.871919 4.60097C0.852585 3.7503 0.929919 3.01563 1.10392 2.39697C1.29725 1.75897 1.63559 1.2563 2.11892 0.888966C2.62159 0.521633 3.38525 0.2993 4.40992 0.221966C4.83525 0.202633 5.23159 0.192967 5.59892 0.192967C5.96625 0.173634 6.32392 0.173634 6.67192 0.192967C7.01992 0.192967 7.37759 0.221967 7.74492 0.279967C8.11225 0.337966 8.51825 0.405633 8.96292 0.482966C9.54292 0.598966 10.0746 0.830966 10.5579 1.17897C11.0413 1.50763 11.4569 1.9233 11.8049 2.42597C12.1529 2.9093 12.4236 3.46997 12.6169 4.10797C12.8103 4.72663 12.9069 5.39363 12.9069 6.10897C12.9069 8.31297 12.2883 9.9273 11.0509 10.952C9.83292 11.9573 8.14125 12.431 5.97592 12.373L5.94692 15.737C5.94692 16.1816 5.90825 16.5876 5.83092 16.955C5.75359 17.303 5.61825 17.6896 5.42492 18.115V18.144C5.19292 18.4726 4.88359 18.7433 4.49692 18.956C4.12959 19.1686 3.74292 19.275 3.33692 19.275ZM6.06292 7.93597C6.85559 7.93597 7.41625 7.7523 7.74492 7.38497C8.09292 6.9983 8.24759 6.58263 8.20892 6.13797C8.17025 5.6933 7.95759 5.29697 7.57092 4.94897C7.20359 4.60097 6.70092 4.45597 6.06292 4.51397V7.93597Z" fill="#FE6A13"/>
<path d="M18.0415 4.39797C17.1908 4.45597 16.5238 4.3013 16.0405 3.93397C15.5765 3.56663 15.3058 3.15097 15.2285 2.68697C15.1705 2.20363 15.3252 1.7493 15.6925 1.32397C16.0598 0.898633 16.6592 0.6473 17.4905 0.569967C18.1672 0.511967 18.6795 0.656966 19.0275 1.00497C19.3755 1.33363 19.5688 1.72997 19.6075 2.19397C19.6462 2.65797 19.5302 3.1123 19.2595 3.55697C18.9888 3.9823 18.5828 4.26263 18.0415 4.39797ZM17.2585 5.93497C17.8578 5.8383 18.3218 5.94463 18.6505 6.25397C18.9792 6.5633 19.2112 7.00797 19.3465 7.58797C19.5012 8.16797 19.5785 8.8543 19.5785 9.64697C19.5978 10.4396 19.5882 11.2806 19.5495 12.17C19.5108 13.04 19.4722 13.9293 19.4335 14.838C19.4142 15.7273 19.4432 16.5586 19.5205 17.332C19.5592 17.8153 19.4142 18.2696 19.0855 18.695C18.7568 19.1203 18.2832 19.3813 17.6645 19.478C17.3165 19.536 16.9878 19.507 16.6785 19.391C16.3692 19.275 16.1082 19.1203 15.8955 18.927C15.6828 18.7143 15.5088 18.4823 15.3735 18.231C15.2575 17.9603 15.2188 17.709 15.2575 17.477C15.1802 16.781 15.1318 16.0463 15.1125 15.273C15.1125 14.4803 15.1125 13.6876 15.1125 12.895C15.1318 12.083 15.1512 11.2903 15.1705 10.517C15.1898 9.7243 15.1898 8.9703 15.1705 8.25497C15.1898 8.02297 15.2382 7.77163 15.3155 7.50097C15.4122 7.2303 15.5378 6.97897 15.6925 6.74697C15.8665 6.51497 16.0792 6.32163 16.3305 6.16697C16.6012 6.0123 16.9105 5.93497 17.2585 5.93497Z" fill="#FE6A13"/>
<path d="M23.0519 7.26897C24.1926 7.1143 25.3719 7.03697 26.5899 7.03697C27.8079 7.01763 28.9969 7.01763 30.1569 7.03697C30.3889 7.01763 30.6209 7.03697 30.8529 7.09497C31.1043 7.15297 31.3363 7.24963 31.5489 7.38497C31.7616 7.50097 31.9453 7.65563 32.0999 7.84897C32.2546 8.0423 32.3609 8.25497 32.4189 8.48697C32.5156 9.22163 32.4673 9.8693 32.2739 10.43C32.0806 10.9713 31.7906 11.4933 31.4039 11.996C31.0173 12.4986 30.5436 13.0206 29.9829 13.562C29.4416 14.084 28.8616 14.7026 28.2429 15.418C28.5716 15.3793 28.9293 15.36 29.3159 15.36C29.7219 15.3406 30.1183 15.36 30.5049 15.418C30.8916 15.4566 31.2589 15.534 31.6069 15.65C31.9549 15.766 32.2256 15.9303 32.4189 16.143C32.6316 16.3556 32.7573 16.636 32.7959 16.984C32.8346 17.332 32.7476 17.7476 32.5349 18.231C32.4189 18.5016 32.2643 18.7143 32.0709 18.869C31.8969 19.0043 31.6939 19.1106 31.4619 19.188C31.2299 19.2653 30.9689 19.3233 30.6789 19.362C30.3889 19.3813 30.0796 19.42 29.7509 19.478C29.0743 19.5166 28.4556 19.5456 27.8949 19.565C27.3343 19.5843 26.7929 19.594 26.2709 19.594C25.7683 19.5746 25.2656 19.536 24.7629 19.478C24.2603 19.42 23.7479 19.3233 23.2259 19.188C23.0133 19.0526 22.8103 18.8496 22.6169 18.579C22.4236 18.3083 22.2786 18.028 22.1819 17.738C22.0853 17.4286 22.0466 17.129 22.0659 16.839C22.1046 16.5296 22.2303 16.2686 22.4429 16.056C23.0809 15.2633 23.7576 14.4803 24.4729 13.707C25.2076 12.9336 25.8939 12.141 26.5319 11.329C26.2033 11.329 25.8746 11.3386 25.5459 11.358C25.2173 11.358 24.8789 11.358 24.5309 11.358C24.2023 11.3386 23.8833 11.2903 23.5739 11.213C23.2646 11.1356 22.9746 11.0003 22.7039 10.807C22.4333 10.575 22.2496 10.3043 22.1529 9.99497C22.0563 9.6663 22.0273 9.33763 22.0659 9.00897C22.1046 8.66097 22.2109 8.3323 22.3849 8.02297C22.5589 7.71363 22.7813 7.4623 23.0519 7.26897Z" fill="#FE6A13"/>
<path d="M35.7032 7.26897C36.8439 7.1143 38.0232 7.03697 39.2412 7.03697C40.4592 7.01763 41.6482 7.01763 42.8082 7.03697C43.0402 7.01763 43.2722 7.03697 43.5042 7.09497C43.7555 7.15297 43.9875 7.24963 44.2002 7.38497C44.4129 7.50097 44.5965 7.65563 44.7512 7.84897C44.9059 8.0423 45.0122 8.25497 45.0702 8.48697C45.1669 9.22163 45.1185 9.8693 44.9252 10.43C44.7319 10.9713 44.4419 11.4933 44.0552 11.996C43.6685 12.4986 43.1949 13.0206 42.6342 13.562C42.0929 14.084 41.5129 14.7026 40.8942 15.418C41.2229 15.3793 41.5805 15.36 41.9672 15.36C42.3732 15.3406 42.7695 15.36 43.1562 15.418C43.5429 15.4566 43.9102 15.534 44.2582 15.65C44.6062 15.766 44.8769 15.9303 45.0702 16.143C45.2829 16.3556 45.4085 16.636 45.4472 16.984C45.4859 17.332 45.3989 17.7476 45.1862 18.231C45.0702 18.5016 44.9155 18.7143 44.7222 18.869C44.5482 19.0043 44.3452 19.1106 44.1132 19.188C43.8812 19.2653 43.6202 19.3233 43.3302 19.362C43.0402 19.3813 42.7309 19.42 42.4022 19.478C41.7255 19.5166 41.1069 19.5456 40.5462 19.565C39.9855 19.5843 39.4442 19.594 38.9222 19.594C38.4195 19.5746 37.9169 19.536 37.4142 19.478C36.9115 19.42 36.3992 19.3233 35.8772 19.188C35.6645 19.0526 35.4615 18.8496 35.2682 18.579C35.0749 18.3083 34.9298 18.028 34.8332 17.738C34.7365 17.4286 34.6979 17.129 34.7172 16.839C34.7559 16.5296 34.8815 16.2686 35.0942 16.056C35.7322 15.2633 36.4089 14.4803 37.1242 13.707C37.8589 12.9336 38.5452 12.141 39.1832 11.329C38.8545 11.329 38.5259 11.3386 38.1972 11.358C37.8685 11.358 37.5302 11.358 37.1822 11.358C36.8535 11.3386 36.5345 11.2903 36.2252 11.213C35.9159 11.1356 35.6259 11.0003 35.3552 10.807C35.0845 10.575 34.9009 10.3043 34.8042 9.99497C34.7075 9.6663 34.6785 9.33763 34.7172 9.00897C34.7559 8.66097 34.8622 8.3323 35.0362 8.02297C35.2102 7.71363 35.4325 7.4623 35.7032 7.26897Z" fill="#FE6A13"/>
<path d="M58.8234 17.941C58.9394 18.5016 58.8331 18.9366 58.5044 19.246C58.1758 19.536 57.7214 19.6906 57.1414 19.71C56.6388 19.71 56.2134 19.6326 55.8654 19.478C55.5174 19.304 55.1501 19.0913 54.7634 18.84C54.3381 18.8786 53.8838 18.9463 53.4004 19.043C52.9171 19.1396 52.4241 19.217 51.9214 19.275C51.4381 19.3136 50.9548 19.3136 50.4714 19.275C49.9881 19.2363 49.5338 19.101 49.1084 18.869C48.5671 18.579 48.1321 18.115 47.8034 17.477C47.4941 16.8196 47.3104 16.1333 47.2524 15.418C47.2138 14.7026 47.3201 14.0163 47.5714 13.359C47.8228 12.7016 48.2384 12.2086 48.8184 11.88C49.1084 11.7253 49.3694 11.5996 49.6014 11.503C49.8528 11.387 50.1138 11.3 50.3844 11.242C50.6744 11.184 50.9934 11.1356 51.3414 11.097C51.6894 11.0583 52.1148 11.0293 52.6174 11.01C53.0814 10.5266 53.0138 10.1883 52.4144 9.99497C51.8344 9.7823 50.7711 9.8693 49.2244 10.256C48.6638 10.1593 48.2868 9.90797 48.0934 9.50197C47.9001 9.09597 47.8518 8.66097 47.9484 8.19697C48.0451 7.73297 48.2674 7.29797 48.6154 6.89197C48.9634 6.46663 49.3888 6.19597 49.8914 6.07997C51.5541 5.78997 53.0234 5.78997 54.2994 6.07997C55.5754 6.36997 56.5808 6.90163 57.3154 7.67497C58.0694 8.4483 58.5141 9.4343 58.6494 10.633C58.8041 11.8316 58.5818 13.185 57.9824 14.693C57.8084 15.0216 57.7504 15.3213 57.8084 15.592C57.8664 15.8626 57.9631 16.1236 58.0984 16.375C58.2531 16.6263 58.3981 16.8776 58.5334 17.129C58.6881 17.3803 58.7848 17.651 58.8234 17.941ZM52.1824 15.853C52.4144 15.9303 52.6368 15.8916 52.8494 15.737C53.0814 15.5823 53.2458 15.389 53.3424 15.157C53.4391 14.925 53.4391 14.7026 53.3424 14.49C53.2651 14.258 53.0428 14.113 52.6754 14.055C52.2694 13.9776 51.9408 14.0163 51.6894 14.171C51.4574 14.3256 51.3124 14.519 51.2544 14.751C51.2158 14.9636 51.2738 15.186 51.4284 15.418C51.5831 15.65 51.8344 15.795 52.1824 15.853Z" fill="#FE6A13"/>
<path d="M73.8366 19.333C73.2179 19.3716 72.7443 19.188 72.4156 18.782C72.1063 18.3566 71.8839 17.8346 71.7486 17.216C71.6133 16.578 71.5359 15.9013 71.5166 15.186C71.5166 14.4513 71.5166 13.7843 71.5166 13.185V5.09397C71.5166 4.72663 71.5166 4.3303 71.5166 3.90497C71.5359 3.47963 71.5843 3.06397 71.6616 2.65797C71.7583 2.23263 71.8839 1.84597 72.0386 1.49797C72.2126 1.13063 72.4639 0.811634 72.7926 0.540967C73.2566 0.366967 73.6819 0.328301 74.0686 0.424967C74.4746 0.521634 74.8129 0.714967 75.0836 1.00497C75.3736 1.29497 75.5959 1.67197 75.7506 2.13597C75.9053 2.58063 75.9826 3.07363 75.9826 3.61497C75.9826 4.25297 75.9826 4.9393 75.9826 5.67397C75.9826 6.40863 75.9826 7.22063 75.9826 8.10997C75.9826 8.97997 75.9826 9.93697 75.9826 10.981C76.0019 12.025 76.0116 13.1753 76.0116 14.432C76.0116 14.8186 75.9826 15.2826 75.9246 15.824C75.8859 16.3653 75.7893 16.897 75.6346 17.419C75.4993 17.9216 75.2866 18.3663 74.9966 18.753C74.7066 19.1203 74.3199 19.3136 73.8366 19.333Z" fill="#FE6A13"/>
<path d="M81.4881 4.39797C80.6374 4.45597 79.9704 4.3013 79.4871 3.93397C79.0231 3.56663 78.7524 3.15097 78.6751 2.68697C78.6171 2.20363 78.7717 1.7493 79.1391 1.32397C79.5064 0.898633 80.1057 0.6473 80.9371 0.569967C81.6137 0.511967 82.1261 0.656966 82.4741 1.00497C82.8221 1.33363 83.0154 1.72997 83.0541 2.19397C83.0927 2.65797 82.9767 3.1123 82.7061 3.55697C82.4354 3.9823 82.0294 4.26263 81.4881 4.39797ZM80.7051 5.93497C81.3044 5.8383 81.7684 5.94463 82.0971 6.25397C82.4257 6.5633 82.6577 7.00797 82.7931 7.58797C82.9477 8.16797 83.0251 8.8543 83.0251 9.64697C83.0444 10.4396 83.0347 11.2806 82.9961 12.17C82.9574 13.04 82.9187 13.9293 82.8801 14.838C82.8607 15.7273 82.8897 16.5586 82.9671 17.332C83.0057 17.8153 82.8607 18.2696 82.5321 18.695C82.2034 19.1203 81.7297 19.3813 81.1111 19.478C80.7631 19.536 80.4344 19.507 80.1251 19.391C79.8157 19.275 79.5547 19.1203 79.3421 18.927C79.1294 18.7143 78.9554 18.4823 78.8201 18.231C78.7041 17.9603 78.6654 17.709 78.7041 17.477C78.6267 16.781 78.5784 16.0463 78.5591 15.273C78.5591 14.4803 78.5591 13.6876 78.5591 12.895C78.5784 12.083 78.5977 11.2903 78.6171 10.517C78.6364 9.7243 78.6364 8.9703 78.6171 8.25497C78.6364 8.02297 78.6847 7.77163 78.7621 7.50097C78.8587 7.2303 78.9844 6.97897 79.1391 6.74697C79.3131 6.51497 79.5257 6.32163 79.7771 6.16697C80.0477 6.0123 80.3571 5.93497 80.7051 5.93497Z" fill="#FE6A13"/>
<path d="M89.3985 18.289C89.1858 18.7916 88.8862 19.13 88.4995 19.304C88.1322 19.4586 87.7262 19.536 87.2815 19.536C86.8175 19.536 86.4695 19.4393 86.2375 19.246C86.0055 19.0333 85.8315 18.7723 85.7155 18.463C85.6188 18.1536 85.5705 17.8153 85.5705 17.448C85.5705 17.0806 85.5705 16.723 85.5705 16.375C85.5705 15.8723 85.5705 15.2633 85.5705 14.548C85.5898 13.8326 85.6092 13.069 85.6285 12.257C85.6478 11.4256 85.6575 10.575 85.6575 9.70497C85.6768 8.81563 85.6768 7.9553 85.6575 7.12397C85.6382 6.29263 85.6092 5.52897 85.5705 4.83297C85.5512 4.11763 85.5028 3.50863 85.4255 3.00597C85.3868 2.81263 85.3675 2.66763 85.3675 2.57097C85.3675 2.31963 85.3965 2.0683 85.4545 1.81697C85.5318 1.5463 85.6382 1.30463 85.7735 1.09197C85.9282 0.859967 86.1022 0.6763 86.2955 0.540967C86.5082 0.3863 86.7498 0.308967 87.0205 0.308967C87.7165 0.289634 88.2772 0.405633 88.7025 0.656966C89.1278 0.888966 89.4662 1.21763 89.7175 1.64297C89.9688 2.04897 90.1428 2.52263 90.2395 3.06397C90.3362 3.58597 90.3942 4.13697 90.4135 4.71697C90.4522 5.29697 90.4618 5.8673 90.4425 6.42797C90.4232 6.98863 90.4328 7.50097 90.4715 7.96497C91.1868 7.59763 91.9408 7.4333 92.7335 7.47197C93.5262 7.4913 94.2512 7.6943 94.9085 8.08097C95.5852 8.46763 96.1458 9.00897 96.5905 9.70497C97.0545 10.3816 97.3155 11.184 97.3735 12.112C97.4508 13.4266 97.3638 14.6446 97.1125 15.766C96.8805 16.8873 96.4455 17.7766 95.8075 18.434C95.1888 19.0913 94.3478 19.449 93.2845 19.507C92.2212 19.5456 90.9258 19.1396 89.3985 18.289ZM93.3135 13.417C93.3135 12.953 93.1782 12.6146 92.9075 12.402C92.6368 12.1893 92.3275 12.083 91.9795 12.083C91.6508 12.083 91.3512 12.1893 91.0805 12.402C90.8098 12.6146 90.6745 12.924 90.6745 13.33C90.6745 13.8906 90.7808 14.2966 90.9935 14.548C91.2255 14.78 91.5928 14.896 92.0955 14.896C92.5982 14.896 92.9268 14.7606 93.0815 14.49C93.2362 14.2193 93.3135 13.8616 93.3135 13.417Z" fill="#FE6A13"/>
<path d="M103.79 14.606C103.79 15.07 103.781 15.592 103.761 16.172C103.742 16.752 103.655 17.303 103.5 17.825C103.365 18.3276 103.143 18.7626 102.833 19.13C102.524 19.478 102.079 19.652 101.499 19.652C100.997 19.652 100.6 19.536 100.31 19.304C100.02 19.072 99.8075 18.7723 99.6722 18.405C99.5369 18.0376 99.4499 17.6316 99.4112 17.187C99.3919 16.723 99.3822 16.2686 99.3822 15.824C99.3822 14.5673 99.3919 13.3976 99.4112 12.315C99.4499 11.2323 99.4692 10.0626 99.4692 8.80597C99.4692 7.93597 99.6819 7.2303 100.107 6.68897C100.552 6.1283 101.219 5.84797 102.108 5.84797C102.63 5.84797 103.085 6.0123 103.471 6.34097C103.877 6.6503 104.061 7.07563 104.022 7.61697C104.39 7.21097 104.738 6.86297 105.066 6.57297C105.395 6.26363 105.849 6.10897 106.429 6.10897C106.835 6.10897 107.241 6.19597 107.647 6.36997C108.053 6.52463 108.411 6.74697 108.72 7.03697C109.049 7.32697 109.31 7.6653 109.503 8.05197C109.716 8.4193 109.822 8.81563 109.822 9.24097C109.822 9.4343 109.784 9.65663 109.706 9.90797C109.648 10.14 109.552 10.372 109.416 10.604C109.281 10.8166 109.126 11.0196 108.952 11.213C108.778 11.387 108.575 11.503 108.343 11.561C107.995 11.677 107.638 11.6673 107.27 11.532C106.903 11.3773 106.545 11.2226 106.197 11.068C105.869 10.894 105.559 10.7586 105.269 10.662C104.979 10.5653 104.718 10.6136 104.486 10.807C104.274 11.0003 104.1 11.387 103.964 11.967C103.848 12.547 103.79 13.4266 103.79 14.606Z" fill="#FE6A13"/>
<path d="M121.556 18.985C121.073 19.2556 120.551 19.449 119.99 19.565C119.43 19.6616 118.879 19.6906 118.337 19.652C117.487 19.5553 116.617 19.4006 115.727 19.188C114.857 18.956 114.103 18.5403 113.465 17.941C112.653 17.013 112.112 15.9496 111.841 14.751C111.59 13.533 111.609 12.373 111.899 11.271C112.209 10.1496 112.789 9.1733 113.639 8.34197C114.49 7.4913 115.602 6.9693 116.974 6.77597C117.786 6.64063 118.618 6.63097 119.468 6.74697C120.338 6.84363 121.102 7.15297 121.759 7.67497C122.127 8.02297 122.426 8.4193 122.658 8.86397C122.91 9.30863 123.074 9.7823 123.151 10.285C123.248 10.7683 123.248 11.2613 123.151 11.764C123.055 12.2473 122.842 12.7016 122.513 13.127C122.049 13.4943 121.547 13.7553 121.005 13.91C120.464 14.0646 119.903 14.171 119.323 14.229C118.743 14.2676 118.154 14.287 117.554 14.287C116.974 14.2676 116.404 14.2676 115.843 14.287C115.901 14.635 116.075 14.9346 116.365 15.186C116.675 15.418 117.023 15.5436 117.409 15.563C117.777 15.6016 118.154 15.6016 118.54 15.563C118.927 15.5243 119.314 15.4953 119.7 15.476C120.087 15.4373 120.464 15.4373 120.831 15.476C121.218 15.4953 121.585 15.6016 121.933 15.795C122.165 16.0076 122.33 16.2686 122.426 16.578C122.523 16.868 122.552 17.1676 122.513 17.477C122.494 17.767 122.397 18.0473 122.223 18.318C122.069 18.5886 121.846 18.811 121.556 18.985ZM116.423 11.561C117.313 11.6963 117.951 11.706 118.337 11.59C118.724 11.4546 118.946 11.2806 119.004 11.068C119.062 10.836 118.985 10.6136 118.772 10.401C118.579 10.1883 118.337 10.0626 118.047 10.024C117.757 9.96597 117.448 10.053 117.119 10.285C116.81 10.4976 116.578 10.923 116.423 11.561Z" fill="#FE6A13"/>
<path d="M125.975 21.827C125.897 21.653 125.878 21.4693 125.917 21.276C125.955 21.0826 126.004 20.8893 126.062 20.696C126.12 20.5026 126.158 20.3093 126.178 20.116C126.216 19.942 126.178 19.768 126.062 19.594C125.888 19.2266 125.704 18.8303 125.511 18.405C125.337 17.9603 125.308 17.5253 125.424 17.1C125.404 16.636 125.491 16.23 125.685 15.882C125.897 15.534 126.158 15.2633 126.468 15.07C126.796 14.8573 127.154 14.7316 127.541 14.693C127.927 14.635 128.295 14.6833 128.643 14.838C128.913 14.8766 129.145 14.9926 129.339 15.186C129.532 15.36 129.696 15.5823 129.832 15.853C129.967 16.1043 130.064 16.3846 130.122 16.694C130.18 16.984 130.209 17.2643 130.209 17.535C130.151 18.463 129.948 19.2943 129.6 20.029C129.252 20.7636 128.855 21.3436 128.411 21.769C127.966 22.1943 127.512 22.4263 127.048 22.465C126.584 22.523 126.226 22.3103 125.975 21.827Z" fill="#FE6A13"/>
<path d="M155.117 10.401C154.673 10.401 154.363 10.633 154.189 11.097C154.035 11.5416 153.938 12.112 153.899 12.808C153.861 13.4846 153.851 14.229 153.87 15.041C153.89 15.8336 153.851 16.578 153.754 17.274C153.677 17.9506 153.503 18.521 153.232 18.985C152.962 19.4296 152.536 19.652 151.956 19.652C151.531 19.652 151.173 19.5553 150.883 19.362C150.613 19.1686 150.4 18.927 150.245 18.637C150.091 18.3276 149.975 17.999 149.897 17.651C149.839 17.303 149.81 16.9646 149.81 16.636C149.81 16.0753 149.82 15.505 149.839 14.925C149.859 14.345 149.868 13.7746 149.868 13.214C149.868 12.924 149.849 12.6146 149.81 12.286C149.772 11.9573 149.704 11.648 149.607 11.358C149.511 11.068 149.385 10.8263 149.23 10.633C149.076 10.4396 148.882 10.343 148.65 10.343C148.186 10.3236 147.848 10.5266 147.635 10.952C147.442 11.3773 147.316 11.8896 147.258 12.489C147.22 13.069 147.22 13.678 147.258 14.316C147.297 14.9346 147.316 15.447 147.316 15.853C147.316 16.259 147.287 16.6843 147.229 17.129C147.171 17.5736 147.046 17.9796 146.852 18.347C146.678 18.7143 146.417 19.0236 146.069 19.275C145.721 19.507 145.257 19.623 144.677 19.623C144.271 19.623 143.952 19.5166 143.72 19.304C143.488 19.0913 143.305 18.8303 143.169 18.521C143.053 18.1923 142.976 17.8443 142.937 17.477C142.918 17.0903 142.908 16.7423 142.908 16.433C142.908 15.9303 142.899 15.4083 142.879 14.867C142.879 14.3063 142.879 13.7746 142.879 13.272C142.879 12.982 142.87 12.605 142.85 12.141C142.831 11.677 142.821 11.184 142.821 10.662C142.821 10.14 142.841 9.61797 142.879 9.09597C142.937 8.55463 143.034 8.0713 143.169 7.64597C143.305 7.22063 143.498 6.87263 143.749 6.60197C144.001 6.3313 144.329 6.19597 144.735 6.19597C145.006 6.19597 145.267 6.23463 145.518 6.31197C145.789 6.36997 146.031 6.46663 146.243 6.60197C146.456 6.71797 146.63 6.8823 146.765 7.09497C146.92 7.2883 147.007 7.51063 147.026 7.76197C147.471 7.35597 147.945 6.98863 148.447 6.65997C148.969 6.3313 149.54 6.16697 150.158 6.16697C150.41 6.16697 150.7 6.20563 151.028 6.28297C151.376 6.34097 151.715 6.43763 152.043 6.57297C152.391 6.68897 152.701 6.84363 152.971 7.03697C153.242 7.2303 153.435 7.45263 153.551 7.70397C153.957 7.22063 154.392 6.86297 154.856 6.63097C155.34 6.37963 155.891 6.25397 156.509 6.25397C157.534 6.25397 158.327 6.51497 158.887 7.03697C159.448 7.53963 159.854 8.16797 160.105 8.92197C160.376 9.67597 160.531 10.488 160.569 11.358C160.627 12.2086 160.656 12.982 160.656 13.678C160.656 14.1806 160.656 14.78 160.656 15.476C160.676 16.1526 160.618 16.8003 160.482 17.419C160.366 18.0376 160.125 18.5693 159.757 19.014C159.409 19.4586 158.868 19.681 158.133 19.681C157.727 19.681 157.408 19.5553 157.176 19.304C156.944 19.0333 156.761 18.7143 156.625 18.347C156.509 17.9603 156.432 17.564 156.393 17.158C156.374 16.752 156.364 16.404 156.364 16.114C156.364 15.418 156.345 14.722 156.306 14.026C156.287 13.3106 156.277 12.6146 156.277 11.938C156.277 11.7833 156.248 11.619 156.19 11.445C156.152 11.271 156.084 11.1066 155.987 10.952C155.891 10.7973 155.765 10.6716 155.61 10.575C155.475 10.459 155.311 10.401 155.117 10.401Z" fill="#FE6A13"/>
<path d="M173.281 7.06597C173.629 7.23997 173.881 7.4913 174.035 7.81997C174.209 8.14863 174.325 8.5063 174.383 8.89297C174.577 10.5363 174.664 12.0926 174.644 13.562C174.644 15.012 174.538 16.549 174.325 18.173C174.248 18.521 174.035 18.8303 173.687 19.101C173.339 19.3523 173.02 19.5263 172.73 19.623C172.266 19.623 171.822 19.4973 171.396 19.246C170.99 18.9946 170.758 18.608 170.7 18.086C169.482 18.724 168.429 19.1203 167.539 19.275C166.65 19.4103 165.896 19.362 165.277 19.13C164.659 18.898 164.166 18.492 163.798 17.912C163.45 17.332 163.18 16.636 162.986 15.824C162.812 15.012 162.706 14.1033 162.667 13.098C162.648 12.0926 162.677 11.039 162.754 9.93697C162.812 9.74363 162.861 9.5213 162.899 9.26997C162.938 9.01863 162.986 8.77697 163.044 8.54497C163.102 8.31297 163.18 8.09063 163.276 7.87797C163.392 7.6653 163.557 7.50097 163.769 7.38497C164.195 7.01763 164.601 6.84363 164.987 6.86297C165.393 6.8823 165.741 7.01763 166.031 7.26897C166.341 7.5203 166.582 7.85863 166.756 8.28397C166.93 8.7093 167.017 9.1443 167.017 9.58897C167.017 9.9563 167.027 10.2656 167.046 10.517C167.085 10.7683 167.114 11.01 167.133 11.242C167.153 11.4546 167.172 11.6963 167.191 11.967C167.23 12.2183 167.249 12.5276 167.249 12.895C167.269 13.2816 167.317 13.6393 167.394 13.968C167.472 14.2966 167.646 14.5673 167.916 14.78C168.264 14.896 168.612 14.867 168.96 14.693C169.308 14.4996 169.56 14.229 169.714 13.881C169.946 13.3203 170.062 12.7693 170.062 12.228C170.082 11.6866 170.091 11.155 170.091 10.633C170.091 10.0916 170.12 9.55997 170.178 9.03797C170.256 8.49663 170.459 7.9553 170.787 7.41397C171.116 7.12397 171.512 6.9693 171.976 6.94997C172.46 6.93063 172.895 6.9693 173.281 7.06597ZM171.483 3.44097C171.309 3.8083 170.845 4.3593 170.091 5.09397C169.337 5.82863 168.757 6.19597 168.351 6.19597C167.945 6.17663 167.578 6.11863 167.249 6.02197C166.94 5.9253 166.679 5.77063 166.466 5.55797C166.254 5.42263 166.07 5.19063 165.915 4.86197C165.761 4.51397 165.78 4.0983 165.973 3.61497C166.167 3.13163 166.553 2.62897 167.133 2.10697C167.733 1.56563 168.448 1.26597 169.279 1.20797C170.13 1.14997 170.652 1.21763 170.845 1.41097C171.039 1.58497 171.213 1.79763 171.367 2.04897C171.522 2.3003 171.609 2.55163 171.628 2.80297C171.648 3.03497 171.599 3.24763 171.483 3.44097Z" fill="#FE6A13"/>
<path d="M187.636 15.36C187.636 16.0753 187.472 16.7036 187.143 17.245C186.834 17.767 186.418 18.202 185.896 18.55C185.393 18.898 184.823 19.159 184.185 19.333C183.566 19.507 182.948 19.594 182.329 19.594C181.846 19.594 181.246 19.5456 180.531 19.449C179.816 19.3523 179.139 19.188 178.501 18.956C177.863 18.724 177.341 18.4146 176.935 18.028C176.529 17.6413 176.403 17.158 176.558 16.578C176.732 15.9013 176.983 15.4373 177.312 15.186C177.66 14.9346 178.037 14.8186 178.443 14.838C178.868 14.838 179.294 14.925 179.719 15.099C180.144 15.273 180.521 15.4276 180.85 15.563C181.198 15.679 181.469 15.7466 181.662 15.766C181.875 15.766 181.971 15.6016 181.952 15.273C181.933 15.0216 181.788 14.8186 181.517 14.664C181.266 14.49 180.956 14.3353 180.589 14.2C180.222 14.0453 179.816 13.8906 179.371 13.736C178.946 13.562 178.54 13.3396 178.153 13.069C177.786 12.779 177.467 12.431 177.196 12.025C176.945 11.619 176.8 11.097 176.761 10.459C176.703 9.45363 176.838 8.6513 177.167 8.05197C177.515 7.45263 177.95 6.9983 178.472 6.68897C179.013 6.3603 179.603 6.14763 180.241 6.05097C180.898 5.9543 181.517 5.90597 182.097 5.90597C182.503 5.90597 183.006 5.96397 183.605 6.07997C184.224 6.19597 184.813 6.37963 185.374 6.63097C185.935 6.86297 186.418 7.1723 186.824 7.55897C187.23 7.9263 187.433 8.3613 187.433 8.86397C187.433 9.0573 187.365 9.26997 187.23 9.50197C187.095 9.71463 186.921 9.91763 186.708 10.111C186.515 10.3043 186.302 10.4686 186.07 10.604C185.857 10.72 185.664 10.778 185.49 10.778C185.181 10.778 184.9 10.7006 184.649 10.546C184.417 10.3913 184.175 10.227 183.924 10.053C183.692 9.87897 183.45 9.71463 183.199 9.55997C182.967 9.4053 182.696 9.32797 182.387 9.32797C182.174 9.32797 181.991 9.39563 181.836 9.53097C181.681 9.6663 181.604 9.87897 181.604 10.169C181.604 10.343 181.749 10.4976 182.039 10.633C182.348 10.749 182.725 10.8843 183.17 11.039C183.615 11.1936 184.098 11.3773 184.62 11.59C185.142 11.7833 185.625 12.0443 186.07 12.373C186.515 12.7016 186.882 13.1076 187.172 13.591C187.481 14.0743 187.636 14.664 187.636 15.36Z" fill="#FE6A13"/>
<path d="M192.602 4.39797C191.752 4.45597 191.085 4.3013 190.601 3.93397C190.137 3.56663 189.867 3.15097 189.789 2.68697C189.731 2.20363 189.886 1.7493 190.253 1.32397C190.621 0.898633 191.22 0.6473 192.051 0.569967C192.728 0.511967 193.24 0.656966 193.588 1.00497C193.936 1.33363 194.13 1.72997 194.168 2.19397C194.207 2.65797 194.091 3.1123 193.82 3.55697C193.55 3.9823 193.144 4.26263 192.602 4.39797ZM191.819 5.93497C192.419 5.8383 192.883 5.94463 193.211 6.25397C193.54 6.5633 193.772 7.00797 193.907 7.58797C194.062 8.16797 194.139 8.8543 194.139 9.64697C194.159 10.4396 194.149 11.2806 194.11 12.17C194.072 13.04 194.033 13.9293 193.994 14.838C193.975 15.7273 194.004 16.5586 194.081 17.332C194.12 17.8153 193.975 18.2696 193.646 18.695C193.318 19.1203 192.844 19.3813 192.225 19.478C191.877 19.536 191.549 19.507 191.239 19.391C190.93 19.275 190.669 19.1203 190.456 18.927C190.244 18.7143 190.07 18.4823 189.934 18.231C189.818 17.9603 189.78 17.709 189.818 17.477C189.741 16.781 189.693 16.0463 189.673 15.273C189.673 14.4803 189.673 13.6876 189.673 12.895C189.693 12.083 189.712 11.2903 189.731 10.517C189.751 9.7243 189.751 8.9703 189.731 8.25497C189.751 8.02297 189.799 7.77163 189.876 7.50097C189.973 7.2303 190.099 6.97897 190.253 6.74697C190.427 6.51497 190.64 6.32163 190.891 6.16697C191.162 6.0123 191.471 5.93497 191.819 5.93497Z" fill="#FE6A13"/>
<path d="M207.444 16.723C207.521 17.361 207.395 17.8733 207.067 18.26C206.757 18.6466 206.361 18.9366 205.878 19.13C205.414 19.3233 204.921 19.449 204.399 19.507C203.877 19.565 203.451 19.5746 203.123 19.536C201.924 19.4393 200.899 19.246 200.049 18.956C199.217 18.6466 198.531 18.231 197.99 17.709C197.468 17.187 197.081 16.5393 196.83 15.766C196.598 14.9733 196.482 14.0453 196.482 12.982C196.482 11.996 196.665 11.097 197.033 10.285C197.4 9.47297 197.893 8.77697 198.512 8.19697C199.13 7.61697 199.855 7.16263 200.687 6.83397C201.537 6.5053 202.436 6.34097 203.384 6.34097C203.77 6.34097 204.186 6.39897 204.631 6.51497C205.075 6.61163 205.491 6.77597 205.878 7.00797C206.264 7.22063 206.583 7.50097 206.835 7.84897C207.105 8.19697 207.241 8.61263 207.241 9.09597C207.241 9.67597 207.038 10.1786 206.632 10.604C206.245 11.0293 205.8 11.2613 205.298 11.3C204.988 11.3193 204.66 11.3 204.312 11.242C203.983 11.184 203.645 11.1356 203.297 11.097C202.968 11.0583 202.649 11.039 202.34 11.039C202.03 11.039 201.76 11.1066 201.528 11.242C201.296 11.3773 201.112 11.5996 200.977 11.909C200.861 12.2183 200.812 12.6533 200.832 13.214C200.851 13.91 201.025 14.3933 201.354 14.664C201.682 14.9153 202.079 15.0603 202.543 15.099C203.007 15.1376 203.509 15.1183 204.051 15.041C204.611 14.9636 205.124 14.9443 205.588 14.983C206.071 15.0023 206.487 15.1376 206.835 15.389C207.183 15.621 207.386 16.0656 207.444 16.723Z" fill="#FE6A13"/>
<path d="M220.733 17.941C220.849 18.5016 220.743 18.9366 220.414 19.246C220.085 19.536 219.631 19.6906 219.051 19.71C218.548 19.71 218.123 19.6326 217.775 19.478C217.427 19.304 217.06 19.0913 216.673 18.84C216.248 18.8786 215.793 18.9463 215.31 19.043C214.827 19.1396 214.334 19.217 213.831 19.275C213.348 19.3136 212.864 19.3136 212.381 19.275C211.898 19.2363 211.443 19.101 211.018 18.869C210.477 18.579 210.042 18.115 209.713 17.477C209.404 16.8196 209.22 16.1333 209.162 15.418C209.123 14.7026 209.23 14.0163 209.481 13.359C209.732 12.7016 210.148 12.2086 210.728 11.88C211.018 11.7253 211.279 11.5996 211.511 11.503C211.762 11.387 212.023 11.3 212.294 11.242C212.584 11.184 212.903 11.1356 213.251 11.097C213.599 11.0583 214.024 11.0293 214.527 11.01C214.991 10.5266 214.923 10.1883 214.324 9.99497C213.744 9.7823 212.681 9.8693 211.134 10.256C210.573 10.1593 210.196 9.90797 210.003 9.50197C209.81 9.09597 209.761 8.66097 209.858 8.19697C209.955 7.73297 210.177 7.29797 210.525 6.89197C210.873 6.46663 211.298 6.19597 211.801 6.07997C213.464 5.78997 214.933 5.78997 216.209 6.07997C217.485 6.36997 218.49 6.90163 219.225 7.67497C219.979 8.4483 220.424 9.4343 220.559 10.633C220.714 11.8316 220.491 13.185 219.892 14.693C219.718 15.0216 219.66 15.3213 219.718 15.592C219.776 15.8626 219.873 16.1236 220.008 16.375C220.163 16.6263 220.308 16.8776 220.443 17.129C220.598 17.3803 220.694 17.651 220.733 17.941ZM214.092 15.853C214.324 15.9303 214.546 15.8916 214.759 15.737C214.991 15.5823 215.155 15.389 215.252 15.157C215.349 14.925 215.349 14.7026 215.252 14.49C215.175 14.258 214.952 14.113 214.585 14.055C214.179 13.9776 213.85 14.0163 213.599 14.171C213.367 14.3256 213.222 14.519 213.164 14.751C213.125 14.9636 213.183 15.186 213.338 15.418C213.493 15.65 213.744 15.795 214.092 15.853Z" fill="#FE6A13"/>
<path d="M243.141 18.985C242.658 19.2556 242.136 19.449 241.575 19.565C241.014 19.6616 240.463 19.6906 239.922 19.652C239.071 19.5553 238.201 19.4006 237.312 19.188C236.442 18.956 235.688 18.5403 235.05 17.941C234.238 17.013 233.697 15.9496 233.426 14.751C233.175 13.533 233.194 12.373 233.484 11.271C233.793 10.1496 234.373 9.1733 235.224 8.34197C236.075 7.4913 237.186 6.9693 238.559 6.77597C239.371 6.64063 240.202 6.63097 241.053 6.74697C241.923 6.84363 242.687 7.15297 243.344 7.67497C243.711 8.02297 244.011 8.4193 244.243 8.86397C244.494 9.30863 244.659 9.7823 244.736 10.285C244.833 10.7683 244.833 11.2613 244.736 11.764C244.639 12.2473 244.427 12.7016 244.098 13.127C243.634 13.4943 243.131 13.7553 242.59 13.91C242.049 14.0646 241.488 14.171 240.908 14.229C240.328 14.2676 239.738 14.287 239.139 14.287C238.559 14.2676 237.989 14.2676 237.428 14.287C237.486 14.635 237.66 14.9346 237.95 15.186C238.259 15.418 238.607 15.5436 238.994 15.563C239.361 15.6016 239.738 15.6016 240.125 15.563C240.512 15.5243 240.898 15.4953 241.285 15.476C241.672 15.4373 242.049 15.4373 242.416 15.476C242.803 15.4953 243.17 15.6016 243.518 15.795C243.75 16.0076 243.914 16.2686 244.011 16.578C244.108 16.868 244.137 17.1676 244.098 17.477C244.079 17.767 243.982 18.0473 243.808 18.318C243.653 18.5886 243.431 18.811 243.141 18.985ZM238.008 11.561C238.897 11.6963 239.535 11.706 239.922 11.59C240.309 11.4546 240.531 11.2806 240.589 11.068C240.647 10.836 240.57 10.6136 240.357 10.401C240.164 10.1883 239.922 10.0626 239.632 10.024C239.342 9.96597 239.033 10.053 238.704 10.285C238.395 10.4976 238.163 10.923 238.008 11.561Z" fill="#FE6A13"/>
<path d="M248.227 19.362C247.879 19.188 247.618 18.9366 247.444 18.608C247.289 18.2793 247.183 17.9216 247.125 17.535C246.931 15.8916 246.835 14.2483 246.835 12.605C246.854 10.9616 246.97 9.3183 247.183 7.67497C247.26 7.32697 247.473 7.0273 247.821 6.77597C248.169 6.5053 248.488 6.32163 248.778 6.22497C249.242 6.22497 249.677 6.35063 250.083 6.60197C250.508 6.8533 250.75 7.23997 250.808 7.76197C252.026 7.12397 253.079 6.74697 253.969 6.63097C254.858 6.51497 255.612 6.60197 256.231 6.89197C256.849 7.16263 257.333 7.61697 257.681 8.25497C258.048 8.87363 258.319 9.6083 258.493 10.459C258.686 11.3096 258.792 12.257 258.812 13.301C258.831 14.3256 258.812 15.389 258.754 16.491C258.696 16.7036 258.647 16.9356 258.609 17.187C258.57 17.419 258.522 17.651 258.464 17.883C258.406 18.115 258.319 18.3373 258.203 18.55C258.087 18.7626 257.932 18.927 257.739 19.043C257.313 19.4103 256.898 19.5843 256.492 19.565C256.105 19.5456 255.757 19.4103 255.448 19.159C255.158 18.9076 254.926 18.5693 254.752 18.144C254.578 17.7186 254.491 17.2836 254.491 16.839C254.471 16.1043 254.433 15.4663 254.375 14.925C254.317 14.3643 254.278 13.707 254.259 12.953C254.239 12.5663 254.191 12.2086 254.114 11.88C254.036 11.5513 253.862 11.2806 253.592 11.068C253.244 10.952 252.896 10.9906 252.548 11.184C252.2 11.358 251.948 11.619 251.794 11.967C251.562 12.5276 251.436 13.1076 251.417 13.707C251.417 14.3063 251.417 14.9153 251.417 15.534C251.417 16.1333 251.378 16.7326 251.301 17.332C251.243 17.912 251.049 18.4726 250.721 19.014C250.392 19.304 249.986 19.4586 249.503 19.478C249.039 19.4973 248.613 19.4586 248.227 19.362Z" fill="#FE6A13"/>
<path d="M270.861 8.92197C270.803 8.5353 270.881 8.1873 271.093 7.87797C271.306 7.5493 271.577 7.29797 271.905 7.12397C272.253 6.94997 272.621 6.86297 273.007 6.86297C273.413 6.84363 273.771 6.9403 274.08 7.15297C274.506 7.38497 274.863 7.81997 275.153 8.45797C275.443 9.09597 275.685 9.77263 275.878 10.488C276.091 11.2033 276.265 11.8896 276.4 12.547C276.555 13.185 276.7 13.6393 276.835 13.91C277.009 13.562 277.145 13.2043 277.241 12.837C277.357 12.4696 277.454 12.1023 277.531 11.735C277.628 11.3483 277.725 10.9713 277.821 10.604C277.937 10.2173 278.073 9.84997 278.227 9.50197C278.479 8.61263 278.836 7.93597 279.3 7.47197C279.784 7.00797 280.267 6.75663 280.75 6.71797C281.234 6.65997 281.669 6.8243 282.055 7.21097C282.442 7.59763 282.664 8.19697 282.722 9.00897C282.626 9.70497 282.481 10.4686 282.287 11.3C282.094 12.112 281.862 12.924 281.591 13.736C281.34 14.548 281.04 15.3213 280.692 16.056C280.364 16.7906 280.016 17.4286 279.648 17.97C279.358 18.4146 278.933 18.782 278.372 19.072C277.831 19.3426 277.261 19.507 276.661 19.565C276.081 19.6036 275.521 19.5166 274.979 19.304C274.438 19.0913 274.022 18.724 273.732 18.202C273.346 17.39 272.988 16.6263 272.659 15.911C272.35 15.1763 272.07 14.4416 271.818 13.707C271.567 12.953 271.354 12.1893 271.18 11.416C271.026 10.6426 270.919 9.8113 270.861 8.92197Z" fill="#FE6A13"/>
<path d="M287.638 4.39797C286.788 4.45597 286.121 4.3013 285.637 3.93397C285.173 3.56663 284.903 3.15097 284.825 2.68697C284.767 2.20363 284.922 1.7493 285.289 1.32397C285.657 0.898633 286.256 0.6473 287.087 0.569967C287.764 0.511967 288.276 0.656966 288.624 1.00497C288.972 1.33363 289.166 1.72997 289.204 2.19397C289.243 2.65797 289.127 3.1123 288.856 3.55697C288.586 3.9823 288.18 4.26263 287.638 4.39797ZM286.855 5.93497C287.455 5.8383 287.919 5.94463 288.247 6.25397C288.576 6.5633 288.808 7.00797 288.943 7.58797C289.098 8.16797 289.175 8.8543 289.175 9.64697C289.195 10.4396 289.185 11.2806 289.146 12.17C289.108 13.04 289.069 13.9293 289.03 14.838C289.011 15.7273 289.04 16.5586 289.117 17.332C289.156 17.8153 289.011 18.2696 288.682 18.695C288.354 19.1203 287.88 19.3813 287.261 19.478C286.913 19.536 286.585 19.507 286.275 19.391C285.966 19.275 285.705 19.1203 285.492 18.927C285.28 18.7143 285.106 18.4823 284.97 18.231C284.854 17.9603 284.816 17.709 284.854 17.477C284.777 16.781 284.729 16.0463 284.709 15.273C284.709 14.4803 284.709 13.6876 284.709 12.895C284.729 12.083 284.748 11.2903 284.767 10.517C284.787 9.7243 284.787 8.9703 284.767 8.25497C284.787 8.02297 284.835 7.77163 284.912 7.50097C285.009 7.2303 285.135 6.97897 285.289 6.74697C285.463 6.51497 285.676 6.32163 285.927 6.16697C286.198 6.0123 286.507 5.93497 286.855 5.93497Z" fill="#FE6A13"/>
<path d="M291.576 8.92197C291.518 8.5353 291.595 8.1873 291.808 7.87797C292.021 7.5493 292.291 7.29797 292.62 7.12397C292.968 6.94997 293.335 6.86297 293.722 6.86297C294.128 6.84363 294.486 6.9403 294.795 7.15297C295.22 7.38497 295.578 7.81997 295.868 8.45797C296.158 9.09597 296.4 9.77263 296.593 10.488C296.806 11.2033 296.98 11.8896 297.115 12.547C297.27 13.185 297.415 13.6393 297.55 13.91C297.724 13.562 297.859 13.2043 297.956 12.837C298.072 12.4696 298.169 12.1023 298.246 11.735C298.343 11.3483 298.439 10.9713 298.536 10.604C298.652 10.2173 298.787 9.84997 298.942 9.50197C299.193 8.61263 299.551 7.93597 300.015 7.47197C300.498 7.00797 300.982 6.75663 301.465 6.71797C301.948 6.65997 302.383 6.8243 302.77 7.21097C303.157 7.59763 303.379 8.19697 303.437 9.00897C303.34 9.70497 303.195 10.4686 303.002 11.3C302.809 12.112 302.577 12.924 302.306 13.736C302.055 14.548 301.755 15.3213 301.407 16.056C301.078 16.7906 300.73 17.4286 300.363 17.97C300.073 18.4146 299.648 18.782 299.087 19.072C298.546 19.3426 297.975 19.507 297.376 19.565C296.796 19.6036 296.235 19.5166 295.694 19.304C295.153 19.0913 294.737 18.724 294.447 18.202C294.06 17.39 293.703 16.6263 293.374 15.911C293.065 15.1763 292.784 14.4416 292.533 13.707C292.282 12.953 292.069 12.1893 291.895 11.416C291.74 10.6426 291.634 9.8113 291.576 8.92197Z" fill="#FE6A13"/>
<path d="M305.018 12.634C305.018 11.764 305.153 10.9326 305.424 10.14C305.695 9.3473 306.081 8.66097 306.584 8.08097C307.106 7.48163 307.734 7.00797 308.469 6.65997C309.204 6.31197 310.045 6.13797 310.992 6.13797C313.099 6.13797 314.636 6.68897 315.603 7.79097C316.57 8.87363 317.053 10.4106 317.053 12.402C317.053 13.1753 316.956 13.968 316.763 14.78C316.57 15.5726 316.241 16.3073 315.777 16.984C315.332 17.6413 314.733 18.1923 313.979 18.637C313.244 19.0816 312.316 19.333 311.195 19.391C310.035 19.449 309.059 19.304 308.266 18.956C307.473 18.5886 306.835 18.086 306.352 17.448C305.888 16.81 305.55 16.0753 305.337 15.244C305.124 14.3933 305.018 13.5233 305.018 12.634ZM310.876 14.809C311.533 14.809 311.959 14.5673 312.152 14.084C312.345 13.5813 312.442 12.9916 312.442 12.315C312.442 11.8123 312.278 11.358 311.949 10.952C311.64 10.546 311.253 10.343 310.789 10.343C310.325 10.343 309.996 10.5556 309.803 10.981C309.629 11.4063 309.542 11.8703 309.542 12.373C309.542 12.6436 309.552 12.924 309.571 13.214C309.61 13.504 309.677 13.765 309.774 13.997C309.871 14.229 310.006 14.4223 310.18 14.577C310.354 14.7316 310.586 14.809 310.876 14.809Z" fill="#FE6A13"/>
<path d="M319.615 21.827C319.538 21.653 319.519 21.4693 319.557 21.276C319.596 21.0826 319.644 20.8893 319.702 20.696C319.76 20.5026 319.799 20.3093 319.818 20.116C319.857 19.942 319.818 19.768 319.702 19.594C319.528 19.2266 319.345 18.8303 319.151 18.405C318.977 17.9603 318.948 17.5253 319.064 17.1C319.045 16.636 319.132 16.23 319.325 15.882C319.538 15.534 319.799 15.2633 320.108 15.07C320.437 14.8573 320.795 14.7316 321.181 14.693C321.568 14.635 321.935 14.6833 322.283 14.838C322.554 14.8766 322.786 14.9926 322.979 15.186C323.173 15.36 323.337 15.5823 323.472 15.853C323.608 16.1043 323.704 16.3846 323.762 16.694C323.82 16.984 323.849 17.2643 323.849 17.535C323.791 18.463 323.588 19.2943 323.24 20.029C322.892 20.7636 322.496 21.3436 322.051 21.769C321.607 22.1943 321.152 22.4263 320.688 22.465C320.224 22.523 319.867 22.3103 319.615 21.827Z" fill="#FE6A13"/>
<path d="M97.8737 46.941C97.9897 47.5016 97.8834 47.9366 97.5547 48.246C97.2261 48.536 96.7717 48.6906 96.1917 48.71C95.6891 48.71 95.2637 48.6326 94.9157 48.478C94.5677 48.304 94.2004 48.0913 93.8137 47.84C93.3884 47.8786 92.9341 47.9463 92.4507 48.043C91.9674 48.1396 91.4744 48.217 90.9717 48.275C90.4884 48.3136 90.0051 48.3136 89.5217 48.275C89.0384 48.2363 88.5841 48.101 88.1587 47.869C87.6174 47.579 87.1824 47.115 86.8537 46.477C86.5444 45.8196 86.3607 45.1333 86.3027 44.418C86.2641 43.7026 86.3704 43.0163 86.6217 42.359C86.8731 41.7016 87.2887 41.2086 87.8687 40.88C88.1587 40.7253 88.4197 40.5996 88.6517 40.503C88.9031 40.387 89.1641 40.3 89.4347 40.242C89.7247 40.184 90.0437 40.1356 90.3917 40.097C90.7397 40.0583 91.1651 40.0293 91.6677 40.01C92.1317 39.5266 92.0641 39.1883 91.4647 38.995C90.8847 38.7823 89.8214 38.8693 88.2747 39.256C87.7141 39.1593 87.3371 38.908 87.1437 38.502C86.9504 38.096 86.9021 37.661 86.9987 37.197C87.0954 36.733 87.3177 36.298 87.6657 35.892C88.0137 35.4666 88.4391 35.196 88.9417 35.08C90.6044 34.79 92.0737 34.79 93.3497 35.08C94.6257 35.37 95.6311 35.9016 96.3657 36.675C97.1197 37.4483 97.5644 38.4343 97.6997 39.633C97.8544 40.8316 97.6321 42.185 97.0327 43.693C96.8587 44.0216 96.8007 44.3213 96.8587 44.592C96.9167 44.8626 97.0134 45.1236 97.1487 45.375C97.3034 45.6263 97.4484 45.8776 97.5837 46.129C97.7384 46.3803 97.8351 46.651 97.8737 46.941ZM91.2327 44.853C91.4647 44.9303 91.6871 44.8916 91.8997 44.737C92.1317 44.5823 92.2961 44.389 92.3927 44.157C92.4894 43.925 92.4894 43.7026 92.3927 43.49C92.3154 43.258 92.0931 43.113 91.7257 43.055C91.3197 42.9776 90.9911 43.0163 90.7397 43.171C90.5077 43.3256 90.3627 43.519 90.3047 43.751C90.2661 43.9636 90.3241 44.186 90.4787 44.418C90.6334 44.65 90.8847 44.795 91.2327 44.853Z" fill="#FE6A13"/>
<path d="M104.555 43.606C104.555 44.07 104.545 44.592 104.526 45.172C104.507 45.752 104.42 46.303 104.265 46.825C104.13 47.3276 103.907 47.7626 103.598 48.13C103.289 48.478 102.844 48.652 102.264 48.652C101.761 48.652 101.365 48.536 101.075 48.304C100.785 48.072 100.572 47.7723 100.437 47.405C100.302 47.0376 100.215 46.6316 100.176 46.187C100.157 45.723 100.147 45.2686 100.147 44.824C100.147 43.5673 100.157 42.3976 100.176 41.315C100.215 40.2323 100.234 39.0626 100.234 37.806C100.234 36.936 100.447 36.2303 100.872 35.689C101.317 35.1283 101.984 34.848 102.873 34.848C103.395 34.848 103.849 35.0123 104.236 35.341C104.642 35.6503 104.826 36.0756 104.787 36.617C105.154 36.211 105.502 35.863 105.831 35.573C106.16 35.2636 106.614 35.109 107.194 35.109C107.6 35.109 108.006 35.196 108.412 35.37C108.818 35.5246 109.176 35.747 109.485 36.037C109.814 36.327 110.075 36.6653 110.268 37.052C110.481 37.4193 110.587 37.8156 110.587 38.241C110.587 38.4343 110.548 38.6566 110.471 38.908C110.413 39.14 110.316 39.372 110.181 39.604C110.046 39.8166 109.891 40.0196 109.717 40.213C109.543 40.387 109.34 40.503 109.108 40.561C108.76 40.677 108.402 40.6673 108.035 40.532C107.668 40.3773 107.31 40.2226 106.962 40.068C106.633 39.894 106.324 39.7586 106.034 39.662C105.744 39.5653 105.483 39.6136 105.251 39.807C105.038 40.0003 104.864 40.387 104.729 40.967C104.613 41.547 104.555 42.4266 104.555 43.606Z" fill="#FE6A13"/>
<path d="M119.914 47.898C119.508 48.246 119.063 48.4683 118.58 48.565C118.116 48.6616 117.642 48.6616 117.159 48.565C116.676 48.4683 116.212 48.2846 115.767 48.014C115.342 47.7433 114.974 47.4146 114.665 47.028C114.162 46.448 113.805 45.8293 113.592 45.172C113.399 44.4953 113.283 43.7993 113.244 43.084C113.205 42.3686 113.205 41.6533 113.244 40.938C113.283 40.2033 113.302 39.488 113.302 38.792C112.877 38.792 112.538 38.589 112.287 38.183C112.036 37.777 111.9 37.342 111.881 36.878C111.862 36.414 111.987 35.9983 112.258 35.631C112.529 35.2636 112.973 35.0993 113.592 35.138C113.573 34.674 113.553 34.2583 113.534 33.891C113.534 33.5236 113.534 33.1853 113.534 32.876C113.553 32.5473 113.582 32.238 113.621 31.948C113.66 31.6386 113.718 31.3196 113.795 30.991C113.795 30.585 113.911 30.2273 114.143 29.918C114.394 29.6086 114.694 29.3863 115.042 29.251C115.409 29.0963 115.786 29.0383 116.173 29.077C116.56 29.1156 116.888 29.28 117.159 29.57C117.372 30.034 117.517 30.4786 117.594 30.904C117.691 31.3293 117.739 31.7643 117.739 32.209C117.758 32.6343 117.758 33.0693 117.739 33.514C117.72 33.9586 117.71 34.413 117.71 34.877C117.961 34.9156 118.213 34.935 118.464 34.935C118.735 34.935 118.996 34.9543 119.247 34.993C119.498 35.0316 119.73 35.1186 119.943 35.254C120.156 35.37 120.33 35.5633 120.465 35.834C120.639 36.066 120.736 36.3463 120.755 36.675C120.774 37.0036 120.726 37.3226 120.61 37.632C120.494 37.922 120.32 38.183 120.088 38.415C119.875 38.6276 119.634 38.763 119.363 38.821C119.17 38.8596 118.996 38.879 118.841 38.879C118.706 38.879 118.57 38.879 118.435 38.879C118.3 38.8596 118.155 38.85 118 38.85C117.865 38.85 117.7 38.8596 117.507 38.879C117.468 39.691 117.449 40.445 117.449 41.141C117.468 41.837 117.565 42.5813 117.739 43.374C117.874 43.838 118.077 44.1473 118.348 44.302C118.638 44.4566 118.986 44.6306 119.392 44.824C119.663 44.9593 119.885 45.1526 120.059 45.404C120.233 45.6553 120.349 45.9356 120.407 46.245C120.465 46.535 120.455 46.8346 120.378 47.144C120.301 47.434 120.146 47.6853 119.914 47.898Z" fill="#FE6A13"/>
<path d="M132.423 47.985C131.94 48.2556 131.418 48.449 130.857 48.565C130.297 48.6616 129.746 48.6906 129.204 48.652C128.354 48.5553 127.484 48.4006 126.594 48.188C125.724 47.956 124.97 47.5403 124.332 46.941C123.52 46.013 122.979 44.9496 122.708 43.751C122.457 42.533 122.476 41.373 122.766 40.271C123.076 39.1496 123.656 38.1733 124.506 37.342C125.357 36.4913 126.469 35.9693 127.841 35.776C128.653 35.6406 129.485 35.631 130.335 35.747C131.205 35.8436 131.969 36.153 132.626 36.675C132.994 37.023 133.293 37.4193 133.525 37.864C133.777 38.3086 133.941 38.7823 134.018 39.285C134.115 39.7683 134.115 40.2613 134.018 40.764C133.922 41.2473 133.709 41.7016 133.38 42.127C132.916 42.4943 132.414 42.7553 131.872 42.91C131.331 43.0646 130.77 43.171 130.19 43.229C129.61 43.2676 129.021 43.287 128.421 43.287C127.841 43.2676 127.271 43.2676 126.71 43.287C126.768 43.635 126.942 43.9346 127.232 44.186C127.542 44.418 127.89 44.5436 128.276 44.563C128.644 44.6016 129.021 44.6016 129.407 44.563C129.794 44.5243 130.181 44.4953 130.567 44.476C130.954 44.4373 131.331 44.4373 131.698 44.476C132.085 44.4953 132.452 44.6016 132.8 44.795C133.032 45.0076 133.197 45.2686 133.293 45.578C133.39 45.868 133.419 46.1676 133.38 46.477C133.361 46.767 133.264 47.0473 133.09 47.318C132.936 47.5886 132.713 47.811 132.423 47.985ZM127.29 40.561C128.18 40.6963 128.818 40.706 129.204 40.59C129.591 40.4546 129.813 40.2806 129.871 40.068C129.929 39.836 129.852 39.6136 129.639 39.401C129.446 39.1883 129.204 39.0626 128.914 39.024C128.624 38.966 128.315 39.053 127.986 39.285C127.677 39.4976 127.445 39.923 127.29 40.561Z" fill="#FE6A13"/>
<path d="M146.798 45.723C146.605 45.2396 146.46 44.679 146.363 44.041C146.286 43.3836 146.237 42.7166 146.218 42.04C146.218 41.3633 146.237 40.6963 146.276 40.039C146.315 39.3816 146.363 38.792 146.421 38.27C146.44 38.0186 146.479 37.7576 146.537 37.487C146.595 37.197 146.672 36.9263 146.769 36.675C146.885 36.4043 147.03 36.1626 147.204 35.95C147.378 35.7373 147.6 35.5826 147.871 35.486C148.103 35.4666 148.364 35.486 148.654 35.544C148.963 35.602 149.253 35.6986 149.524 35.834C149.795 35.95 150.027 36.1143 150.22 36.327C150.433 36.5203 150.558 36.7426 150.597 36.994C150.713 37.342 150.771 37.7866 150.771 38.328C150.79 38.85 150.79 39.401 150.771 39.981C150.771 40.5416 150.771 41.0926 150.771 41.634C150.79 42.156 150.858 42.591 150.974 42.939C151.264 43.6156 151.573 44.07 151.902 44.302C152.25 44.5146 152.666 44.3116 153.149 43.693C153.381 43.2483 153.507 42.6973 153.526 42.04C153.545 41.3826 153.536 40.7156 153.497 40.039C153.478 39.343 153.478 38.676 153.497 38.038C153.516 37.3806 153.642 36.8296 153.874 36.385C154.029 36.037 154.27 35.7663 154.599 35.573C154.928 35.3603 155.276 35.2346 155.643 35.196C156.03 35.1573 156.407 35.196 156.774 35.312C157.141 35.428 157.441 35.631 157.673 35.921C157.944 36.2303 158.108 36.588 158.166 36.994C158.243 37.3806 158.311 37.7673 158.369 38.154C158.369 39.198 158.398 40.3096 158.456 41.489C158.533 42.6683 158.553 43.8573 158.514 45.056C158.495 46.2353 158.379 47.4146 158.166 48.594C157.953 49.754 157.576 50.8366 157.035 51.842C156.571 52.5186 156.03 53.0406 155.411 53.408C154.792 53.7753 154.135 54.0266 153.439 54.162C152.743 54.2973 152.018 54.3456 151.264 54.307C150.529 54.2876 149.785 54.2296 149.031 54.133C148.644 54.075 148.296 53.9396 147.987 53.727C147.697 53.5336 147.465 53.292 147.291 53.002C147.117 52.712 147.03 52.393 147.03 52.045C147.03 51.7163 147.136 51.3876 147.349 51.059C147.581 50.7496 147.803 50.5176 148.016 50.363C148.229 50.2083 148.451 50.102 148.683 50.044C148.915 49.986 149.166 49.9666 149.437 49.986C149.708 50.0053 150.017 50.0246 150.365 50.044C150.674 50.102 151.022 50.1213 151.409 50.102C151.815 50.102 152.182 50.044 152.511 49.928C152.859 49.812 153.149 49.638 153.381 49.406C153.613 49.174 153.729 48.884 153.729 48.536C153.033 48.594 152.337 48.623 151.641 48.623C150.964 48.6036 150.317 48.4973 149.698 48.304C149.099 48.1106 148.538 47.811 148.016 47.405C147.513 46.999 147.107 46.4383 146.798 45.723Z" fill="#FE6A13"/>
<path d="M173.451 48.275C173.084 48.275 172.765 48.1783 172.494 47.985C172.243 47.7723 172.021 47.5113 171.827 47.202C171.634 46.8926 171.479 46.5736 171.363 46.245C171.267 45.897 171.199 45.578 171.16 45.288L171.015 36.472C171.015 35.4086 171.006 34.4516 170.986 33.601C170.967 32.7503 171.044 32.0156 171.218 31.397C171.412 30.759 171.75 30.2563 172.233 29.889C172.736 29.5216 173.5 29.2993 174.524 29.222C174.95 29.2026 175.346 29.193 175.713 29.193C176.081 29.1736 176.438 29.1736 176.786 29.193C177.134 29.193 177.492 29.222 177.859 29.28C178.227 29.338 178.633 29.4056 179.077 29.483C179.657 29.599 180.189 29.831 180.672 30.179C181.156 30.5076 181.571 30.9233 181.919 31.426C182.267 31.9093 182.538 32.47 182.731 33.108C182.925 33.7266 183.021 34.3936 183.021 35.109C183.021 37.313 182.403 38.9273 181.165 39.952C179.947 40.9573 178.256 41.431 176.09 41.373L176.061 44.737C176.061 45.1816 176.023 45.5876 175.945 45.955C175.868 46.303 175.733 46.6896 175.539 47.115V47.144C175.307 47.4726 174.998 47.7433 174.611 47.956C174.244 48.1686 173.857 48.275 173.451 48.275ZM176.177 36.936C176.97 36.936 177.531 36.7523 177.859 36.385C178.207 35.9983 178.362 35.5826 178.323 35.138C178.285 34.6933 178.072 34.297 177.685 33.949C177.318 33.601 176.815 33.456 176.177 33.514V36.936Z" fill="#FE6A13"/>
<path d="M194.42 47.695C192.815 48.3136 191.443 48.5456 190.302 48.391C189.181 48.2363 188.243 47.84 187.489 47.202C186.754 46.5446 186.194 45.7133 185.807 44.708C185.42 43.6833 185.179 42.62 185.082 41.518C184.966 40.3966 184.947 39.285 185.024 38.183C185.101 37.081 185.246 35.8823 185.459 34.587V34.529C185.575 34.1616 185.691 33.7943 185.807 33.427C185.942 33.0403 186.107 32.673 186.3 32.325C186.493 31.977 186.725 31.6483 186.996 31.339C187.286 31.0296 187.634 30.759 188.04 30.527C188.813 30.0823 189.654 29.7923 190.563 29.657C191.472 29.5023 192.38 29.541 193.289 29.773C193.85 30.005 194.381 30.324 194.884 30.73C195.387 31.1166 195.831 31.6 196.218 32.18V32.209C196.585 32.9243 196.895 33.7556 197.146 34.703C197.397 35.6503 197.562 36.646 197.639 37.69C197.736 38.734 197.745 39.7876 197.668 40.851C197.61 41.895 197.446 42.8713 197.175 43.78C196.924 44.6886 196.566 45.491 196.102 46.187C195.657 46.883 195.097 47.3856 194.42 47.695ZM192.245 42.823C192.342 42.591 192.429 42.2236 192.506 41.721C192.603 41.199 192.67 40.6383 192.709 40.039C192.767 39.4203 192.786 38.792 192.767 38.154C192.767 37.516 192.709 36.936 192.593 36.414C192.477 35.892 192.303 35.4763 192.071 35.167C191.839 34.8383 191.53 34.6836 191.143 34.703C190.776 34.7416 190.476 34.9543 190.244 35.341C190.031 35.7276 189.867 36.1916 189.751 36.733C189.635 37.2743 189.567 37.835 189.548 38.415C189.529 38.9756 189.538 39.4493 189.577 39.836C189.635 40.2806 189.683 40.793 189.722 41.373C189.78 41.9336 189.935 42.4556 190.186 42.939C190.495 43.3063 190.834 43.49 191.201 43.49C191.568 43.49 191.916 43.2676 192.245 42.823Z" fill="#FE6A13"/>
<path d="M201.92 48.246C201.418 48.246 201.002 48.1203 200.673 47.869C200.364 47.6176 200.122 47.289 199.948 46.883C199.794 46.477 199.687 46.0226 199.629 45.52C199.571 45.0173 199.533 44.505 199.513 43.983C199.513 43.461 199.523 42.968 199.542 42.504C199.581 42.0206 199.6 41.605 199.6 41.257C199.6 40.4643 199.629 39.6136 199.687 38.705C199.745 37.7963 199.861 36.907 200.035 36.037C200.209 35.1476 200.441 34.297 200.731 33.485C201.021 32.673 201.398 31.9576 201.862 31.339C202.326 30.7203 202.887 30.2273 203.544 29.86C204.202 29.4926 204.975 29.309 205.864 29.309C206.599 29.309 207.285 29.5796 207.923 30.121C208.561 30.6623 209.122 31.3873 209.605 32.296C210.108 33.1853 210.533 34.2003 210.881 35.341C211.249 36.4816 211.529 37.6513 211.722 38.85C211.916 40.0293 212.022 41.1893 212.041 42.33C212.08 43.4706 212.022 44.4953 211.867 45.404C211.713 46.2933 211.452 47.0086 211.084 47.55C210.736 48.0913 210.272 48.362 209.692 48.362C209.48 48.362 209.267 48.3716 209.054 48.391C208.842 48.4103 208.629 48.4103 208.416 48.391C208.223 48.3523 208.039 48.2846 207.865 48.188C207.691 48.0913 207.537 47.927 207.401 47.695C207.382 47.6756 207.372 47.6563 207.372 47.637C207.218 47.405 207.082 47.0183 206.966 46.477C206.87 45.9356 206.792 45.3653 206.734 44.766C206.676 44.1473 206.628 43.5673 206.589 43.026C206.57 42.4653 206.56 42.0496 206.56 41.779C206.522 41.5276 206.386 41.3633 206.154 41.286C205.942 41.1893 205.71 41.1603 205.458 41.199C205.226 41.2376 205.014 41.3343 204.82 41.489C204.627 41.6243 204.54 41.808 204.559 42.04C204.579 42.562 204.608 43.1806 204.646 43.896C204.685 44.6113 204.637 45.288 204.501 45.926C204.366 46.564 204.105 47.115 203.718 47.579C203.332 48.0236 202.732 48.246 201.92 48.246ZM205.4 34.21C205.246 34.21 205.11 34.3453 204.994 34.616C204.878 34.8673 204.782 35.167 204.704 35.515C204.646 35.863 204.598 36.2013 204.559 36.53C204.521 36.8586 204.501 37.0906 204.501 37.226V37.806C204.83 37.7673 205.149 37.7383 205.458 37.719C205.787 37.6803 206.106 37.661 206.415 37.661C206.435 37.5063 206.444 37.3613 206.444 37.226C206.464 37.0713 206.473 36.9166 206.473 36.762C206.473 36.6073 206.454 36.3946 206.415 36.124C206.396 35.834 206.338 35.5536 206.241 35.283C206.164 34.993 206.058 34.7416 205.922 34.529C205.787 34.3163 205.613 34.21 205.4 34.21Z" fill="#FE6A13"/>
<path d="M216.474 48.275C216.107 48.275 215.788 48.1783 215.517 47.985C215.266 47.7723 215.044 47.5113 214.85 47.202C214.657 46.8926 214.502 46.5736 214.386 46.245C214.29 45.897 214.222 45.578 214.183 45.288L214.038 36.472C214.038 35.4086 214.029 34.4516 214.009 33.601C213.99 32.7503 214.067 32.0156 214.241 31.397C214.435 30.759 214.773 30.2563 215.256 29.889C215.759 29.5216 216.523 29.2993 217.547 29.222C217.973 29.2026 218.369 29.193 218.736 29.193C219.104 29.1736 219.461 29.1736 219.809 29.193C220.157 29.193 220.515 29.222 220.882 29.28C221.25 29.338 221.656 29.4056 222.1 29.483C222.68 29.599 223.212 29.831 223.695 30.179C224.179 30.5076 224.594 30.9233 224.942 31.426C225.29 31.9093 225.561 32.47 225.754 33.108C225.948 33.7266 226.044 34.3936 226.044 35.109C226.044 37.313 225.426 38.9273 224.188 39.952C222.97 40.9573 221.279 41.431 219.113 41.373L219.084 44.737C219.084 45.1816 219.046 45.5876 218.968 45.955C218.891 46.303 218.756 46.6896 218.562 47.115V47.144C218.33 47.4726 218.021 47.7433 217.634 47.956C217.267 48.1686 216.88 48.275 216.474 48.275ZM219.2 36.936C219.993 36.936 220.554 36.7523 220.882 36.385C221.23 35.9983 221.385 35.5826 221.346 35.138C221.308 34.6933 221.095 34.297 220.708 33.949C220.341 33.601 219.838 33.456 219.2 33.514V36.936Z" fill="#FE6A13"/>
<path d="M238.864 44.36C238.864 45.0753 238.7 45.7036 238.371 46.245C238.062 46.767 237.646 47.202 237.124 47.55C236.621 47.898 236.051 48.159 235.413 48.333C234.794 48.507 234.176 48.594 233.557 48.594C233.074 48.594 232.474 48.5456 231.759 48.449C231.044 48.3523 230.367 48.188 229.729 47.956C229.091 47.724 228.569 47.4146 228.163 47.028C227.757 46.6413 227.631 46.158 227.786 45.578C227.96 44.9013 228.211 44.4373 228.54 44.186C228.888 43.9346 229.265 43.8186 229.671 43.838C230.096 43.838 230.522 43.925 230.947 44.099C231.372 44.273 231.749 44.4276 232.078 44.563C232.426 44.679 232.697 44.7466 232.89 44.766C233.103 44.766 233.199 44.6016 233.18 44.273C233.161 44.0216 233.016 43.8186 232.745 43.664C232.494 43.49 232.184 43.3353 231.817 43.2C231.45 43.0453 231.044 42.8906 230.599 42.736C230.174 42.562 229.768 42.3396 229.381 42.069C229.014 41.779 228.695 41.431 228.424 41.025C228.173 40.619 228.028 40.097 227.989 39.459C227.931 38.4536 228.066 37.6513 228.395 37.052C228.743 36.4526 229.178 35.9983 229.7 35.689C230.241 35.3603 230.831 35.1476 231.469 35.051C232.126 34.9543 232.745 34.906 233.325 34.906C233.731 34.906 234.234 34.964 234.833 35.08C235.452 35.196 236.041 35.3796 236.602 35.631C237.163 35.863 237.646 36.1723 238.052 36.559C238.458 36.9263 238.661 37.3613 238.661 37.864C238.661 38.0573 238.593 38.27 238.458 38.502C238.323 38.7146 238.149 38.9176 237.936 39.111C237.743 39.3043 237.53 39.4686 237.298 39.604C237.085 39.72 236.892 39.778 236.718 39.778C236.409 39.778 236.128 39.7006 235.877 39.546C235.645 39.3913 235.403 39.227 235.152 39.053C234.92 38.879 234.678 38.7146 234.427 38.56C234.195 38.4053 233.924 38.328 233.615 38.328C233.402 38.328 233.219 38.3956 233.064 38.531C232.909 38.6663 232.832 38.879 232.832 39.169C232.832 39.343 232.977 39.4976 233.267 39.633C233.576 39.749 233.953 39.8843 234.398 40.039C234.843 40.1936 235.326 40.3773 235.848 40.59C236.37 40.7833 236.853 41.0443 237.298 41.373C237.743 41.7016 238.11 42.1076 238.4 42.591C238.709 43.0743 238.864 43.664 238.864 44.36Z" fill="#FE6A13"/>
</svg>
